M48
; DRILL file {KiCad 5.1.10-88a1d61d58~88~ubuntu20.04.1} date Tue Jun  8 22:15:14 2021
; FORMAT={-:-/ absolute / inch / decimal}
; #@! TF.CreationDate,2021-06-08T22:15:14+03:00
; #@! TF.GenerationSoftware,Kicad,Pcbnew,5.1.10-88a1d61d58~88~ubuntu20.04.1
FMAT,2
INCH
T1C0.0157
T2C0.0394
T3C0.0402
T4C0.0591
T5C0.1181
T6C0.0591
T7C0.0669
T8C0.0709
T9C0.1575
%
G90
G05
T1
X21.673Y-14.7465
X21.89Y-15.39
X21.9Y-16.9
X21.9Y-17.64
X21.92Y-16.15
X22.06Y-15.52
X22.06Y-17.78
X22.09Y-16.28
X22.09Y-17.02
X22.3875Y-14.0675
X22.64Y-16.9
X22.65Y-17.64
X22.66Y-15.32
X22.66Y-16.15
X22.82Y-16.27
X22.86Y-15.52
X22.87Y-17.02
X22.9Y-17.77
X23.08Y-14.9
X23.16Y-14.91
X23.39Y-15.34
X23.4Y-16.9
X23.4Y-17.65
X23.42Y-16.15
X23.58Y-16.27
X23.58Y-17.02
X23.6Y-17.77
X23.61Y-15.52
X23.91Y-15.02
X23.91Y-15.27
X24.12Y-15.33
X24.12Y-16.9
X24.16Y-16.15
X24.17Y-17.65
X24.26Y-16.31
X24.3Y-17.04
X24.31Y-15.54
X24.31Y-16.26
X24.33Y-16.98
X24.34Y-15.49
X24.48Y-16.98
X24.49Y-15.49
X24.5Y-16.26
X24.53Y-17.76
T2
X22.8335Y-13.4795
X22.9335Y-13.4795
X23.0335Y-13.4795
X23.1335Y-13.4795
X23.2335Y-13.4795
X23.3335Y-13.4795
X23.4335Y-13.4795
T3
X21.38Y-13.875
X21.38Y-14.575
X21.48Y-13.875
X21.48Y-14.575
X21.58Y-13.875
X21.58Y-14.575
X21.68Y-13.875
X21.68Y-14.575
X21.78Y-13.875
X21.78Y-14.575
X21.88Y-13.875
X21.88Y-14.575
X21.98Y-13.875
X21.98Y-14.575
X22.08Y-13.875
X22.08Y-14.575
X22.18Y-13.875
X22.18Y-14.575
X22.28Y-13.875
X22.28Y-14.575
X22.38Y-13.875
X22.38Y-14.575
X22.48Y-13.875
X22.48Y-14.575
X22.58Y-13.875
X22.58Y-14.575
X22.68Y-13.875
X22.68Y-14.575
X22.78Y-13.875
X22.78Y-14.575
X22.88Y-13.875
X22.88Y-14.575
X22.98Y-13.875
X22.98Y-14.575
X23.08Y-13.875
X23.08Y-14.575
X23.18Y-13.875
X23.18Y-14.575
X23.2709Y-14.125
X23.2709Y-14.225
X23.2709Y-14.325
X23.28Y-13.875
X23.28Y-14.575
T4
X21.85Y-15.075
X21.85Y-15.825
X21.85Y-16.575
X21.85Y-17.325
X22.1Y-14.975
X22.1Y-15.725
X22.1Y-16.475
X22.1Y-17.225
X22.6Y-15.075
X22.6Y-15.825
X22.6Y-16.575
X22.6Y-17.325
X22.85Y-14.975
X22.85Y-15.725
X22.85Y-16.475
X22.85Y-17.225
X23.35Y-15.075
X23.35Y-15.825
X23.35Y-16.575
X23.35Y-17.325
X23.6Y-14.975
X23.6Y-15.725
X23.6Y-16.475
X23.6Y-17.225
X24.1Y-15.075
X24.1Y-15.825
X24.1Y-16.575
X24.1Y-17.325
X24.35Y-14.975
X24.35Y-15.725
X24.35Y-16.475
X24.35Y-17.225
T5
X21.5Y-13.48
X21.5Y-15.52
X21.5Y-17.66
X24.76Y-13.48
X24.76Y-15.52
X24.76Y-17.66
T6
X21.5044Y-14.1295
X21.5044Y-14.3205
T7
X21.8Y-15.175
X21.8Y-15.925
X21.8Y-16.675
X21.8Y-17.425
X22.2Y-15.175
X22.2Y-15.925
X22.2Y-16.675
X22.2Y-17.425
X22.55Y-15.175
X22.55Y-15.925
X22.55Y-16.675
X22.55Y-17.425
X22.95Y-15.175
X22.95Y-15.925
X22.95Y-16.675
X22.95Y-17.425
X23.3Y-15.175
X23.3Y-15.925
X23.3Y-16.675
X23.3Y-17.425
X23.7Y-15.175
X23.7Y-15.925
X23.7Y-16.675
X23.7Y-17.425
X24.05Y-15.175
X24.05Y-15.925
X24.05Y-16.675
X24.05Y-17.425
X24.45Y-15.175
X24.45Y-15.925
X24.45Y-16.675
X24.45Y-17.425
T8
X21.3851Y-14.1177
X21.3851Y-14.3323
T9
X22.0Y-15.175
X22.0Y-15.925
X22.0Y-16.675
X22.0Y-17.425
X22.75Y-15.175
X22.75Y-15.925
X22.75Y-16.675
X22.75Y-17.425
X23.5Y-15.175
X23.5Y-15.925
X23.5Y-16.675
X23.5Y-17.425
X24.25Y-15.175
X24.25Y-15.925
X24.25Y-16.675
X24.25Y-17.425
T0
M30
