%TF.GenerationSoftware,KiCad,Pcbnew,5.1.10-88a1d61d58~88~ubuntu20.04.1*%
%TF.CreationDate,2021-06-08T22:13:52+03:00*%
%TF.ProjectId,picoMacro,7069636f-4d61-4637-926f-2e6b69636164,rev?*%
%TF.SameCoordinates,Original*%
%TF.FileFunction,Soldermask,Top*%
%TF.FilePolarity,Negative*%
%FSLAX46Y46*%
G04 Gerber Fmt 4.6, Leading zero omitted, Abs format (unit mm)*
G04 Created by KiCad (PCBNEW 5.1.10-88a1d61d58~88~ubuntu20.04.1) date 2021-06-08 22:13:52*
%MOMM*%
%LPD*%
G01*
G04 APERTURE LIST*
%TA.AperFunction,Profile*%
%ADD10C,0.050000*%
%TD*%
%ADD11C,6.000000*%
%ADD12O,1.700000X1.700000*%
%ADD13R,3.500000X1.700000*%
%ADD14R,1.700000X1.700000*%
%ADD15O,1.500000X1.500000*%
%ADD16O,1.800000X1.800000*%
%ADD17R,1.700000X3.500000*%
%ADD18R,0.700000X0.700000*%
%ADD19C,1.700000*%
%ADD20C,4.000000*%
%ADD21C,2.200000*%
G04 APERTURE END LIST*
D10*
X633476000Y-337820000D02*
X541528000Y-337820000D01*
X633476000Y-453136000D02*
X633476000Y-337820000D01*
X541528000Y-453136000D02*
X633476000Y-453136000D01*
X541528000Y-337820000D02*
X541528000Y-453136000D01*
D11*
%TO.C,REF\u002A\u002A*%
X628904000Y-342392000D03*
%TD*%
D12*
%TO.C,U1*%
X591082000Y-358775000D03*
D13*
X591982000Y-358775000D03*
D14*
X591082000Y-361315000D03*
D13*
X591982000Y-361315000D03*
D12*
X591082000Y-363855000D03*
D13*
X591982000Y-363855000D03*
D15*
X546212000Y-358890000D03*
X546212000Y-363740000D03*
D16*
X543182000Y-358590000D03*
X543182000Y-364040000D03*
D17*
X591312000Y-351525000D03*
X588772000Y-351525000D03*
X586232000Y-351525000D03*
X583692000Y-351525000D03*
X581152000Y-351525000D03*
X578612000Y-351525000D03*
X576072000Y-351525000D03*
X573532000Y-351525000D03*
X570992000Y-351525000D03*
X568452000Y-351525000D03*
X565912000Y-351525000D03*
X563372000Y-351525000D03*
X560832000Y-351525000D03*
X558292000Y-351525000D03*
X555752000Y-351525000D03*
X553212000Y-351525000D03*
X550672000Y-351525000D03*
X548132000Y-351525000D03*
X545592000Y-351525000D03*
X543052000Y-351525000D03*
X591312000Y-371105000D03*
X588772000Y-371105000D03*
X586232000Y-371105000D03*
X583692000Y-371105000D03*
X581152000Y-371105000D03*
X578612000Y-371105000D03*
X576072000Y-371105000D03*
X573532000Y-371105000D03*
X570992000Y-371105000D03*
X568452000Y-371105000D03*
X565912000Y-371105000D03*
X563372000Y-371105000D03*
X560832000Y-371105000D03*
X558292000Y-371105000D03*
X555752000Y-371105000D03*
X553212000Y-371105000D03*
X550672000Y-371105000D03*
X548132000Y-371105000D03*
X545592000Y-371105000D03*
X543052000Y-371105000D03*
D12*
X543052000Y-352425000D03*
X545592000Y-352425000D03*
D14*
X548132000Y-352425000D03*
D12*
X550672000Y-352425000D03*
X553212000Y-352425000D03*
X555752000Y-352425000D03*
X558292000Y-352425000D03*
D14*
X560832000Y-352425000D03*
D12*
X563372000Y-352425000D03*
X565912000Y-352425000D03*
X568452000Y-352425000D03*
X570992000Y-352425000D03*
D14*
X573532000Y-352425000D03*
D12*
X576072000Y-352425000D03*
X578612000Y-352425000D03*
X581152000Y-352425000D03*
X583692000Y-352425000D03*
D14*
X586232000Y-352425000D03*
D12*
X588772000Y-352425000D03*
X591312000Y-352425000D03*
X591312000Y-370205000D03*
X588772000Y-370205000D03*
D14*
X586232000Y-370205000D03*
D12*
X583692000Y-370205000D03*
X581152000Y-370205000D03*
X578612000Y-370205000D03*
X576072000Y-370205000D03*
D14*
X573532000Y-370205000D03*
D12*
X570992000Y-370205000D03*
X568452000Y-370205000D03*
X565912000Y-370205000D03*
X563372000Y-370205000D03*
D14*
X560832000Y-370205000D03*
D12*
X558292000Y-370205000D03*
X555752000Y-370205000D03*
X553212000Y-370205000D03*
X550672000Y-370205000D03*
D14*
X548132000Y-370205000D03*
D12*
X545592000Y-370205000D03*
X543052000Y-370205000D03*
%TD*%
D11*
%TO.C,REF\u002A\u002A*%
X546100000Y-342392000D03*
%TD*%
%TO.C,REF\u002A\u002A*%
X628904000Y-394208000D03*
%TD*%
%TO.C,REF\u002A\u002A*%
X546100000Y-394208000D03*
%TD*%
%TO.C,REF\u002A\u002A*%
X546100000Y-448564000D03*
%TD*%
%TO.C,REF\u002A\u002A*%
X628904000Y-448564000D03*
%TD*%
D18*
%TO.C,LED16*%
X615035000Y-448225000D03*
X615035000Y-447125000D03*
X616865000Y-447125000D03*
X616865000Y-448225000D03*
%TD*%
%TO.C,LED15*%
X595985000Y-448225000D03*
X595985000Y-447125000D03*
X597815000Y-447125000D03*
X597815000Y-448225000D03*
%TD*%
%TO.C,LED14*%
X576935000Y-448225000D03*
X576935000Y-447125000D03*
X578765000Y-447125000D03*
X578765000Y-448225000D03*
%TD*%
%TO.C,LED13*%
X557885000Y-448225000D03*
X557885000Y-447125000D03*
X559715000Y-447125000D03*
X559715000Y-448225000D03*
%TD*%
%TO.C,LED12*%
X615035000Y-429175000D03*
X615035000Y-428075000D03*
X616865000Y-428075000D03*
X616865000Y-429175000D03*
%TD*%
%TO.C,LED11*%
X595985000Y-429175000D03*
X595985000Y-428075000D03*
X597815000Y-428075000D03*
X597815000Y-429175000D03*
%TD*%
%TO.C,LED10*%
X576935000Y-429175000D03*
X576935000Y-428075000D03*
X578765000Y-428075000D03*
X578765000Y-429175000D03*
%TD*%
%TO.C,LED9*%
X557885000Y-429175000D03*
X557885000Y-428075000D03*
X559715000Y-428075000D03*
X559715000Y-429175000D03*
%TD*%
%TO.C,LED8*%
X615035000Y-410125000D03*
X615035000Y-409025000D03*
X616865000Y-409025000D03*
X616865000Y-410125000D03*
%TD*%
%TO.C,LED7*%
X595985000Y-410125000D03*
X595985000Y-409025000D03*
X597815000Y-409025000D03*
X597815000Y-410125000D03*
%TD*%
%TO.C,LED6*%
X576935000Y-410125000D03*
X576935000Y-409025000D03*
X578765000Y-409025000D03*
X578765000Y-410125000D03*
%TD*%
%TO.C,LED5*%
X557885000Y-410125000D03*
X557885000Y-409025000D03*
X559715000Y-409025000D03*
X559715000Y-410125000D03*
%TD*%
%TO.C,LED4*%
X615035000Y-391075000D03*
X615035000Y-389975000D03*
X616865000Y-389975000D03*
X616865000Y-391075000D03*
%TD*%
%TO.C,LED3*%
X595985000Y-391075000D03*
X595985000Y-389975000D03*
X597815000Y-389975000D03*
X597815000Y-391075000D03*
%TD*%
%TO.C,LED2*%
X576935000Y-391075000D03*
X576935000Y-389975000D03*
X578765000Y-389975000D03*
X578765000Y-391075000D03*
%TD*%
%TO.C,LED1*%
X557885000Y-391075000D03*
X557885000Y-389975000D03*
X559715000Y-389975000D03*
X559715000Y-391075000D03*
%TD*%
D19*
%TO.C,SW16*%
X621030000Y-442595000D03*
X610870000Y-442595000D03*
D20*
X615950000Y-442595000D03*
D21*
X612140000Y-440055000D03*
X618490000Y-437515000D03*
%TD*%
D19*
%TO.C,SW15*%
X601980000Y-442595000D03*
X591820000Y-442595000D03*
D20*
X596900000Y-442595000D03*
D21*
X593090000Y-440055000D03*
X599440000Y-437515000D03*
%TD*%
D19*
%TO.C,SW14*%
X582930000Y-442595000D03*
X572770000Y-442595000D03*
D20*
X577850000Y-442595000D03*
D21*
X574040000Y-440055000D03*
X580390000Y-437515000D03*
%TD*%
D19*
%TO.C,SW13*%
X563880000Y-442595000D03*
X553720000Y-442595000D03*
D20*
X558800000Y-442595000D03*
D21*
X554990000Y-440055000D03*
X561340000Y-437515000D03*
%TD*%
D19*
%TO.C,SW12*%
X621030000Y-423545000D03*
X610870000Y-423545000D03*
D20*
X615950000Y-423545000D03*
D21*
X612140000Y-421005000D03*
X618490000Y-418465000D03*
%TD*%
D19*
%TO.C,SW11*%
X601980000Y-423545000D03*
X591820000Y-423545000D03*
D20*
X596900000Y-423545000D03*
D21*
X593090000Y-421005000D03*
X599440000Y-418465000D03*
%TD*%
D19*
%TO.C,SW10*%
X582930000Y-423545000D03*
X572770000Y-423545000D03*
D20*
X577850000Y-423545000D03*
D21*
X574040000Y-421005000D03*
X580390000Y-418465000D03*
%TD*%
D19*
%TO.C,SW9*%
X563880000Y-423545000D03*
X553720000Y-423545000D03*
D20*
X558800000Y-423545000D03*
D21*
X554990000Y-421005000D03*
X561340000Y-418465000D03*
%TD*%
D19*
%TO.C,SW8*%
X621030000Y-404495000D03*
X610870000Y-404495000D03*
D20*
X615950000Y-404495000D03*
D21*
X612140000Y-401955000D03*
X618490000Y-399415000D03*
%TD*%
D19*
%TO.C,SW7*%
X601980000Y-404495000D03*
X591820000Y-404495000D03*
D20*
X596900000Y-404495000D03*
D21*
X593090000Y-401955000D03*
X599440000Y-399415000D03*
%TD*%
D19*
%TO.C,SW6*%
X582930000Y-404495000D03*
X572770000Y-404495000D03*
D20*
X577850000Y-404495000D03*
D21*
X574040000Y-401955000D03*
X580390000Y-399415000D03*
%TD*%
D19*
%TO.C,SW5*%
X563880000Y-404495000D03*
X553720000Y-404495000D03*
D20*
X558800000Y-404495000D03*
D21*
X554990000Y-401955000D03*
X561340000Y-399415000D03*
%TD*%
D19*
%TO.C,SW4*%
X621030000Y-385445000D03*
X610870000Y-385445000D03*
D20*
X615950000Y-385445000D03*
D21*
X612140000Y-382905000D03*
X618490000Y-380365000D03*
%TD*%
D19*
%TO.C,SW3*%
X601980000Y-385445000D03*
X591820000Y-385445000D03*
D20*
X596900000Y-385445000D03*
D21*
X593090000Y-382905000D03*
X599440000Y-380365000D03*
%TD*%
D19*
%TO.C,SW2*%
X582930000Y-385445000D03*
X572770000Y-385445000D03*
D20*
X577850000Y-385445000D03*
D21*
X574040000Y-382905000D03*
X580390000Y-380365000D03*
%TD*%
D19*
%TO.C,SW1*%
X563880000Y-385445000D03*
X553720000Y-385445000D03*
D20*
X558800000Y-385445000D03*
D21*
X554990000Y-382905000D03*
X561340000Y-380365000D03*
%TD*%
%TO.C,R1*%
G36*
G01*
X550782500Y-377042500D02*
X550307500Y-377042500D01*
G75*
G02*
X550070000Y-376805000I0J237500D01*
G01*
X550070000Y-376305000D01*
G75*
G02*
X550307500Y-376067500I237500J0D01*
G01*
X550782500Y-376067500D01*
G75*
G02*
X551020000Y-376305000I0J-237500D01*
G01*
X551020000Y-376805000D01*
G75*
G02*
X550782500Y-377042500I-237500J0D01*
G01*
G37*
G36*
G01*
X550782500Y-378867500D02*
X550307500Y-378867500D01*
G75*
G02*
X550070000Y-378630000I0J237500D01*
G01*
X550070000Y-378130000D01*
G75*
G02*
X550307500Y-377892500I237500J0D01*
G01*
X550782500Y-377892500D01*
G75*
G02*
X551020000Y-378130000I0J-237500D01*
G01*
X551020000Y-378630000D01*
G75*
G02*
X550782500Y-378867500I-237500J0D01*
G01*
G37*
%TD*%
D12*
%TO.C,Disp1*%
X595210900Y-342379300D03*
X592670900Y-342379300D03*
X590130900Y-342379300D03*
X587590900Y-342379300D03*
X585050900Y-342379300D03*
X582510900Y-342379300D03*
D14*
X579970900Y-342379300D03*
%TD*%
%TO.C,C18*%
G36*
G01*
X607584000Y-370808000D02*
X609584000Y-370808000D01*
G75*
G02*
X609834000Y-371058000I0J-250000D01*
G01*
X609834000Y-374558000D01*
G75*
G02*
X609584000Y-374808000I-250000J0D01*
G01*
X607584000Y-374808000D01*
G75*
G02*
X607334000Y-374558000I0J250000D01*
G01*
X607334000Y-371058000D01*
G75*
G02*
X607584000Y-370808000I250000J0D01*
G01*
G37*
G36*
G01*
X607584000Y-362808000D02*
X609584000Y-362808000D01*
G75*
G02*
X609834000Y-363058000I0J-250000D01*
G01*
X609834000Y-366558000D01*
G75*
G02*
X609584000Y-366808000I-250000J0D01*
G01*
X607584000Y-366808000D01*
G75*
G02*
X607334000Y-366558000I0J250000D01*
G01*
X607334000Y-363058000D01*
G75*
G02*
X607584000Y-362808000I250000J0D01*
G01*
G37*
%TD*%
%TO.C,C17*%
G36*
G01*
X618760000Y-370872000D02*
X620760000Y-370872000D01*
G75*
G02*
X621010000Y-371122000I0J-250000D01*
G01*
X621010000Y-374622000D01*
G75*
G02*
X620760000Y-374872000I-250000J0D01*
G01*
X618760000Y-374872000D01*
G75*
G02*
X618510000Y-374622000I0J250000D01*
G01*
X618510000Y-371122000D01*
G75*
G02*
X618760000Y-370872000I250000J0D01*
G01*
G37*
G36*
G01*
X618760000Y-362872000D02*
X620760000Y-362872000D01*
G75*
G02*
X621010000Y-363122000I0J-250000D01*
G01*
X621010000Y-366622000D01*
G75*
G02*
X620760000Y-366872000I-250000J0D01*
G01*
X618760000Y-366872000D01*
G75*
G02*
X618510000Y-366622000I0J250000D01*
G01*
X618510000Y-363122000D01*
G75*
G02*
X618760000Y-362872000I250000J0D01*
G01*
G37*
%TD*%
%TO.C,C16*%
G36*
G01*
X610317500Y-451247500D02*
X610317500Y-451722500D01*
G75*
G02*
X610080000Y-451960000I-237500J0D01*
G01*
X609480000Y-451960000D01*
G75*
G02*
X609242500Y-451722500I0J237500D01*
G01*
X609242500Y-451247500D01*
G75*
G02*
X609480000Y-451010000I237500J0D01*
G01*
X610080000Y-451010000D01*
G75*
G02*
X610317500Y-451247500I0J-237500D01*
G01*
G37*
G36*
G01*
X612042500Y-451247500D02*
X612042500Y-451722500D01*
G75*
G02*
X611805000Y-451960000I-237500J0D01*
G01*
X611205000Y-451960000D01*
G75*
G02*
X610967500Y-451722500I0J237500D01*
G01*
X610967500Y-451247500D01*
G75*
G02*
X611205000Y-451010000I237500J0D01*
G01*
X611805000Y-451010000D01*
G75*
G02*
X612042500Y-451247500I0J-237500D01*
G01*
G37*
%TD*%
%TO.C,C15*%
G36*
G01*
X591214500Y-451247500D02*
X591214500Y-451722500D01*
G75*
G02*
X590977000Y-451960000I-237500J0D01*
G01*
X590377000Y-451960000D01*
G75*
G02*
X590139500Y-451722500I0J237500D01*
G01*
X590139500Y-451247500D01*
G75*
G02*
X590377000Y-451010000I237500J0D01*
G01*
X590977000Y-451010000D01*
G75*
G02*
X591214500Y-451247500I0J-237500D01*
G01*
G37*
G36*
G01*
X592939500Y-451247500D02*
X592939500Y-451722500D01*
G75*
G02*
X592702000Y-451960000I-237500J0D01*
G01*
X592102000Y-451960000D01*
G75*
G02*
X591864500Y-451722500I0J237500D01*
G01*
X591864500Y-451247500D01*
G75*
G02*
X592102000Y-451010000I237500J0D01*
G01*
X592702000Y-451010000D01*
G75*
G02*
X592939500Y-451247500I0J-237500D01*
G01*
G37*
%TD*%
%TO.C,C14*%
G36*
G01*
X572217500Y-451247500D02*
X572217500Y-451722500D01*
G75*
G02*
X571980000Y-451960000I-237500J0D01*
G01*
X571380000Y-451960000D01*
G75*
G02*
X571142500Y-451722500I0J237500D01*
G01*
X571142500Y-451247500D01*
G75*
G02*
X571380000Y-451010000I237500J0D01*
G01*
X571980000Y-451010000D01*
G75*
G02*
X572217500Y-451247500I0J-237500D01*
G01*
G37*
G36*
G01*
X573942500Y-451247500D02*
X573942500Y-451722500D01*
G75*
G02*
X573705000Y-451960000I-237500J0D01*
G01*
X573105000Y-451960000D01*
G75*
G02*
X572867500Y-451722500I0J237500D01*
G01*
X572867500Y-451247500D01*
G75*
G02*
X573105000Y-451010000I237500J0D01*
G01*
X573705000Y-451010000D01*
G75*
G02*
X573942500Y-451247500I0J-237500D01*
G01*
G37*
%TD*%
%TO.C,C13*%
G36*
G01*
X553114500Y-451247500D02*
X553114500Y-451722500D01*
G75*
G02*
X552877000Y-451960000I-237500J0D01*
G01*
X552277000Y-451960000D01*
G75*
G02*
X552039500Y-451722500I0J237500D01*
G01*
X552039500Y-451247500D01*
G75*
G02*
X552277000Y-451010000I237500J0D01*
G01*
X552877000Y-451010000D01*
G75*
G02*
X553114500Y-451247500I0J-237500D01*
G01*
G37*
G36*
G01*
X554839500Y-451247500D02*
X554839500Y-451722500D01*
G75*
G02*
X554602000Y-451960000I-237500J0D01*
G01*
X554002000Y-451960000D01*
G75*
G02*
X553764500Y-451722500I0J237500D01*
G01*
X553764500Y-451247500D01*
G75*
G02*
X554002000Y-451010000I237500J0D01*
G01*
X554602000Y-451010000D01*
G75*
G02*
X554839500Y-451247500I0J-237500D01*
G01*
G37*
%TD*%
%TO.C,C12*%
G36*
G01*
X610264500Y-432197500D02*
X610264500Y-432672500D01*
G75*
G02*
X610027000Y-432910000I-237500J0D01*
G01*
X609427000Y-432910000D01*
G75*
G02*
X609189500Y-432672500I0J237500D01*
G01*
X609189500Y-432197500D01*
G75*
G02*
X609427000Y-431960000I237500J0D01*
G01*
X610027000Y-431960000D01*
G75*
G02*
X610264500Y-432197500I0J-237500D01*
G01*
G37*
G36*
G01*
X611989500Y-432197500D02*
X611989500Y-432672500D01*
G75*
G02*
X611752000Y-432910000I-237500J0D01*
G01*
X611152000Y-432910000D01*
G75*
G02*
X610914500Y-432672500I0J237500D01*
G01*
X610914500Y-432197500D01*
G75*
G02*
X611152000Y-431960000I237500J0D01*
G01*
X611752000Y-431960000D01*
G75*
G02*
X611989500Y-432197500I0J-237500D01*
G01*
G37*
%TD*%
%TO.C,C11*%
G36*
G01*
X591214500Y-432197500D02*
X591214500Y-432672500D01*
G75*
G02*
X590977000Y-432910000I-237500J0D01*
G01*
X590377000Y-432910000D01*
G75*
G02*
X590139500Y-432672500I0J237500D01*
G01*
X590139500Y-432197500D01*
G75*
G02*
X590377000Y-431960000I237500J0D01*
G01*
X590977000Y-431960000D01*
G75*
G02*
X591214500Y-432197500I0J-237500D01*
G01*
G37*
G36*
G01*
X592939500Y-432197500D02*
X592939500Y-432672500D01*
G75*
G02*
X592702000Y-432910000I-237500J0D01*
G01*
X592102000Y-432910000D01*
G75*
G02*
X591864500Y-432672500I0J237500D01*
G01*
X591864500Y-432197500D01*
G75*
G02*
X592102000Y-431960000I237500J0D01*
G01*
X592702000Y-431960000D01*
G75*
G02*
X592939500Y-432197500I0J-237500D01*
G01*
G37*
%TD*%
%TO.C,C10*%
G36*
G01*
X572217500Y-432197500D02*
X572217500Y-432672500D01*
G75*
G02*
X571980000Y-432910000I-237500J0D01*
G01*
X571380000Y-432910000D01*
G75*
G02*
X571142500Y-432672500I0J237500D01*
G01*
X571142500Y-432197500D01*
G75*
G02*
X571380000Y-431960000I237500J0D01*
G01*
X571980000Y-431960000D01*
G75*
G02*
X572217500Y-432197500I0J-237500D01*
G01*
G37*
G36*
G01*
X573942500Y-432197500D02*
X573942500Y-432672500D01*
G75*
G02*
X573705000Y-432910000I-237500J0D01*
G01*
X573105000Y-432910000D01*
G75*
G02*
X572867500Y-432672500I0J237500D01*
G01*
X572867500Y-432197500D01*
G75*
G02*
X573105000Y-431960000I237500J0D01*
G01*
X573705000Y-431960000D01*
G75*
G02*
X573942500Y-432197500I0J-237500D01*
G01*
G37*
%TD*%
%TO.C,C9*%
G36*
G01*
X553167500Y-432197500D02*
X553167500Y-432672500D01*
G75*
G02*
X552930000Y-432910000I-237500J0D01*
G01*
X552330000Y-432910000D01*
G75*
G02*
X552092500Y-432672500I0J237500D01*
G01*
X552092500Y-432197500D01*
G75*
G02*
X552330000Y-431960000I237500J0D01*
G01*
X552930000Y-431960000D01*
G75*
G02*
X553167500Y-432197500I0J-237500D01*
G01*
G37*
G36*
G01*
X554892500Y-432197500D02*
X554892500Y-432672500D01*
G75*
G02*
X554655000Y-432910000I-237500J0D01*
G01*
X554055000Y-432910000D01*
G75*
G02*
X553817500Y-432672500I0J237500D01*
G01*
X553817500Y-432197500D01*
G75*
G02*
X554055000Y-431960000I237500J0D01*
G01*
X554655000Y-431960000D01*
G75*
G02*
X554892500Y-432197500I0J-237500D01*
G01*
G37*
%TD*%
%TO.C,C8*%
G36*
G01*
X610317500Y-413147500D02*
X610317500Y-413622500D01*
G75*
G02*
X610080000Y-413860000I-237500J0D01*
G01*
X609480000Y-413860000D01*
G75*
G02*
X609242500Y-413622500I0J237500D01*
G01*
X609242500Y-413147500D01*
G75*
G02*
X609480000Y-412910000I237500J0D01*
G01*
X610080000Y-412910000D01*
G75*
G02*
X610317500Y-413147500I0J-237500D01*
G01*
G37*
G36*
G01*
X612042500Y-413147500D02*
X612042500Y-413622500D01*
G75*
G02*
X611805000Y-413860000I-237500J0D01*
G01*
X611205000Y-413860000D01*
G75*
G02*
X610967500Y-413622500I0J237500D01*
G01*
X610967500Y-413147500D01*
G75*
G02*
X611205000Y-412910000I237500J0D01*
G01*
X611805000Y-412910000D01*
G75*
G02*
X612042500Y-413147500I0J-237500D01*
G01*
G37*
%TD*%
%TO.C,C7*%
G36*
G01*
X591214500Y-413147500D02*
X591214500Y-413622500D01*
G75*
G02*
X590977000Y-413860000I-237500J0D01*
G01*
X590377000Y-413860000D01*
G75*
G02*
X590139500Y-413622500I0J237500D01*
G01*
X590139500Y-413147500D01*
G75*
G02*
X590377000Y-412910000I237500J0D01*
G01*
X590977000Y-412910000D01*
G75*
G02*
X591214500Y-413147500I0J-237500D01*
G01*
G37*
G36*
G01*
X592939500Y-413147500D02*
X592939500Y-413622500D01*
G75*
G02*
X592702000Y-413860000I-237500J0D01*
G01*
X592102000Y-413860000D01*
G75*
G02*
X591864500Y-413622500I0J237500D01*
G01*
X591864500Y-413147500D01*
G75*
G02*
X592102000Y-412910000I237500J0D01*
G01*
X592702000Y-412910000D01*
G75*
G02*
X592939500Y-413147500I0J-237500D01*
G01*
G37*
%TD*%
%TO.C,C6*%
G36*
G01*
X572217500Y-413147500D02*
X572217500Y-413622500D01*
G75*
G02*
X571980000Y-413860000I-237500J0D01*
G01*
X571380000Y-413860000D01*
G75*
G02*
X571142500Y-413622500I0J237500D01*
G01*
X571142500Y-413147500D01*
G75*
G02*
X571380000Y-412910000I237500J0D01*
G01*
X571980000Y-412910000D01*
G75*
G02*
X572217500Y-413147500I0J-237500D01*
G01*
G37*
G36*
G01*
X573942500Y-413147500D02*
X573942500Y-413622500D01*
G75*
G02*
X573705000Y-413860000I-237500J0D01*
G01*
X573105000Y-413860000D01*
G75*
G02*
X572867500Y-413622500I0J237500D01*
G01*
X572867500Y-413147500D01*
G75*
G02*
X573105000Y-412910000I237500J0D01*
G01*
X573705000Y-412910000D01*
G75*
G02*
X573942500Y-413147500I0J-237500D01*
G01*
G37*
%TD*%
%TO.C,C5*%
G36*
G01*
X553114500Y-413147500D02*
X553114500Y-413622500D01*
G75*
G02*
X552877000Y-413860000I-237500J0D01*
G01*
X552277000Y-413860000D01*
G75*
G02*
X552039500Y-413622500I0J237500D01*
G01*
X552039500Y-413147500D01*
G75*
G02*
X552277000Y-412910000I237500J0D01*
G01*
X552877000Y-412910000D01*
G75*
G02*
X553114500Y-413147500I0J-237500D01*
G01*
G37*
G36*
G01*
X554839500Y-413147500D02*
X554839500Y-413622500D01*
G75*
G02*
X554602000Y-413860000I-237500J0D01*
G01*
X554002000Y-413860000D01*
G75*
G02*
X553764500Y-413622500I0J237500D01*
G01*
X553764500Y-413147500D01*
G75*
G02*
X554002000Y-412910000I237500J0D01*
G01*
X554602000Y-412910000D01*
G75*
G02*
X554839500Y-413147500I0J-237500D01*
G01*
G37*
%TD*%
%TO.C,C4*%
G36*
G01*
X610317500Y-394097500D02*
X610317500Y-394572500D01*
G75*
G02*
X610080000Y-394810000I-237500J0D01*
G01*
X609480000Y-394810000D01*
G75*
G02*
X609242500Y-394572500I0J237500D01*
G01*
X609242500Y-394097500D01*
G75*
G02*
X609480000Y-393860000I237500J0D01*
G01*
X610080000Y-393860000D01*
G75*
G02*
X610317500Y-394097500I0J-237500D01*
G01*
G37*
G36*
G01*
X612042500Y-394097500D02*
X612042500Y-394572500D01*
G75*
G02*
X611805000Y-394810000I-237500J0D01*
G01*
X611205000Y-394810000D01*
G75*
G02*
X610967500Y-394572500I0J237500D01*
G01*
X610967500Y-394097500D01*
G75*
G02*
X611205000Y-393860000I237500J0D01*
G01*
X611805000Y-393860000D01*
G75*
G02*
X612042500Y-394097500I0J-237500D01*
G01*
G37*
%TD*%
%TO.C,C3*%
G36*
G01*
X591267500Y-394097500D02*
X591267500Y-394572500D01*
G75*
G02*
X591030000Y-394810000I-237500J0D01*
G01*
X590430000Y-394810000D01*
G75*
G02*
X590192500Y-394572500I0J237500D01*
G01*
X590192500Y-394097500D01*
G75*
G02*
X590430000Y-393860000I237500J0D01*
G01*
X591030000Y-393860000D01*
G75*
G02*
X591267500Y-394097500I0J-237500D01*
G01*
G37*
G36*
G01*
X592992500Y-394097500D02*
X592992500Y-394572500D01*
G75*
G02*
X592755000Y-394810000I-237500J0D01*
G01*
X592155000Y-394810000D01*
G75*
G02*
X591917500Y-394572500I0J237500D01*
G01*
X591917500Y-394097500D01*
G75*
G02*
X592155000Y-393860000I237500J0D01*
G01*
X592755000Y-393860000D01*
G75*
G02*
X592992500Y-394097500I0J-237500D01*
G01*
G37*
%TD*%
%TO.C,C2*%
G36*
G01*
X572217500Y-394097500D02*
X572217500Y-394572500D01*
G75*
G02*
X571980000Y-394810000I-237500J0D01*
G01*
X571380000Y-394810000D01*
G75*
G02*
X571142500Y-394572500I0J237500D01*
G01*
X571142500Y-394097500D01*
G75*
G02*
X571380000Y-393860000I237500J0D01*
G01*
X571980000Y-393860000D01*
G75*
G02*
X572217500Y-394097500I0J-237500D01*
G01*
G37*
G36*
G01*
X573942500Y-394097500D02*
X573942500Y-394572500D01*
G75*
G02*
X573705000Y-394810000I-237500J0D01*
G01*
X573105000Y-394810000D01*
G75*
G02*
X572867500Y-394572500I0J237500D01*
G01*
X572867500Y-394097500D01*
G75*
G02*
X573105000Y-393860000I237500J0D01*
G01*
X573705000Y-393860000D01*
G75*
G02*
X573942500Y-394097500I0J-237500D01*
G01*
G37*
%TD*%
%TO.C,C1*%
G36*
G01*
X553167500Y-394097500D02*
X553167500Y-394572500D01*
G75*
G02*
X552930000Y-394810000I-237500J0D01*
G01*
X552330000Y-394810000D01*
G75*
G02*
X552092500Y-394572500I0J237500D01*
G01*
X552092500Y-394097500D01*
G75*
G02*
X552330000Y-393860000I237500J0D01*
G01*
X552930000Y-393860000D01*
G75*
G02*
X553167500Y-394097500I0J-237500D01*
G01*
G37*
G36*
G01*
X554892500Y-394097500D02*
X554892500Y-394572500D01*
G75*
G02*
X554655000Y-394810000I-237500J0D01*
G01*
X554055000Y-394810000D01*
G75*
G02*
X553817500Y-394572500I0J237500D01*
G01*
X553817500Y-394097500D01*
G75*
G02*
X554055000Y-393860000I237500J0D01*
G01*
X554655000Y-393860000D01*
G75*
G02*
X554892500Y-394097500I0J-237500D01*
G01*
G37*
%TD*%
M02*
