%TF.GenerationSoftware,KiCad,Pcbnew,5.1.10-88a1d61d58~88~ubuntu20.04.1*%
%TF.CreationDate,2021-06-08T22:13:52+03:00*%
%TF.ProjectId,picoMacro,7069636f-4d61-4637-926f-2e6b69636164,rev?*%
%TF.SameCoordinates,Original*%
%TF.FileFunction,Soldermask,Bot*%
%TF.FilePolarity,Negative*%
%FSLAX46Y46*%
G04 Gerber Fmt 4.6, Leading zero omitted, Abs format (unit mm)*
G04 Created by KiCad (PCBNEW 5.1.10-88a1d61d58~88~ubuntu20.04.1) date 2021-06-08 22:13:52*
%MOMM*%
%LPD*%
G01*
G04 APERTURE LIST*
%TA.AperFunction,Profile*%
%ADD10C,0.050000*%
%TD*%
%ADD11C,6.000000*%
%ADD12O,1.700000X1.700000*%
%ADD13R,1.700000X1.700000*%
%ADD14O,1.500000X1.500000*%
%ADD15O,1.800000X1.800000*%
%ADD16C,1.700000*%
%ADD17C,4.000000*%
%ADD18C,2.200000*%
G04 APERTURE END LIST*
D10*
X633476000Y-337820000D02*
X541528000Y-337820000D01*
X633476000Y-453136000D02*
X633476000Y-337820000D01*
X541528000Y-453136000D02*
X633476000Y-453136000D01*
X541528000Y-337820000D02*
X541528000Y-453136000D01*
D11*
%TO.C,REF\u002A\u002A*%
X628904000Y-342392000D03*
%TD*%
D12*
%TO.C,U1*%
X591082000Y-358775000D03*
D13*
X591082000Y-361315000D03*
D12*
X591082000Y-363855000D03*
D14*
X546212000Y-358890000D03*
X546212000Y-363740000D03*
D15*
X543182000Y-358590000D03*
X543182000Y-364040000D03*
D12*
X543052000Y-352425000D03*
X545592000Y-352425000D03*
D13*
X548132000Y-352425000D03*
D12*
X550672000Y-352425000D03*
X553212000Y-352425000D03*
X555752000Y-352425000D03*
X558292000Y-352425000D03*
D13*
X560832000Y-352425000D03*
D12*
X563372000Y-352425000D03*
X565912000Y-352425000D03*
X568452000Y-352425000D03*
X570992000Y-352425000D03*
D13*
X573532000Y-352425000D03*
D12*
X576072000Y-352425000D03*
X578612000Y-352425000D03*
X581152000Y-352425000D03*
X583692000Y-352425000D03*
D13*
X586232000Y-352425000D03*
D12*
X588772000Y-352425000D03*
X591312000Y-352425000D03*
X591312000Y-370205000D03*
X588772000Y-370205000D03*
D13*
X586232000Y-370205000D03*
D12*
X583692000Y-370205000D03*
X581152000Y-370205000D03*
X578612000Y-370205000D03*
X576072000Y-370205000D03*
D13*
X573532000Y-370205000D03*
D12*
X570992000Y-370205000D03*
X568452000Y-370205000D03*
X565912000Y-370205000D03*
X563372000Y-370205000D03*
D13*
X560832000Y-370205000D03*
D12*
X558292000Y-370205000D03*
X555752000Y-370205000D03*
X553212000Y-370205000D03*
X550672000Y-370205000D03*
D13*
X548132000Y-370205000D03*
D12*
X545592000Y-370205000D03*
X543052000Y-370205000D03*
%TD*%
D11*
%TO.C,REF\u002A\u002A*%
X546100000Y-342392000D03*
%TD*%
%TO.C,REF\u002A\u002A*%
X628904000Y-394208000D03*
%TD*%
%TO.C,REF\u002A\u002A*%
X546100000Y-394208000D03*
%TD*%
%TO.C,REF\u002A\u002A*%
X546100000Y-448564000D03*
%TD*%
%TO.C,REF\u002A\u002A*%
X628904000Y-448564000D03*
%TD*%
D16*
%TO.C,SW16*%
X621030000Y-442595000D03*
X610870000Y-442595000D03*
D17*
X615950000Y-442595000D03*
D18*
X612140000Y-440055000D03*
X618490000Y-437515000D03*
%TD*%
D16*
%TO.C,SW15*%
X601980000Y-442595000D03*
X591820000Y-442595000D03*
D17*
X596900000Y-442595000D03*
D18*
X593090000Y-440055000D03*
X599440000Y-437515000D03*
%TD*%
D16*
%TO.C,SW14*%
X582930000Y-442595000D03*
X572770000Y-442595000D03*
D17*
X577850000Y-442595000D03*
D18*
X574040000Y-440055000D03*
X580390000Y-437515000D03*
%TD*%
D16*
%TO.C,SW13*%
X563880000Y-442595000D03*
X553720000Y-442595000D03*
D17*
X558800000Y-442595000D03*
D18*
X554990000Y-440055000D03*
X561340000Y-437515000D03*
%TD*%
D16*
%TO.C,SW12*%
X621030000Y-423545000D03*
X610870000Y-423545000D03*
D17*
X615950000Y-423545000D03*
D18*
X612140000Y-421005000D03*
X618490000Y-418465000D03*
%TD*%
D16*
%TO.C,SW11*%
X601980000Y-423545000D03*
X591820000Y-423545000D03*
D17*
X596900000Y-423545000D03*
D18*
X593090000Y-421005000D03*
X599440000Y-418465000D03*
%TD*%
D16*
%TO.C,SW10*%
X582930000Y-423545000D03*
X572770000Y-423545000D03*
D17*
X577850000Y-423545000D03*
D18*
X574040000Y-421005000D03*
X580390000Y-418465000D03*
%TD*%
D16*
%TO.C,SW9*%
X563880000Y-423545000D03*
X553720000Y-423545000D03*
D17*
X558800000Y-423545000D03*
D18*
X554990000Y-421005000D03*
X561340000Y-418465000D03*
%TD*%
D16*
%TO.C,SW8*%
X621030000Y-404495000D03*
X610870000Y-404495000D03*
D17*
X615950000Y-404495000D03*
D18*
X612140000Y-401955000D03*
X618490000Y-399415000D03*
%TD*%
D16*
%TO.C,SW7*%
X601980000Y-404495000D03*
X591820000Y-404495000D03*
D17*
X596900000Y-404495000D03*
D18*
X593090000Y-401955000D03*
X599440000Y-399415000D03*
%TD*%
D16*
%TO.C,SW6*%
X582930000Y-404495000D03*
X572770000Y-404495000D03*
D17*
X577850000Y-404495000D03*
D18*
X574040000Y-401955000D03*
X580390000Y-399415000D03*
%TD*%
D16*
%TO.C,SW5*%
X563880000Y-404495000D03*
X553720000Y-404495000D03*
D17*
X558800000Y-404495000D03*
D18*
X554990000Y-401955000D03*
X561340000Y-399415000D03*
%TD*%
D16*
%TO.C,SW4*%
X621030000Y-385445000D03*
X610870000Y-385445000D03*
D17*
X615950000Y-385445000D03*
D18*
X612140000Y-382905000D03*
X618490000Y-380365000D03*
%TD*%
D16*
%TO.C,SW3*%
X601980000Y-385445000D03*
X591820000Y-385445000D03*
D17*
X596900000Y-385445000D03*
D18*
X593090000Y-382905000D03*
X599440000Y-380365000D03*
%TD*%
D16*
%TO.C,SW2*%
X582930000Y-385445000D03*
X572770000Y-385445000D03*
D17*
X577850000Y-385445000D03*
D18*
X574040000Y-382905000D03*
X580390000Y-380365000D03*
%TD*%
D16*
%TO.C,SW1*%
X563880000Y-385445000D03*
X553720000Y-385445000D03*
D17*
X558800000Y-385445000D03*
D18*
X554990000Y-382905000D03*
X561340000Y-380365000D03*
%TD*%
D12*
%TO.C,Disp1*%
X595210900Y-342379300D03*
X592670900Y-342379300D03*
X590130900Y-342379300D03*
X587590900Y-342379300D03*
X585050900Y-342379300D03*
X582510900Y-342379300D03*
D13*
X579970900Y-342379300D03*
%TD*%
M02*
