%TF.GenerationSoftware,KiCad,Pcbnew,5.1.10-88a1d61d58~88~ubuntu20.04.1*%
%TF.CreationDate,2021-06-08T22:13:52+03:00*%
%TF.ProjectId,picoMacro,7069636f-4d61-4637-926f-2e6b69636164,rev?*%
%TF.SameCoordinates,Original*%
%TF.FileFunction,Legend,Top*%
%TF.FilePolarity,Positive*%
%FSLAX46Y46*%
G04 Gerber Fmt 4.6, Leading zero omitted, Abs format (unit mm)*
G04 Created by KiCad (PCBNEW 5.1.10-88a1d61d58~88~ubuntu20.04.1) date 2021-06-08 22:13:52*
%MOMM*%
%LPD*%
G01*
G04 APERTURE LIST*
%ADD10C,0.150000*%
%TA.AperFunction,Profile*%
%ADD11C,0.050000*%
%TD*%
%ADD12C,0.120000*%
%ADD13C,0.127000*%
%ADD14C,0.200000*%
G04 APERTURE END LIST*
D10*
X550459238Y-340177380D02*
X550459238Y-339177380D01*
X550459238Y-340129761D02*
X550364000Y-340177380D01*
X550173523Y-340177380D01*
X550078285Y-340129761D01*
X550030666Y-340082142D01*
X549983047Y-339986904D01*
X549983047Y-339701190D01*
X550030666Y-339605952D01*
X550078285Y-339558333D01*
X550173523Y-339510714D01*
X550364000Y-339510714D01*
X550459238Y-339558333D01*
X550935428Y-340177380D02*
X550935428Y-339510714D01*
X550935428Y-339605952D02*
X550983047Y-339558333D01*
X551078285Y-339510714D01*
X551221142Y-339510714D01*
X551316380Y-339558333D01*
X551364000Y-339653571D01*
X551364000Y-340177380D01*
X551364000Y-339653571D02*
X551411619Y-339558333D01*
X551506857Y-339510714D01*
X551649714Y-339510714D01*
X551744952Y-339558333D01*
X551792571Y-339653571D01*
X551792571Y-340177380D01*
X552173523Y-339510714D02*
X552411619Y-340177380D01*
X552649714Y-339510714D02*
X552411619Y-340177380D01*
X552316380Y-340415476D01*
X552268761Y-340463095D01*
X552173523Y-340510714D01*
X552887809Y-339510714D02*
X553268761Y-339510714D01*
X553030666Y-339177380D02*
X553030666Y-340034523D01*
X553078285Y-340129761D01*
X553173523Y-340177380D01*
X553268761Y-340177380D01*
X553602095Y-340177380D02*
X553602095Y-339510714D01*
X553602095Y-339701190D02*
X553649714Y-339605952D01*
X553697333Y-339558333D01*
X553792571Y-339510714D01*
X553887809Y-339510714D01*
X554364000Y-340177380D02*
X554268761Y-340129761D01*
X554221142Y-340082142D01*
X554173523Y-339986904D01*
X554173523Y-339701190D01*
X554221142Y-339605952D01*
X554268761Y-339558333D01*
X554364000Y-339510714D01*
X554506857Y-339510714D01*
X554602095Y-339558333D01*
X554649714Y-339605952D01*
X554697333Y-339701190D01*
X554697333Y-339986904D01*
X554649714Y-340082142D01*
X554602095Y-340129761D01*
X554506857Y-340177380D01*
X554364000Y-340177380D01*
X555506857Y-340129761D02*
X555411619Y-340177380D01*
X555221142Y-340177380D01*
X555125904Y-340129761D01*
X555078285Y-340034523D01*
X555078285Y-339653571D01*
X555125904Y-339558333D01*
X555221142Y-339510714D01*
X555411619Y-339510714D01*
X555506857Y-339558333D01*
X555554476Y-339653571D01*
X555554476Y-339748809D01*
X555078285Y-339844047D01*
X555983047Y-339510714D02*
X555983047Y-340177380D01*
X555983047Y-339605952D02*
X556030666Y-339558333D01*
X556125904Y-339510714D01*
X556268761Y-339510714D01*
X556364000Y-339558333D01*
X556411619Y-339653571D01*
X556411619Y-340177380D01*
X557316380Y-339510714D02*
X557316380Y-340320238D01*
X557268761Y-340415476D01*
X557221142Y-340463095D01*
X557125904Y-340510714D01*
X556983047Y-340510714D01*
X556887809Y-340463095D01*
X557316380Y-340129761D02*
X557221142Y-340177380D01*
X557030666Y-340177380D01*
X556935428Y-340129761D01*
X556887809Y-340082142D01*
X556840190Y-339986904D01*
X556840190Y-339701190D01*
X556887809Y-339605952D01*
X556935428Y-339558333D01*
X557030666Y-339510714D01*
X557221142Y-339510714D01*
X557316380Y-339558333D01*
X557792571Y-340177380D02*
X557792571Y-339510714D01*
X557792571Y-339177380D02*
X557744952Y-339225000D01*
X557792571Y-339272619D01*
X557840190Y-339225000D01*
X557792571Y-339177380D01*
X557792571Y-339272619D01*
X558268761Y-339510714D02*
X558268761Y-340177380D01*
X558268761Y-339605952D02*
X558316380Y-339558333D01*
X558411619Y-339510714D01*
X558554476Y-339510714D01*
X558649714Y-339558333D01*
X558697333Y-339653571D01*
X558697333Y-340177380D01*
X559554476Y-340129761D02*
X559459238Y-340177380D01*
X559268761Y-340177380D01*
X559173523Y-340129761D01*
X559125904Y-340034523D01*
X559125904Y-339653571D01*
X559173523Y-339558333D01*
X559268761Y-339510714D01*
X559459238Y-339510714D01*
X559554476Y-339558333D01*
X559602095Y-339653571D01*
X559602095Y-339748809D01*
X559125904Y-339844047D01*
X560411619Y-340129761D02*
X560316380Y-340177380D01*
X560125904Y-340177380D01*
X560030666Y-340129761D01*
X559983047Y-340034523D01*
X559983047Y-339653571D01*
X560030666Y-339558333D01*
X560125904Y-339510714D01*
X560316380Y-339510714D01*
X560411619Y-339558333D01*
X560459238Y-339653571D01*
X560459238Y-339748809D01*
X559983047Y-339844047D01*
X560887809Y-340177380D02*
X560887809Y-339510714D01*
X560887809Y-339701190D02*
X560935428Y-339605952D01*
X560983047Y-339558333D01*
X561078285Y-339510714D01*
X561173523Y-339510714D01*
X561506857Y-340177380D02*
X561506857Y-339510714D01*
X561506857Y-339177380D02*
X561459238Y-339225000D01*
X561506857Y-339272619D01*
X561554476Y-339225000D01*
X561506857Y-339177380D01*
X561506857Y-339272619D01*
X561983047Y-339510714D02*
X561983047Y-340177380D01*
X561983047Y-339605952D02*
X562030666Y-339558333D01*
X562125904Y-339510714D01*
X562268761Y-339510714D01*
X562364000Y-339558333D01*
X562411619Y-339653571D01*
X562411619Y-340177380D01*
X563316380Y-339510714D02*
X563316380Y-340320238D01*
X563268761Y-340415476D01*
X563221142Y-340463095D01*
X563125904Y-340510714D01*
X562983047Y-340510714D01*
X562887809Y-340463095D01*
X563316380Y-340129761D02*
X563221142Y-340177380D01*
X563030666Y-340177380D01*
X562935428Y-340129761D01*
X562887809Y-340082142D01*
X562840190Y-339986904D01*
X562840190Y-339701190D01*
X562887809Y-339605952D01*
X562935428Y-339558333D01*
X563030666Y-339510714D01*
X563221142Y-339510714D01*
X563316380Y-339558333D01*
X563792571Y-340082142D02*
X563840190Y-340129761D01*
X563792571Y-340177380D01*
X563744952Y-340129761D01*
X563792571Y-340082142D01*
X563792571Y-340177380D01*
X564697333Y-340129761D02*
X564602095Y-340177380D01*
X564411619Y-340177380D01*
X564316380Y-340129761D01*
X564268761Y-340082142D01*
X564221142Y-339986904D01*
X564221142Y-339701190D01*
X564268761Y-339605952D01*
X564316380Y-339558333D01*
X564411619Y-339510714D01*
X564602095Y-339510714D01*
X564697333Y-339558333D01*
X565268761Y-340177380D02*
X565173523Y-340129761D01*
X565125904Y-340082142D01*
X565078285Y-339986904D01*
X565078285Y-339701190D01*
X565125904Y-339605952D01*
X565173523Y-339558333D01*
X565268761Y-339510714D01*
X565411619Y-339510714D01*
X565506857Y-339558333D01*
X565554476Y-339605952D01*
X565602095Y-339701190D01*
X565602095Y-339986904D01*
X565554476Y-340082142D01*
X565506857Y-340129761D01*
X565411619Y-340177380D01*
X565268761Y-340177380D01*
X566030666Y-340177380D02*
X566030666Y-339510714D01*
X566030666Y-339605952D02*
X566078285Y-339558333D01*
X566173523Y-339510714D01*
X566316380Y-339510714D01*
X566411619Y-339558333D01*
X566459238Y-339653571D01*
X566459238Y-340177380D01*
X566459238Y-339653571D02*
X566506857Y-339558333D01*
X566602095Y-339510714D01*
X566744952Y-339510714D01*
X566840190Y-339558333D01*
X566887809Y-339653571D01*
X566887809Y-340177380D01*
X568078285Y-339129761D02*
X567221142Y-340415476D01*
X568411619Y-339510714D02*
X568411619Y-340510714D01*
X568411619Y-339558333D02*
X568506857Y-339510714D01*
X568697333Y-339510714D01*
X568792571Y-339558333D01*
X568840190Y-339605952D01*
X568887809Y-339701190D01*
X568887809Y-339986904D01*
X568840190Y-340082142D01*
X568792571Y-340129761D01*
X568697333Y-340177380D01*
X568506857Y-340177380D01*
X568411619Y-340129761D01*
X569316380Y-340177380D02*
X569316380Y-339510714D01*
X569316380Y-339177380D02*
X569268761Y-339225000D01*
X569316380Y-339272619D01*
X569364000Y-339225000D01*
X569316380Y-339177380D01*
X569316380Y-339272619D01*
X570221142Y-340129761D02*
X570125904Y-340177380D01*
X569935428Y-340177380D01*
X569840190Y-340129761D01*
X569792571Y-340082142D01*
X569744952Y-339986904D01*
X569744952Y-339701190D01*
X569792571Y-339605952D01*
X569840190Y-339558333D01*
X569935428Y-339510714D01*
X570125904Y-339510714D01*
X570221142Y-339558333D01*
X570792571Y-340177380D02*
X570697333Y-340129761D01*
X570649714Y-340082142D01*
X570602095Y-339986904D01*
X570602095Y-339701190D01*
X570649714Y-339605952D01*
X570697333Y-339558333D01*
X570792571Y-339510714D01*
X570935428Y-339510714D01*
X571030666Y-339558333D01*
X571078285Y-339605952D01*
X571125904Y-339701190D01*
X571125904Y-339986904D01*
X571078285Y-340082142D01*
X571030666Y-340129761D01*
X570935428Y-340177380D01*
X570792571Y-340177380D01*
X571554476Y-340177380D02*
X571554476Y-339510714D01*
X571554476Y-339605952D02*
X571602095Y-339558333D01*
X571697333Y-339510714D01*
X571840190Y-339510714D01*
X571935428Y-339558333D01*
X571983047Y-339653571D01*
X571983047Y-340177380D01*
X571983047Y-339653571D02*
X572030666Y-339558333D01*
X572125904Y-339510714D01*
X572268761Y-339510714D01*
X572364000Y-339558333D01*
X572411619Y-339653571D01*
X572411619Y-340177380D01*
X573316380Y-340177380D02*
X573316380Y-339653571D01*
X573268761Y-339558333D01*
X573173523Y-339510714D01*
X572983047Y-339510714D01*
X572887809Y-339558333D01*
X573316380Y-340129761D02*
X573221142Y-340177380D01*
X572983047Y-340177380D01*
X572887809Y-340129761D01*
X572840190Y-340034523D01*
X572840190Y-339939285D01*
X572887809Y-339844047D01*
X572983047Y-339796428D01*
X573221142Y-339796428D01*
X573316380Y-339748809D01*
X574221142Y-340129761D02*
X574125904Y-340177380D01*
X573935428Y-340177380D01*
X573840190Y-340129761D01*
X573792571Y-340082142D01*
X573744952Y-339986904D01*
X573744952Y-339701190D01*
X573792571Y-339605952D01*
X573840190Y-339558333D01*
X573935428Y-339510714D01*
X574125904Y-339510714D01*
X574221142Y-339558333D01*
X574649714Y-340177380D02*
X574649714Y-339510714D01*
X574649714Y-339701190D02*
X574697333Y-339605952D01*
X574744952Y-339558333D01*
X574840190Y-339510714D01*
X574935428Y-339510714D01*
X575411619Y-340177380D02*
X575316380Y-340129761D01*
X575268761Y-340082142D01*
X575221142Y-339986904D01*
X575221142Y-339701190D01*
X575268761Y-339605952D01*
X575316380Y-339558333D01*
X575411619Y-339510714D01*
X575554476Y-339510714D01*
X575649714Y-339558333D01*
X575697333Y-339605952D01*
X575744952Y-339701190D01*
X575744952Y-339986904D01*
X575697333Y-340082142D01*
X575649714Y-340129761D01*
X575554476Y-340177380D01*
X575411619Y-340177380D01*
D11*
X633476000Y-337820000D02*
X541528000Y-337820000D01*
X633476000Y-453136000D02*
X633476000Y-337820000D01*
X541528000Y-453136000D02*
X633476000Y-453136000D01*
X541528000Y-337820000D02*
X541528000Y-453136000D01*
D12*
%TO.C,U1*%
X592682000Y-360215000D02*
X592682000Y-359815000D01*
X592682000Y-362815000D02*
X592682000Y-362415000D01*
X592682000Y-350815000D02*
X592682000Y-357615000D01*
X582282000Y-350815000D02*
X582682000Y-350815000D01*
X574582000Y-350815000D02*
X574982000Y-350815000D01*
X549182000Y-350815000D02*
X549582000Y-350815000D01*
X541682000Y-350815000D02*
X541982000Y-350815000D01*
X564482000Y-350815000D02*
X564882000Y-350815000D01*
X579682000Y-350815000D02*
X580082000Y-350815000D01*
X559382000Y-350815000D02*
X559782000Y-350815000D01*
X554282000Y-350815000D02*
X554682000Y-350815000D01*
X566982000Y-350815000D02*
X567382000Y-350815000D01*
X572082000Y-350815000D02*
X572482000Y-350815000D01*
X587282000Y-350815000D02*
X587682000Y-350815000D01*
X589882000Y-350815000D02*
X590282000Y-350815000D01*
X584782000Y-350815000D02*
X585182000Y-350815000D01*
X551782000Y-350815000D02*
X552182000Y-350815000D01*
X544082000Y-350815000D02*
X544482000Y-350815000D01*
X546682000Y-350815000D02*
X547082000Y-350815000D01*
X577182000Y-350815000D02*
X577582000Y-350815000D01*
X569482000Y-350815000D02*
X569882000Y-350815000D01*
X561882000Y-350815000D02*
X562282000Y-350815000D01*
X556782000Y-350815000D02*
X557182000Y-350815000D01*
X589882000Y-371815000D02*
X590282000Y-371815000D01*
X587282000Y-371815000D02*
X587682000Y-371815000D01*
X584782000Y-371815000D02*
X585182000Y-371815000D01*
X582282000Y-371815000D02*
X582682000Y-371815000D01*
X579682000Y-371815000D02*
X580082000Y-371815000D01*
X577182000Y-371815000D02*
X577582000Y-371815000D01*
X574582000Y-371815000D02*
X574982000Y-371815000D01*
X572082000Y-371815000D02*
X572482000Y-371815000D01*
X569482000Y-371815000D02*
X569882000Y-371815000D01*
X566982000Y-371815000D02*
X567382000Y-371815000D01*
X564482000Y-371815000D02*
X564882000Y-371815000D01*
X561882000Y-371815000D02*
X562282000Y-371815000D01*
X559382000Y-371815000D02*
X559782000Y-371815000D01*
X556782000Y-371815000D02*
X557182000Y-371815000D01*
X554282000Y-371815000D02*
X554682000Y-371815000D01*
X551782000Y-371815000D02*
X552182000Y-371815000D01*
X549182000Y-371815000D02*
X549582000Y-371815000D01*
X546682000Y-371815000D02*
X547082000Y-371815000D01*
X544082000Y-371815000D02*
X544482000Y-371815000D01*
X541682000Y-371815000D02*
X541982000Y-371815000D01*
X544349000Y-368808000D02*
X541682000Y-368808000D01*
X544349000Y-371815000D02*
X544349000Y-368808000D01*
X592682000Y-365015000D02*
X592682000Y-371815000D01*
X541682000Y-371815000D02*
X541682000Y-350815000D01*
D13*
%TO.C,LED16*%
X615650000Y-446675000D02*
X616250000Y-446675000D01*
X615650000Y-448675000D02*
X616250000Y-448675000D01*
D14*
X614282956Y-447045000D02*
G75*
G03*
X614282956Y-447045000I-102956J0D01*
G01*
D13*
%TO.C,LED15*%
X596600000Y-446675000D02*
X597200000Y-446675000D01*
X596600000Y-448675000D02*
X597200000Y-448675000D01*
D14*
X595232956Y-447045000D02*
G75*
G03*
X595232956Y-447045000I-102956J0D01*
G01*
D13*
%TO.C,LED14*%
X577550000Y-446675000D02*
X578150000Y-446675000D01*
X577550000Y-448675000D02*
X578150000Y-448675000D01*
D14*
X576182956Y-447045000D02*
G75*
G03*
X576182956Y-447045000I-102956J0D01*
G01*
D13*
%TO.C,LED13*%
X558500000Y-446675000D02*
X559100000Y-446675000D01*
X558500000Y-448675000D02*
X559100000Y-448675000D01*
D14*
X557132956Y-447045000D02*
G75*
G03*
X557132956Y-447045000I-102956J0D01*
G01*
D13*
%TO.C,LED12*%
X615650000Y-427625000D02*
X616250000Y-427625000D01*
X615650000Y-429625000D02*
X616250000Y-429625000D01*
D14*
X614282956Y-427995000D02*
G75*
G03*
X614282956Y-427995000I-102956J0D01*
G01*
D13*
%TO.C,LED11*%
X596600000Y-427625000D02*
X597200000Y-427625000D01*
X596600000Y-429625000D02*
X597200000Y-429625000D01*
D14*
X595232956Y-427995000D02*
G75*
G03*
X595232956Y-427995000I-102956J0D01*
G01*
D13*
%TO.C,LED10*%
X577550000Y-427625000D02*
X578150000Y-427625000D01*
X577550000Y-429625000D02*
X578150000Y-429625000D01*
D14*
X576182956Y-427995000D02*
G75*
G03*
X576182956Y-427995000I-102956J0D01*
G01*
D13*
%TO.C,LED9*%
X558500000Y-427625000D02*
X559100000Y-427625000D01*
X558500000Y-429625000D02*
X559100000Y-429625000D01*
D14*
X557132956Y-427995000D02*
G75*
G03*
X557132956Y-427995000I-102956J0D01*
G01*
D13*
%TO.C,LED8*%
X615650000Y-408575000D02*
X616250000Y-408575000D01*
X615650000Y-410575000D02*
X616250000Y-410575000D01*
D14*
X614282956Y-408945000D02*
G75*
G03*
X614282956Y-408945000I-102956J0D01*
G01*
D13*
%TO.C,LED7*%
X596600000Y-408575000D02*
X597200000Y-408575000D01*
X596600000Y-410575000D02*
X597200000Y-410575000D01*
D14*
X595232956Y-408945000D02*
G75*
G03*
X595232956Y-408945000I-102956J0D01*
G01*
D13*
%TO.C,LED6*%
X577550000Y-408575000D02*
X578150000Y-408575000D01*
X577550000Y-410575000D02*
X578150000Y-410575000D01*
D14*
X576182956Y-408945000D02*
G75*
G03*
X576182956Y-408945000I-102956J0D01*
G01*
D13*
%TO.C,LED5*%
X558500000Y-408575000D02*
X559100000Y-408575000D01*
X558500000Y-410575000D02*
X559100000Y-410575000D01*
D14*
X557132956Y-408945000D02*
G75*
G03*
X557132956Y-408945000I-102956J0D01*
G01*
D13*
%TO.C,LED4*%
X615650000Y-389525000D02*
X616250000Y-389525000D01*
X615650000Y-391525000D02*
X616250000Y-391525000D01*
D14*
X614282956Y-389895000D02*
G75*
G03*
X614282956Y-389895000I-102956J0D01*
G01*
D13*
%TO.C,LED3*%
X596600000Y-389525000D02*
X597200000Y-389525000D01*
X596600000Y-391525000D02*
X597200000Y-391525000D01*
D14*
X595232956Y-389895000D02*
G75*
G03*
X595232956Y-389895000I-102956J0D01*
G01*
D13*
%TO.C,LED2*%
X577550000Y-389525000D02*
X578150000Y-389525000D01*
X577550000Y-391525000D02*
X578150000Y-391525000D01*
D14*
X576182956Y-389895000D02*
G75*
G03*
X576182956Y-389895000I-102956J0D01*
G01*
D13*
%TO.C,LED1*%
X558500000Y-389525000D02*
X559100000Y-389525000D01*
X558500000Y-391525000D02*
X559100000Y-391525000D01*
D14*
X557132956Y-389895000D02*
G75*
G03*
X557132956Y-389895000I-102956J0D01*
G01*
D12*
%TO.C,SW16*%
X608965000Y-435610000D02*
X622935000Y-435610000D01*
X622935000Y-435610000D02*
X622935000Y-449580000D01*
X622935000Y-449580000D02*
X608965000Y-449580000D01*
X608965000Y-449580000D02*
X608965000Y-435610000D01*
%TO.C,SW15*%
X589915000Y-435610000D02*
X603885000Y-435610000D01*
X603885000Y-435610000D02*
X603885000Y-449580000D01*
X603885000Y-449580000D02*
X589915000Y-449580000D01*
X589915000Y-449580000D02*
X589915000Y-435610000D01*
%TO.C,SW14*%
X570865000Y-435610000D02*
X584835000Y-435610000D01*
X584835000Y-435610000D02*
X584835000Y-449580000D01*
X584835000Y-449580000D02*
X570865000Y-449580000D01*
X570865000Y-449580000D02*
X570865000Y-435610000D01*
%TO.C,SW13*%
X551815000Y-435610000D02*
X565785000Y-435610000D01*
X565785000Y-435610000D02*
X565785000Y-449580000D01*
X565785000Y-449580000D02*
X551815000Y-449580000D01*
X551815000Y-449580000D02*
X551815000Y-435610000D01*
%TO.C,SW12*%
X608965000Y-416560000D02*
X622935000Y-416560000D01*
X622935000Y-416560000D02*
X622935000Y-430530000D01*
X622935000Y-430530000D02*
X608965000Y-430530000D01*
X608965000Y-430530000D02*
X608965000Y-416560000D01*
%TO.C,SW11*%
X589915000Y-416560000D02*
X603885000Y-416560000D01*
X603885000Y-416560000D02*
X603885000Y-430530000D01*
X603885000Y-430530000D02*
X589915000Y-430530000D01*
X589915000Y-430530000D02*
X589915000Y-416560000D01*
%TO.C,SW10*%
X570865000Y-416560000D02*
X584835000Y-416560000D01*
X584835000Y-416560000D02*
X584835000Y-430530000D01*
X584835000Y-430530000D02*
X570865000Y-430530000D01*
X570865000Y-430530000D02*
X570865000Y-416560000D01*
%TO.C,SW9*%
X551815000Y-416560000D02*
X565785000Y-416560000D01*
X565785000Y-416560000D02*
X565785000Y-430530000D01*
X565785000Y-430530000D02*
X551815000Y-430530000D01*
X551815000Y-430530000D02*
X551815000Y-416560000D01*
%TO.C,SW8*%
X608965000Y-397510000D02*
X622935000Y-397510000D01*
X622935000Y-397510000D02*
X622935000Y-411480000D01*
X622935000Y-411480000D02*
X608965000Y-411480000D01*
X608965000Y-411480000D02*
X608965000Y-397510000D01*
%TO.C,SW7*%
X589915000Y-397510000D02*
X603885000Y-397510000D01*
X603885000Y-397510000D02*
X603885000Y-411480000D01*
X603885000Y-411480000D02*
X589915000Y-411480000D01*
X589915000Y-411480000D02*
X589915000Y-397510000D01*
%TO.C,SW6*%
X570865000Y-397510000D02*
X584835000Y-397510000D01*
X584835000Y-397510000D02*
X584835000Y-411480000D01*
X584835000Y-411480000D02*
X570865000Y-411480000D01*
X570865000Y-411480000D02*
X570865000Y-397510000D01*
%TO.C,SW5*%
X551815000Y-397510000D02*
X565785000Y-397510000D01*
X565785000Y-397510000D02*
X565785000Y-411480000D01*
X565785000Y-411480000D02*
X551815000Y-411480000D01*
X551815000Y-411480000D02*
X551815000Y-397510000D01*
%TO.C,SW4*%
X608965000Y-378460000D02*
X622935000Y-378460000D01*
X622935000Y-378460000D02*
X622935000Y-392430000D01*
X622935000Y-392430000D02*
X608965000Y-392430000D01*
X608965000Y-392430000D02*
X608965000Y-378460000D01*
%TO.C,SW3*%
X589915000Y-378460000D02*
X603885000Y-378460000D01*
X603885000Y-378460000D02*
X603885000Y-392430000D01*
X603885000Y-392430000D02*
X589915000Y-392430000D01*
X589915000Y-392430000D02*
X589915000Y-378460000D01*
%TO.C,SW2*%
X570865000Y-378460000D02*
X584835000Y-378460000D01*
X584835000Y-378460000D02*
X584835000Y-392430000D01*
X584835000Y-392430000D02*
X570865000Y-392430000D01*
X570865000Y-392430000D02*
X570865000Y-378460000D01*
%TO.C,SW1*%
X551815000Y-378460000D02*
X565785000Y-378460000D01*
X565785000Y-378460000D02*
X565785000Y-392430000D01*
X565785000Y-392430000D02*
X551815000Y-392430000D01*
X551815000Y-392430000D02*
X551815000Y-378460000D01*
%TO.C,R1*%
X550022500Y-377722224D02*
X550022500Y-377212776D01*
X551067500Y-377722224D02*
X551067500Y-377212776D01*
%TO.C,Disp1*%
X596540900Y-343709300D02*
X596540900Y-341049300D01*
X581240900Y-343709300D02*
X596540900Y-343709300D01*
X581240900Y-341049300D02*
X596540900Y-341049300D01*
X581240900Y-343709300D02*
X581240900Y-341049300D01*
X579970900Y-343709300D02*
X578640900Y-343709300D01*
X578640900Y-343709300D02*
X578640900Y-342379300D01*
%TO.C,C18*%
X603324000Y-374068000D02*
X607074000Y-374068000D01*
X613844000Y-374068000D02*
X610094000Y-374068000D01*
X613844000Y-364612437D02*
X613844000Y-374068000D01*
X603324000Y-364612437D02*
X603324000Y-374068000D01*
X604388437Y-363548000D02*
X607074000Y-363548000D01*
X612779563Y-363548000D02*
X610094000Y-363548000D01*
X612779563Y-363548000D02*
X613844000Y-364612437D01*
X604388437Y-363548000D02*
X603324000Y-364612437D01*
X611344000Y-362058000D02*
X611344000Y-363308000D01*
X611969000Y-362683000D02*
X610719000Y-362683000D01*
%TO.C,C17*%
X614500000Y-374132000D02*
X618250000Y-374132000D01*
X625020000Y-374132000D02*
X621270000Y-374132000D01*
X625020000Y-364676437D02*
X625020000Y-374132000D01*
X614500000Y-364676437D02*
X614500000Y-374132000D01*
X615564437Y-363612000D02*
X618250000Y-363612000D01*
X623955563Y-363612000D02*
X621270000Y-363612000D01*
X623955563Y-363612000D02*
X625020000Y-364676437D01*
X615564437Y-363612000D02*
X614500000Y-364676437D01*
X622520000Y-362122000D02*
X622520000Y-363372000D01*
X623145000Y-362747000D02*
X621895000Y-362747000D01*
%TO.C,C16*%
X610788767Y-451995000D02*
X610496233Y-451995000D01*
X610788767Y-450975000D02*
X610496233Y-450975000D01*
%TO.C,C15*%
X591685767Y-451995000D02*
X591393233Y-451995000D01*
X591685767Y-450975000D02*
X591393233Y-450975000D01*
%TO.C,C14*%
X572688767Y-451995000D02*
X572396233Y-451995000D01*
X572688767Y-450975000D02*
X572396233Y-450975000D01*
%TO.C,C13*%
X553585767Y-451995000D02*
X553293233Y-451995000D01*
X553585767Y-450975000D02*
X553293233Y-450975000D01*
%TO.C,C12*%
X610735767Y-432945000D02*
X610443233Y-432945000D01*
X610735767Y-431925000D02*
X610443233Y-431925000D01*
%TO.C,C11*%
X591685767Y-432945000D02*
X591393233Y-432945000D01*
X591685767Y-431925000D02*
X591393233Y-431925000D01*
%TO.C,C10*%
X572688767Y-432945000D02*
X572396233Y-432945000D01*
X572688767Y-431925000D02*
X572396233Y-431925000D01*
%TO.C,C9*%
X553638767Y-432945000D02*
X553346233Y-432945000D01*
X553638767Y-431925000D02*
X553346233Y-431925000D01*
%TO.C,C8*%
X610788767Y-413895000D02*
X610496233Y-413895000D01*
X610788767Y-412875000D02*
X610496233Y-412875000D01*
%TO.C,C7*%
X591685767Y-413895000D02*
X591393233Y-413895000D01*
X591685767Y-412875000D02*
X591393233Y-412875000D01*
%TO.C,C6*%
X572688767Y-413895000D02*
X572396233Y-413895000D01*
X572688767Y-412875000D02*
X572396233Y-412875000D01*
%TO.C,C5*%
X553585767Y-413895000D02*
X553293233Y-413895000D01*
X553585767Y-412875000D02*
X553293233Y-412875000D01*
%TO.C,C4*%
X610788767Y-394845000D02*
X610496233Y-394845000D01*
X610788767Y-393825000D02*
X610496233Y-393825000D01*
%TO.C,C3*%
X591738767Y-394845000D02*
X591446233Y-394845000D01*
X591738767Y-393825000D02*
X591446233Y-393825000D01*
%TO.C,C2*%
X572688767Y-394845000D02*
X572396233Y-394845000D01*
X572688767Y-393825000D02*
X572396233Y-393825000D01*
%TO.C,C1*%
X553638767Y-394845000D02*
X553346233Y-394845000D01*
X553638767Y-393825000D02*
X553346233Y-393825000D01*
%TD*%
%TO.C,U1*%
D10*
X566634380Y-362076904D02*
X567443904Y-362076904D01*
X567539142Y-362029285D01*
X567586761Y-361981666D01*
X567634380Y-361886428D01*
X567634380Y-361695952D01*
X567586761Y-361600714D01*
X567539142Y-361553095D01*
X567443904Y-361505476D01*
X566634380Y-361505476D01*
X567634380Y-360505476D02*
X567634380Y-361076904D01*
X567634380Y-360791190D02*
X566634380Y-360791190D01*
X566777238Y-360886428D01*
X566872476Y-360981666D01*
X566920095Y-361076904D01*
X593705809Y-357410238D02*
X593743904Y-357295952D01*
X593743904Y-357105476D01*
X593705809Y-357029285D01*
X593667714Y-356991190D01*
X593591523Y-356953095D01*
X593515333Y-356953095D01*
X593439142Y-356991190D01*
X593401047Y-357029285D01*
X593362952Y-357105476D01*
X593324857Y-357257857D01*
X593286761Y-357334047D01*
X593248666Y-357372142D01*
X593172476Y-357410238D01*
X593096285Y-357410238D01*
X593020095Y-357372142D01*
X592982000Y-357334047D01*
X592943904Y-357257857D01*
X592943904Y-357067380D01*
X592982000Y-356953095D01*
X592943904Y-356686428D02*
X593743904Y-356495952D01*
X593172476Y-356343571D01*
X593743904Y-356191190D01*
X592943904Y-356000714D01*
X593743904Y-355695952D02*
X592943904Y-355695952D01*
X592943904Y-355505476D01*
X592982000Y-355391190D01*
X593058190Y-355315000D01*
X593134380Y-355276904D01*
X593286761Y-355238809D01*
X593401047Y-355238809D01*
X593553428Y-355276904D01*
X593629619Y-355315000D01*
X593705809Y-355391190D01*
X593743904Y-355505476D01*
X593743904Y-355695952D01*
X593743904Y-354895952D02*
X592943904Y-354895952D01*
X592943904Y-354362619D02*
X592943904Y-354210238D01*
X592982000Y-354134047D01*
X593058190Y-354057857D01*
X593210571Y-354019761D01*
X593477238Y-354019761D01*
X593629619Y-354057857D01*
X593705809Y-354134047D01*
X593743904Y-354210238D01*
X593743904Y-354362619D01*
X593705809Y-354438809D01*
X593629619Y-354515000D01*
X593477238Y-354553095D01*
X593210571Y-354553095D01*
X593058190Y-354515000D01*
X592982000Y-354438809D01*
X592943904Y-354362619D01*
X593705809Y-368824523D02*
X593743904Y-368710238D01*
X593743904Y-368519761D01*
X593705809Y-368443571D01*
X593667714Y-368405476D01*
X593591523Y-368367380D01*
X593515333Y-368367380D01*
X593439142Y-368405476D01*
X593401047Y-368443571D01*
X593362952Y-368519761D01*
X593324857Y-368672142D01*
X593286761Y-368748333D01*
X593248666Y-368786428D01*
X593172476Y-368824523D01*
X593096285Y-368824523D01*
X593020095Y-368786428D01*
X592982000Y-368748333D01*
X592943904Y-368672142D01*
X592943904Y-368481666D01*
X592982000Y-368367380D01*
X592943904Y-368100714D02*
X593743904Y-367910238D01*
X593172476Y-367757857D01*
X593743904Y-367605476D01*
X592943904Y-367415000D01*
X593667714Y-366653095D02*
X593705809Y-366691190D01*
X593743904Y-366805476D01*
X593743904Y-366881666D01*
X593705809Y-366995952D01*
X593629619Y-367072142D01*
X593553428Y-367110238D01*
X593401047Y-367148333D01*
X593286761Y-367148333D01*
X593134380Y-367110238D01*
X593058190Y-367072142D01*
X592982000Y-366995952D01*
X592943904Y-366881666D01*
X592943904Y-366805476D01*
X592982000Y-366691190D01*
X593020095Y-366653095D01*
X593743904Y-365929285D02*
X593743904Y-366310238D01*
X592943904Y-366310238D01*
X593743904Y-365662619D02*
X592943904Y-365662619D01*
X593743904Y-365205476D02*
X593286761Y-365548333D01*
X592943904Y-365205476D02*
X593401047Y-365662619D01*
X559741035Y-347358597D02*
X560010409Y-347627971D01*
X559525536Y-347466346D02*
X560279783Y-347089223D01*
X559902659Y-347843470D01*
X560926280Y-347789595D02*
X560899343Y-347708783D01*
X560818531Y-347627971D01*
X560710781Y-347574096D01*
X560603032Y-347574096D01*
X560522219Y-347601033D01*
X560387532Y-347681845D01*
X560306720Y-347762658D01*
X560225908Y-347897345D01*
X560198971Y-347978157D01*
X560198971Y-348085906D01*
X560252845Y-348193656D01*
X560306720Y-348247531D01*
X560414470Y-348301406D01*
X560468345Y-348301406D01*
X560656906Y-348112844D01*
X560549157Y-348005094D01*
X560656906Y-348597717D02*
X561222592Y-348032032D01*
X560980155Y-348920966D01*
X561545841Y-348355280D01*
X561249529Y-349190340D02*
X561815215Y-348624654D01*
X561949902Y-348759341D01*
X562003776Y-348867091D01*
X562003776Y-348974841D01*
X561976839Y-349055653D01*
X561896027Y-349190340D01*
X561815215Y-349271152D01*
X561680528Y-349351964D01*
X561599715Y-349378902D01*
X561491966Y-349378902D01*
X561384216Y-349325027D01*
X561249529Y-349190340D01*
X547983844Y-347801158D02*
X547956906Y-347720346D01*
X547876094Y-347639534D01*
X547768345Y-347585659D01*
X547660595Y-347585659D01*
X547579783Y-347612597D01*
X547445096Y-347693409D01*
X547364284Y-347774221D01*
X547283471Y-347908908D01*
X547256534Y-347989720D01*
X547256534Y-348097470D01*
X547310409Y-348205219D01*
X547364284Y-348259094D01*
X547472033Y-348312969D01*
X547525908Y-348312969D01*
X547714470Y-348124407D01*
X547606720Y-348016658D01*
X547714470Y-348609280D02*
X548280155Y-348043595D01*
X548037719Y-348932529D01*
X548603404Y-348366844D01*
X548307093Y-349201903D02*
X548872778Y-348636218D01*
X549007465Y-348770905D01*
X549061340Y-348878654D01*
X549061340Y-348986404D01*
X549034402Y-349067216D01*
X548953590Y-349201903D01*
X548872778Y-349282715D01*
X548738091Y-349363528D01*
X548657279Y-349390465D01*
X548549529Y-349390465D01*
X548441780Y-349336590D01*
X548307093Y-349201903D01*
X573383844Y-347801158D02*
X573356906Y-347720346D01*
X573276094Y-347639534D01*
X573168345Y-347585659D01*
X573060595Y-347585659D01*
X572979783Y-347612597D01*
X572845096Y-347693409D01*
X572764284Y-347774221D01*
X572683471Y-347908908D01*
X572656534Y-347989720D01*
X572656534Y-348097470D01*
X572710409Y-348205219D01*
X572764284Y-348259094D01*
X572872033Y-348312969D01*
X572925908Y-348312969D01*
X573114470Y-348124407D01*
X573006720Y-348016658D01*
X573114470Y-348609280D02*
X573680155Y-348043595D01*
X573437719Y-348932529D01*
X574003404Y-348366844D01*
X573707093Y-349201903D02*
X574272778Y-348636218D01*
X574407465Y-348770905D01*
X574461340Y-348878654D01*
X574461340Y-348986404D01*
X574434402Y-349067216D01*
X574353590Y-349201903D01*
X574272778Y-349282715D01*
X574138091Y-349363528D01*
X574057279Y-349390465D01*
X573949529Y-349390465D01*
X573841780Y-349336590D01*
X573707093Y-349201903D01*
X586083844Y-347801158D02*
X586056906Y-347720346D01*
X585976094Y-347639534D01*
X585868345Y-347585659D01*
X585760595Y-347585659D01*
X585679783Y-347612597D01*
X585545096Y-347693409D01*
X585464284Y-347774221D01*
X585383471Y-347908908D01*
X585356534Y-347989720D01*
X585356534Y-348097470D01*
X585410409Y-348205219D01*
X585464284Y-348259094D01*
X585572033Y-348312969D01*
X585625908Y-348312969D01*
X585814470Y-348124407D01*
X585706720Y-348016658D01*
X585814470Y-348609280D02*
X586380155Y-348043595D01*
X586137719Y-348932529D01*
X586703404Y-348366844D01*
X586407093Y-349201903D02*
X586972778Y-348636218D01*
X587107465Y-348770905D01*
X587161340Y-348878654D01*
X587161340Y-348986404D01*
X587134402Y-349067216D01*
X587053590Y-349201903D01*
X586972778Y-349282715D01*
X586838091Y-349363528D01*
X586757279Y-349390465D01*
X586649529Y-349390465D01*
X586541780Y-349336590D01*
X586407093Y-349201903D01*
X586083844Y-373401158D02*
X586056906Y-373320346D01*
X585976094Y-373239534D01*
X585868345Y-373185659D01*
X585760595Y-373185659D01*
X585679783Y-373212597D01*
X585545096Y-373293409D01*
X585464284Y-373374221D01*
X585383471Y-373508908D01*
X585356534Y-373589720D01*
X585356534Y-373697470D01*
X585410409Y-373805219D01*
X585464284Y-373859094D01*
X585572033Y-373912969D01*
X585625908Y-373912969D01*
X585814470Y-373724407D01*
X585706720Y-373616658D01*
X585814470Y-374209280D02*
X586380155Y-373643595D01*
X586137719Y-374532529D01*
X586703404Y-373966844D01*
X586407093Y-374801903D02*
X586972778Y-374236218D01*
X587107465Y-374370905D01*
X587161340Y-374478654D01*
X587161340Y-374586404D01*
X587134402Y-374667216D01*
X587053590Y-374801903D01*
X586972778Y-374882715D01*
X586838091Y-374963528D01*
X586757279Y-374990465D01*
X586649529Y-374990465D01*
X586541780Y-374936590D01*
X586407093Y-374801903D01*
X573383844Y-373401158D02*
X573356906Y-373320346D01*
X573276094Y-373239534D01*
X573168345Y-373185659D01*
X573060595Y-373185659D01*
X572979783Y-373212597D01*
X572845096Y-373293409D01*
X572764284Y-373374221D01*
X572683471Y-373508908D01*
X572656534Y-373589720D01*
X572656534Y-373697470D01*
X572710409Y-373805219D01*
X572764284Y-373859094D01*
X572872033Y-373912969D01*
X572925908Y-373912969D01*
X573114470Y-373724407D01*
X573006720Y-373616658D01*
X573114470Y-374209280D02*
X573680155Y-373643595D01*
X573437719Y-374532529D01*
X574003404Y-373966844D01*
X573707093Y-374801903D02*
X574272778Y-374236218D01*
X574407465Y-374370905D01*
X574461340Y-374478654D01*
X574461340Y-374586404D01*
X574434402Y-374667216D01*
X574353590Y-374801903D01*
X574272778Y-374882715D01*
X574138091Y-374963528D01*
X574057279Y-374990465D01*
X573949529Y-374990465D01*
X573841780Y-374936590D01*
X573707093Y-374801903D01*
X560683844Y-373401158D02*
X560656906Y-373320346D01*
X560576094Y-373239534D01*
X560468345Y-373185659D01*
X560360595Y-373185659D01*
X560279783Y-373212597D01*
X560145096Y-373293409D01*
X560064284Y-373374221D01*
X559983471Y-373508908D01*
X559956534Y-373589720D01*
X559956534Y-373697470D01*
X560010409Y-373805219D01*
X560064284Y-373859094D01*
X560172033Y-373912969D01*
X560225908Y-373912969D01*
X560414470Y-373724407D01*
X560306720Y-373616658D01*
X560414470Y-374209280D02*
X560980155Y-373643595D01*
X560737719Y-374532529D01*
X561303404Y-373966844D01*
X561007093Y-374801903D02*
X561572778Y-374236218D01*
X561707465Y-374370905D01*
X561761340Y-374478654D01*
X561761340Y-374586404D01*
X561734402Y-374667216D01*
X561653590Y-374801903D01*
X561572778Y-374882715D01*
X561438091Y-374963528D01*
X561357279Y-374990465D01*
X561249529Y-374990465D01*
X561141780Y-374936590D01*
X561007093Y-374801903D01*
X547983844Y-373401158D02*
X547956906Y-373320346D01*
X547876094Y-373239534D01*
X547768345Y-373185659D01*
X547660595Y-373185659D01*
X547579783Y-373212597D01*
X547445096Y-373293409D01*
X547364284Y-373374221D01*
X547283471Y-373508908D01*
X547256534Y-373589720D01*
X547256534Y-373697470D01*
X547310409Y-373805219D01*
X547364284Y-373859094D01*
X547472033Y-373912969D01*
X547525908Y-373912969D01*
X547714470Y-373724407D01*
X547606720Y-373616658D01*
X547714470Y-374209280D02*
X548280155Y-373643595D01*
X548037719Y-374532529D01*
X548603404Y-373966844D01*
X548307093Y-374801903D02*
X548872778Y-374236218D01*
X549007465Y-374370905D01*
X549061340Y-374478654D01*
X549061340Y-374586404D01*
X549034402Y-374667216D01*
X548953590Y-374801903D01*
X548872778Y-374882715D01*
X548738091Y-374963528D01*
X548657279Y-374990465D01*
X548549529Y-374990465D01*
X548441780Y-374936590D01*
X548307093Y-374801903D01*
X542254690Y-346668129D02*
X541877566Y-347422377D01*
X542631813Y-347045253D01*
X542739563Y-347691751D02*
X542793438Y-347799500D01*
X542793438Y-347853375D01*
X542766500Y-347934187D01*
X542685688Y-348015000D01*
X542604876Y-348041937D01*
X542551001Y-348041937D01*
X542470189Y-348014999D01*
X542254690Y-347799500D01*
X542820375Y-347233815D01*
X543008937Y-347422377D01*
X543035874Y-347503189D01*
X543035874Y-347557064D01*
X543008937Y-347637876D01*
X542955062Y-347691751D01*
X542874250Y-347718688D01*
X542820375Y-347718688D01*
X542739563Y-347691751D01*
X542551001Y-347503189D01*
X543386061Y-347799500D02*
X542928125Y-348257436D01*
X542901187Y-348338248D01*
X542901187Y-348392123D01*
X542928125Y-348472935D01*
X543035874Y-348580685D01*
X543116687Y-348607622D01*
X543170561Y-348607622D01*
X543251374Y-348580685D01*
X543709309Y-348122749D01*
X543412998Y-348903934D02*
X543466873Y-349011683D01*
X543601560Y-349146370D01*
X543682372Y-349173308D01*
X543736247Y-349173308D01*
X543817059Y-349146370D01*
X543870934Y-349092496D01*
X543897871Y-349011683D01*
X543897871Y-348957809D01*
X543870934Y-348876996D01*
X543790122Y-348742309D01*
X543763184Y-348661497D01*
X543763184Y-348607622D01*
X543790122Y-348526810D01*
X543843996Y-348472935D01*
X543924809Y-348445998D01*
X543978683Y-348445998D01*
X544059496Y-348472935D01*
X544194183Y-348607622D01*
X544248057Y-348715372D01*
X544932033Y-346835473D02*
X544554910Y-347589720D01*
X545309157Y-347212597D01*
X544932033Y-347912969D02*
X544985908Y-348020719D01*
X545120595Y-348155406D01*
X545201407Y-348182343D01*
X545255282Y-348182343D01*
X545336094Y-348155406D01*
X545389969Y-348101531D01*
X545416906Y-348020719D01*
X545416906Y-347966844D01*
X545389969Y-347886032D01*
X545309157Y-347751345D01*
X545282219Y-347670532D01*
X545282219Y-347616658D01*
X545309157Y-347535845D01*
X545363032Y-347481971D01*
X545443844Y-347455033D01*
X545497719Y-347455033D01*
X545578531Y-347481971D01*
X545713218Y-347616658D01*
X545767093Y-347724407D01*
X545847905Y-348343967D02*
X545578531Y-348613341D01*
X545955654Y-347859094D02*
X545847905Y-348343967D01*
X546332778Y-348236218D01*
X545955654Y-348936590D02*
X546009529Y-349044340D01*
X546144216Y-349179027D01*
X546225028Y-349205964D01*
X546278903Y-349205964D01*
X546359715Y-349179027D01*
X546413590Y-349125152D01*
X546440528Y-349044340D01*
X546440528Y-348990465D01*
X546413590Y-348909653D01*
X546332778Y-348774966D01*
X546305841Y-348694154D01*
X546305841Y-348640279D01*
X546332778Y-348559467D01*
X546386653Y-348505592D01*
X546467465Y-348478654D01*
X546521340Y-348478654D01*
X546602152Y-348505592D01*
X546736839Y-348640279D01*
X546790714Y-348748028D01*
X548823691Y-345837131D02*
X549173877Y-346187317D01*
X548769816Y-346214255D01*
X548850629Y-346295067D01*
X548877566Y-346375879D01*
X548877566Y-346429754D01*
X548850629Y-346510566D01*
X548715942Y-346645253D01*
X548635129Y-346672190D01*
X548581255Y-346672190D01*
X548500442Y-346645253D01*
X548338818Y-346483629D01*
X548311881Y-346402816D01*
X548311881Y-346348942D01*
X549335502Y-346348942D02*
X548958378Y-347103189D01*
X549712625Y-346726065D01*
X549847312Y-346860752D02*
X550197499Y-347210938D01*
X549793438Y-347237876D01*
X549874250Y-347318688D01*
X549901187Y-347399500D01*
X549901187Y-347453375D01*
X549874250Y-347534187D01*
X549739563Y-347668874D01*
X549658751Y-347695812D01*
X549604876Y-347695812D01*
X549524064Y-347668874D01*
X549362439Y-347507250D01*
X549335502Y-347426438D01*
X549335502Y-347372563D01*
X549685688Y-347938248D02*
X550116687Y-348369247D01*
X550601560Y-348153748D02*
X550790122Y-348342309D01*
X550574622Y-348719433D02*
X550305248Y-348450059D01*
X550870934Y-347884374D01*
X551140308Y-348153748D01*
X550817059Y-348961870D02*
X551382744Y-348396184D01*
X551140308Y-349285118D01*
X551705993Y-348719433D01*
X552891407Y-347404847D02*
X553241593Y-347755033D01*
X552837532Y-347781971D01*
X552918345Y-347862783D01*
X552945282Y-347943595D01*
X552945282Y-347997470D01*
X552918345Y-348078282D01*
X552783658Y-348212969D01*
X552702845Y-348239906D01*
X552648971Y-348239906D01*
X552568158Y-348212969D01*
X552406534Y-348051345D01*
X552379597Y-347970532D01*
X552379597Y-347916658D01*
X553403218Y-347916658D02*
X553026094Y-348670905D01*
X553780341Y-348293781D01*
X553915028Y-348428468D02*
X554265215Y-348778654D01*
X553861154Y-348805592D01*
X553941966Y-348886404D01*
X553968903Y-348967216D01*
X553968903Y-349021091D01*
X553941966Y-349101903D01*
X553807279Y-349236590D01*
X553726467Y-349263528D01*
X553672592Y-349263528D01*
X553591780Y-349236590D01*
X553430155Y-349074966D01*
X553403218Y-348994154D01*
X553403218Y-348940279D01*
X552648226Y-345469788D02*
X552917600Y-345739162D01*
X552432727Y-345577537D02*
X553186974Y-345200414D01*
X552809850Y-345954661D01*
X552998412Y-346143223D02*
X553564097Y-345577537D01*
X553698784Y-345712224D01*
X553752659Y-345819974D01*
X553752659Y-345927723D01*
X553725722Y-346008536D01*
X553644910Y-346143223D01*
X553564097Y-346224035D01*
X553429410Y-346304847D01*
X553348598Y-346331784D01*
X553240849Y-346331784D01*
X553133099Y-346277910D01*
X552998412Y-346143223D01*
X553941221Y-346978282D02*
X553887346Y-346978282D01*
X553779597Y-346924407D01*
X553725722Y-346870532D01*
X553671847Y-346762783D01*
X553671847Y-346655033D01*
X553698784Y-346574221D01*
X553779597Y-346439534D01*
X553860409Y-346358722D01*
X553995096Y-346277910D01*
X554075908Y-346250972D01*
X554183658Y-346250972D01*
X554291407Y-346304847D01*
X554345282Y-346358722D01*
X554399157Y-346466471D01*
X554399157Y-346520346D01*
X553941221Y-347193781D02*
X554372219Y-347624780D01*
X555045654Y-347059094D02*
X554668531Y-347813341D01*
X555422778Y-347436218D01*
X555368903Y-348513714D02*
X555449715Y-348055778D01*
X555045654Y-348190465D02*
X555611340Y-347624780D01*
X555826839Y-347840279D01*
X555853776Y-347921091D01*
X555853776Y-347974966D01*
X555826839Y-348055778D01*
X555746027Y-348136590D01*
X555665215Y-348163528D01*
X555611340Y-348163528D01*
X555530528Y-348136590D01*
X555315028Y-347921091D01*
X555907651Y-348459839D02*
X556096213Y-348648401D01*
X555880714Y-349025524D02*
X555611340Y-348756150D01*
X556177025Y-348190465D01*
X556446399Y-348459839D01*
X556608024Y-349160211D02*
X556419462Y-348971650D01*
X556123150Y-349267961D02*
X556688836Y-348702276D01*
X556958210Y-348971650D01*
X557647407Y-347304722D02*
X557620470Y-347223910D01*
X557539658Y-347143097D01*
X557431908Y-347089223D01*
X557324158Y-347089223D01*
X557243346Y-347116160D01*
X557108659Y-347196972D01*
X557027847Y-347277784D01*
X556947035Y-347412471D01*
X556920097Y-347493284D01*
X556920097Y-347601033D01*
X556973972Y-347708783D01*
X557027847Y-347762658D01*
X557135597Y-347816532D01*
X557189471Y-347816532D01*
X557378033Y-347627971D01*
X557270284Y-347520221D01*
X557378033Y-348112844D02*
X557943719Y-347547158D01*
X558159218Y-347762658D01*
X558186155Y-347843470D01*
X558186155Y-347897345D01*
X558159218Y-347978157D01*
X558078406Y-348058969D01*
X557997593Y-348085906D01*
X557943719Y-348085906D01*
X557862906Y-348058969D01*
X557647407Y-347843470D01*
X558428592Y-348139781D02*
X558482467Y-348139781D01*
X558563279Y-348166719D01*
X558697966Y-348301406D01*
X558724903Y-348382218D01*
X558724903Y-348436093D01*
X558697966Y-348516905D01*
X558644091Y-348570780D01*
X558536341Y-348624654D01*
X557889844Y-348624654D01*
X558240030Y-348974841D01*
X558886528Y-348974841D02*
X558859590Y-348894028D01*
X558859590Y-348840154D01*
X558886528Y-348759341D01*
X558913465Y-348732404D01*
X558994277Y-348705467D01*
X559048152Y-348705467D01*
X559128964Y-348732404D01*
X559236714Y-348840154D01*
X559263651Y-348920966D01*
X559263651Y-348974841D01*
X559236714Y-349055653D01*
X559209776Y-349082590D01*
X559128964Y-349109528D01*
X559075089Y-349109528D01*
X558994277Y-349082590D01*
X558886528Y-348974841D01*
X558805715Y-348947903D01*
X558751841Y-348947903D01*
X558671028Y-348974841D01*
X558563279Y-349082590D01*
X558536341Y-349163402D01*
X558536341Y-349217277D01*
X558563279Y-349298089D01*
X558671028Y-349405839D01*
X558751841Y-349432776D01*
X558805715Y-349432776D01*
X558886528Y-349405839D01*
X558994277Y-349298089D01*
X559021215Y-349217277D01*
X559021215Y-349163402D01*
X558994277Y-349082590D01*
X562991407Y-347304722D02*
X562964470Y-347223910D01*
X562883658Y-347143097D01*
X562775908Y-347089223D01*
X562668158Y-347089223D01*
X562587346Y-347116160D01*
X562452659Y-347196972D01*
X562371847Y-347277784D01*
X562291035Y-347412471D01*
X562264097Y-347493284D01*
X562264097Y-347601033D01*
X562317972Y-347708783D01*
X562371847Y-347762658D01*
X562479597Y-347816532D01*
X562533471Y-347816532D01*
X562722033Y-347627971D01*
X562614284Y-347520221D01*
X562722033Y-348112844D02*
X563287719Y-347547158D01*
X563503218Y-347762658D01*
X563530155Y-347843470D01*
X563530155Y-347897345D01*
X563503218Y-347978157D01*
X563422406Y-348058969D01*
X563341593Y-348085906D01*
X563287719Y-348085906D01*
X563206906Y-348058969D01*
X562991407Y-347843470D01*
X563772592Y-348139781D02*
X563826467Y-348139781D01*
X563907279Y-348166719D01*
X564041966Y-348301406D01*
X564068903Y-348382218D01*
X564068903Y-348436093D01*
X564041966Y-348516905D01*
X563988091Y-348570780D01*
X563880341Y-348624654D01*
X563233844Y-348624654D01*
X563584030Y-348974841D01*
X564338277Y-348597717D02*
X564715401Y-348974841D01*
X563907279Y-349298089D01*
X565521407Y-347304722D02*
X565494470Y-347223910D01*
X565413658Y-347143097D01*
X565305908Y-347089223D01*
X565198158Y-347089223D01*
X565117346Y-347116160D01*
X564982659Y-347196972D01*
X564901847Y-347277784D01*
X564821035Y-347412471D01*
X564794097Y-347493284D01*
X564794097Y-347601033D01*
X564847972Y-347708783D01*
X564901847Y-347762658D01*
X565009597Y-347816532D01*
X565063471Y-347816532D01*
X565252033Y-347627971D01*
X565144284Y-347520221D01*
X565252033Y-348112844D02*
X565817719Y-347547158D01*
X566033218Y-347762658D01*
X566060155Y-347843470D01*
X566060155Y-347897345D01*
X566033218Y-347978157D01*
X565952406Y-348058969D01*
X565871593Y-348085906D01*
X565817719Y-348085906D01*
X565736906Y-348058969D01*
X565521407Y-347843470D01*
X566302592Y-348139781D02*
X566356467Y-348139781D01*
X566437279Y-348166719D01*
X566571966Y-348301406D01*
X566598903Y-348382218D01*
X566598903Y-348436093D01*
X566571966Y-348516905D01*
X566518091Y-348570780D01*
X566410341Y-348624654D01*
X565763844Y-348624654D01*
X566114030Y-348974841D01*
X567164589Y-348894028D02*
X567056839Y-348786279D01*
X566976027Y-348759341D01*
X566922152Y-348759341D01*
X566787465Y-348786279D01*
X566652778Y-348867091D01*
X566437279Y-349082590D01*
X566410341Y-349163402D01*
X566410341Y-349217277D01*
X566437279Y-349298089D01*
X566545028Y-349405839D01*
X566625841Y-349432776D01*
X566679715Y-349432776D01*
X566760528Y-349405839D01*
X566895215Y-349271152D01*
X566922152Y-349190340D01*
X566922152Y-349136465D01*
X566895215Y-349055653D01*
X566787465Y-348947903D01*
X566706653Y-348920966D01*
X566652778Y-348920966D01*
X566571966Y-348947903D01*
X567778564Y-348153375D02*
X567859377Y-347695439D01*
X567455316Y-347830126D02*
X568021001Y-347264441D01*
X568236500Y-347479940D01*
X568263438Y-347560752D01*
X568263438Y-347614627D01*
X568236500Y-347695439D01*
X568155688Y-347776251D01*
X568074876Y-347803189D01*
X568021001Y-347803189D01*
X567940189Y-347776251D01*
X567724690Y-347560752D01*
X568586687Y-347830126D02*
X568128751Y-348288062D01*
X568101813Y-348368874D01*
X568101813Y-348422749D01*
X568128751Y-348503561D01*
X568236500Y-348611311D01*
X568317312Y-348638248D01*
X568371187Y-348638248D01*
X568452000Y-348611311D01*
X568909935Y-348153375D01*
X568613624Y-348988435D02*
X569179309Y-348422749D01*
X568936873Y-349311683D01*
X569502558Y-348745998D01*
X570601407Y-347304722D02*
X570574470Y-347223910D01*
X570493658Y-347143097D01*
X570385908Y-347089223D01*
X570278158Y-347089223D01*
X570197346Y-347116160D01*
X570062659Y-347196972D01*
X569981847Y-347277784D01*
X569901035Y-347412471D01*
X569874097Y-347493284D01*
X569874097Y-347601033D01*
X569927972Y-347708783D01*
X569981847Y-347762658D01*
X570089597Y-347816532D01*
X570143471Y-347816532D01*
X570332033Y-347627971D01*
X570224284Y-347520221D01*
X570332033Y-348112844D02*
X570897719Y-347547158D01*
X571113218Y-347762658D01*
X571140155Y-347843470D01*
X571140155Y-347897345D01*
X571113218Y-347978157D01*
X571032406Y-348058969D01*
X570951593Y-348085906D01*
X570897719Y-348085906D01*
X570816906Y-348058969D01*
X570601407Y-347843470D01*
X571382592Y-348139781D02*
X571436467Y-348139781D01*
X571517279Y-348166719D01*
X571651966Y-348301406D01*
X571678903Y-348382218D01*
X571678903Y-348436093D01*
X571651966Y-348516905D01*
X571598091Y-348570780D01*
X571490341Y-348624654D01*
X570843844Y-348624654D01*
X571194030Y-348974841D01*
X571921340Y-348678529D02*
X571975215Y-348678529D01*
X572056027Y-348705467D01*
X572190714Y-348840154D01*
X572217651Y-348920966D01*
X572217651Y-348974841D01*
X572190714Y-349055653D01*
X572136839Y-349109528D01*
X572029089Y-349163402D01*
X571382592Y-349163402D01*
X571732778Y-349513589D01*
X575691407Y-347304722D02*
X575664470Y-347223910D01*
X575583658Y-347143097D01*
X575475908Y-347089223D01*
X575368158Y-347089223D01*
X575287346Y-347116160D01*
X575152659Y-347196972D01*
X575071847Y-347277784D01*
X574991035Y-347412471D01*
X574964097Y-347493284D01*
X574964097Y-347601033D01*
X575017972Y-347708783D01*
X575071847Y-347762658D01*
X575179597Y-347816532D01*
X575233471Y-347816532D01*
X575422033Y-347627971D01*
X575314284Y-347520221D01*
X575422033Y-348112844D02*
X575987719Y-347547158D01*
X576203218Y-347762658D01*
X576230155Y-347843470D01*
X576230155Y-347897345D01*
X576203218Y-347978157D01*
X576122406Y-348058969D01*
X576041593Y-348085906D01*
X575987719Y-348085906D01*
X575906906Y-348058969D01*
X575691407Y-347843470D01*
X576472592Y-348139781D02*
X576526467Y-348139781D01*
X576607279Y-348166719D01*
X576741966Y-348301406D01*
X576768903Y-348382218D01*
X576768903Y-348436093D01*
X576741966Y-348516905D01*
X576688091Y-348570780D01*
X576580341Y-348624654D01*
X575933844Y-348624654D01*
X576284030Y-348974841D01*
X576822778Y-349513589D02*
X576499529Y-349190340D01*
X576661154Y-349351964D02*
X577226839Y-348786279D01*
X577092152Y-348813216D01*
X576984402Y-348813216D01*
X576903590Y-348786279D01*
X578221407Y-347304722D02*
X578194470Y-347223910D01*
X578113658Y-347143097D01*
X578005908Y-347089223D01*
X577898158Y-347089223D01*
X577817346Y-347116160D01*
X577682659Y-347196972D01*
X577601847Y-347277784D01*
X577521035Y-347412471D01*
X577494097Y-347493284D01*
X577494097Y-347601033D01*
X577547972Y-347708783D01*
X577601847Y-347762658D01*
X577709597Y-347816532D01*
X577763471Y-347816532D01*
X577952033Y-347627971D01*
X577844284Y-347520221D01*
X577952033Y-348112844D02*
X578517719Y-347547158D01*
X578733218Y-347762658D01*
X578760155Y-347843470D01*
X578760155Y-347897345D01*
X578733218Y-347978157D01*
X578652406Y-348058969D01*
X578571593Y-348085906D01*
X578517719Y-348085906D01*
X578436906Y-348058969D01*
X578221407Y-347843470D01*
X579002592Y-348139781D02*
X579056467Y-348139781D01*
X579137279Y-348166719D01*
X579271966Y-348301406D01*
X579298903Y-348382218D01*
X579298903Y-348436093D01*
X579271966Y-348516905D01*
X579218091Y-348570780D01*
X579110341Y-348624654D01*
X578463844Y-348624654D01*
X578814030Y-348974841D01*
X579729902Y-348759341D02*
X579783776Y-348813216D01*
X579810714Y-348894028D01*
X579810714Y-348947903D01*
X579783776Y-349028715D01*
X579702964Y-349163402D01*
X579568277Y-349298089D01*
X579433590Y-349378902D01*
X579352778Y-349405839D01*
X579298903Y-349405839D01*
X579218091Y-349378902D01*
X579164216Y-349325027D01*
X579137279Y-349244215D01*
X579137279Y-349190340D01*
X579164216Y-349109528D01*
X579245028Y-348974841D01*
X579379715Y-348840154D01*
X579514402Y-348759341D01*
X579595215Y-348732404D01*
X579649089Y-348732404D01*
X579729902Y-348759341D01*
X580761407Y-347304722D02*
X580734470Y-347223910D01*
X580653658Y-347143097D01*
X580545908Y-347089223D01*
X580438158Y-347089223D01*
X580357346Y-347116160D01*
X580222659Y-347196972D01*
X580141847Y-347277784D01*
X580061035Y-347412471D01*
X580034097Y-347493284D01*
X580034097Y-347601033D01*
X580087972Y-347708783D01*
X580141847Y-347762658D01*
X580249597Y-347816532D01*
X580303471Y-347816532D01*
X580492033Y-347627971D01*
X580384284Y-347520221D01*
X580492033Y-348112844D02*
X581057719Y-347547158D01*
X581273218Y-347762658D01*
X581300155Y-347843470D01*
X581300155Y-347897345D01*
X581273218Y-347978157D01*
X581192406Y-348058969D01*
X581111593Y-348085906D01*
X581057719Y-348085906D01*
X580976906Y-348058969D01*
X580761407Y-347843470D01*
X581354030Y-348974841D02*
X581030781Y-348651592D01*
X581192406Y-348813216D02*
X581758091Y-348247531D01*
X581623404Y-348274468D01*
X581515654Y-348274468D01*
X581434842Y-348247531D01*
X581623404Y-349244215D02*
X581731154Y-349351964D01*
X581811966Y-349378902D01*
X581865841Y-349378902D01*
X582000528Y-349351964D01*
X582135215Y-349271152D01*
X582350714Y-349055653D01*
X582377651Y-348974841D01*
X582377651Y-348920966D01*
X582350714Y-348840154D01*
X582242964Y-348732404D01*
X582162152Y-348705467D01*
X582108277Y-348705467D01*
X582027465Y-348732404D01*
X581892778Y-348867091D01*
X581865841Y-348947903D01*
X581865841Y-349001778D01*
X581892778Y-349082590D01*
X582000528Y-349190340D01*
X582081340Y-349217277D01*
X582135215Y-349217277D01*
X582216027Y-349190340D01*
X583301407Y-347304722D02*
X583274470Y-347223910D01*
X583193658Y-347143097D01*
X583085908Y-347089223D01*
X582978158Y-347089223D01*
X582897346Y-347116160D01*
X582762659Y-347196972D01*
X582681847Y-347277784D01*
X582601035Y-347412471D01*
X582574097Y-347493284D01*
X582574097Y-347601033D01*
X582627972Y-347708783D01*
X582681847Y-347762658D01*
X582789597Y-347816532D01*
X582843471Y-347816532D01*
X583032033Y-347627971D01*
X582924284Y-347520221D01*
X583032033Y-348112844D02*
X583597719Y-347547158D01*
X583813218Y-347762658D01*
X583840155Y-347843470D01*
X583840155Y-347897345D01*
X583813218Y-347978157D01*
X583732406Y-348058969D01*
X583651593Y-348085906D01*
X583597719Y-348085906D01*
X583516906Y-348058969D01*
X583301407Y-347843470D01*
X583894030Y-348974841D02*
X583570781Y-348651592D01*
X583732406Y-348813216D02*
X584298091Y-348247531D01*
X584163404Y-348274468D01*
X584055654Y-348274468D01*
X583974842Y-348247531D01*
X584540528Y-348974841D02*
X584513590Y-348894028D01*
X584513590Y-348840154D01*
X584540528Y-348759341D01*
X584567465Y-348732404D01*
X584648277Y-348705467D01*
X584702152Y-348705467D01*
X584782964Y-348732404D01*
X584890714Y-348840154D01*
X584917651Y-348920966D01*
X584917651Y-348974841D01*
X584890714Y-349055653D01*
X584863776Y-349082590D01*
X584782964Y-349109528D01*
X584729089Y-349109528D01*
X584648277Y-349082590D01*
X584540528Y-348974841D01*
X584459715Y-348947903D01*
X584405841Y-348947903D01*
X584325028Y-348974841D01*
X584217279Y-349082590D01*
X584190341Y-349163402D01*
X584190341Y-349217277D01*
X584217279Y-349298089D01*
X584325028Y-349405839D01*
X584405841Y-349432776D01*
X584459715Y-349432776D01*
X584540528Y-349405839D01*
X584648277Y-349298089D01*
X584675215Y-349217277D01*
X584675215Y-349163402D01*
X584648277Y-349082590D01*
X588381407Y-347304722D02*
X588354470Y-347223910D01*
X588273658Y-347143097D01*
X588165908Y-347089223D01*
X588058158Y-347089223D01*
X587977346Y-347116160D01*
X587842659Y-347196972D01*
X587761847Y-347277784D01*
X587681035Y-347412471D01*
X587654097Y-347493284D01*
X587654097Y-347601033D01*
X587707972Y-347708783D01*
X587761847Y-347762658D01*
X587869597Y-347816532D01*
X587923471Y-347816532D01*
X588112033Y-347627971D01*
X588004284Y-347520221D01*
X588112033Y-348112844D02*
X588677719Y-347547158D01*
X588893218Y-347762658D01*
X588920155Y-347843470D01*
X588920155Y-347897345D01*
X588893218Y-347978157D01*
X588812406Y-348058969D01*
X588731593Y-348085906D01*
X588677719Y-348085906D01*
X588596906Y-348058969D01*
X588381407Y-347843470D01*
X588974030Y-348974841D02*
X588650781Y-348651592D01*
X588812406Y-348813216D02*
X589378091Y-348247531D01*
X589243404Y-348274468D01*
X589135654Y-348274468D01*
X589054842Y-348247531D01*
X589728277Y-348597717D02*
X590105401Y-348974841D01*
X589297279Y-349298089D01*
X590921407Y-347304722D02*
X590894470Y-347223910D01*
X590813658Y-347143097D01*
X590705908Y-347089223D01*
X590598158Y-347089223D01*
X590517346Y-347116160D01*
X590382659Y-347196972D01*
X590301847Y-347277784D01*
X590221035Y-347412471D01*
X590194097Y-347493284D01*
X590194097Y-347601033D01*
X590247972Y-347708783D01*
X590301847Y-347762658D01*
X590409597Y-347816532D01*
X590463471Y-347816532D01*
X590652033Y-347627971D01*
X590544284Y-347520221D01*
X590652033Y-348112844D02*
X591217719Y-347547158D01*
X591433218Y-347762658D01*
X591460155Y-347843470D01*
X591460155Y-347897345D01*
X591433218Y-347978157D01*
X591352406Y-348058969D01*
X591271593Y-348085906D01*
X591217719Y-348085906D01*
X591136906Y-348058969D01*
X590921407Y-347843470D01*
X591514030Y-348974841D02*
X591190781Y-348651592D01*
X591352406Y-348813216D02*
X591918091Y-348247531D01*
X591783404Y-348274468D01*
X591675654Y-348274468D01*
X591594842Y-348247531D01*
X592564589Y-348894028D02*
X592456839Y-348786279D01*
X592376027Y-348759341D01*
X592322152Y-348759341D01*
X592187465Y-348786279D01*
X592052778Y-348867091D01*
X591837279Y-349082590D01*
X591810341Y-349163402D01*
X591810341Y-349217277D01*
X591837279Y-349298089D01*
X591945028Y-349405839D01*
X592025841Y-349432776D01*
X592079715Y-349432776D01*
X592160528Y-349405839D01*
X592295215Y-349271152D01*
X592322152Y-349190340D01*
X592322152Y-349136465D01*
X592295215Y-349055653D01*
X592187465Y-348947903D01*
X592106653Y-348920966D01*
X592052778Y-348920966D01*
X591971966Y-348947903D01*
X590921407Y-373412722D02*
X590894470Y-373331910D01*
X590813658Y-373251097D01*
X590705908Y-373197223D01*
X590598158Y-373197223D01*
X590517346Y-373224160D01*
X590382659Y-373304972D01*
X590301847Y-373385784D01*
X590221035Y-373520471D01*
X590194097Y-373601284D01*
X590194097Y-373709033D01*
X590247972Y-373816783D01*
X590301847Y-373870658D01*
X590409597Y-373924532D01*
X590463471Y-373924532D01*
X590652033Y-373735971D01*
X590544284Y-373628221D01*
X590652033Y-374220844D02*
X591217719Y-373655158D01*
X591433218Y-373870658D01*
X591460155Y-373951470D01*
X591460155Y-374005345D01*
X591433218Y-374086157D01*
X591352406Y-374166969D01*
X591271593Y-374193906D01*
X591217719Y-374193906D01*
X591136906Y-374166969D01*
X590921407Y-373951470D01*
X591514030Y-375082841D02*
X591190781Y-374759592D01*
X591352406Y-374921216D02*
X591918091Y-374355531D01*
X591783404Y-374382468D01*
X591675654Y-374382468D01*
X591594842Y-374355531D01*
X592591526Y-375028966D02*
X592322152Y-374759592D01*
X592025841Y-375002028D01*
X592079715Y-375002028D01*
X592160528Y-375028966D01*
X592295215Y-375163653D01*
X592322152Y-375244465D01*
X592322152Y-375298340D01*
X592295215Y-375379152D01*
X592160528Y-375513839D01*
X592079715Y-375540776D01*
X592025841Y-375540776D01*
X591945028Y-375513839D01*
X591810341Y-375379152D01*
X591783404Y-375298340D01*
X591783404Y-375244465D01*
X588381407Y-373458722D02*
X588354470Y-373377910D01*
X588273658Y-373297097D01*
X588165908Y-373243223D01*
X588058158Y-373243223D01*
X587977346Y-373270160D01*
X587842659Y-373350972D01*
X587761847Y-373431784D01*
X587681035Y-373566471D01*
X587654097Y-373647284D01*
X587654097Y-373755033D01*
X587707972Y-373862783D01*
X587761847Y-373916658D01*
X587869597Y-373970532D01*
X587923471Y-373970532D01*
X588112033Y-373781971D01*
X588004284Y-373674221D01*
X588112033Y-374266844D02*
X588677719Y-373701158D01*
X588893218Y-373916658D01*
X588920155Y-373997470D01*
X588920155Y-374051345D01*
X588893218Y-374132157D01*
X588812406Y-374212969D01*
X588731593Y-374239906D01*
X588677719Y-374239906D01*
X588596906Y-374212969D01*
X588381407Y-373997470D01*
X588974030Y-375128841D02*
X588650781Y-374805592D01*
X588812406Y-374967216D02*
X589378091Y-374401531D01*
X589243404Y-374428468D01*
X589135654Y-374428468D01*
X589054842Y-374401531D01*
X589836027Y-375236590D02*
X589458903Y-375613714D01*
X589916839Y-374886404D02*
X589378091Y-375155778D01*
X589728277Y-375505964D01*
X583301407Y-373412722D02*
X583274470Y-373331910D01*
X583193658Y-373251097D01*
X583085908Y-373197223D01*
X582978158Y-373197223D01*
X582897346Y-373224160D01*
X582762659Y-373304972D01*
X582681847Y-373385784D01*
X582601035Y-373520471D01*
X582574097Y-373601284D01*
X582574097Y-373709033D01*
X582627972Y-373816783D01*
X582681847Y-373870658D01*
X582789597Y-373924532D01*
X582843471Y-373924532D01*
X583032033Y-373735971D01*
X582924284Y-373628221D01*
X583032033Y-374220844D02*
X583597719Y-373655158D01*
X583813218Y-373870658D01*
X583840155Y-373951470D01*
X583840155Y-374005345D01*
X583813218Y-374086157D01*
X583732406Y-374166969D01*
X583651593Y-374193906D01*
X583597719Y-374193906D01*
X583516906Y-374166969D01*
X583301407Y-373951470D01*
X583894030Y-375082841D02*
X583570781Y-374759592D01*
X583732406Y-374921216D02*
X584298091Y-374355531D01*
X584163404Y-374382468D01*
X584055654Y-374382468D01*
X583974842Y-374355531D01*
X584648277Y-374705717D02*
X584998463Y-375055903D01*
X584594402Y-375082841D01*
X584675215Y-375163653D01*
X584702152Y-375244465D01*
X584702152Y-375298340D01*
X584675215Y-375379152D01*
X584540528Y-375513839D01*
X584459715Y-375540776D01*
X584405841Y-375540776D01*
X584325028Y-375513839D01*
X584163404Y-375352215D01*
X584136467Y-375271402D01*
X584136467Y-375217528D01*
X580761407Y-373558722D02*
X580734470Y-373477910D01*
X580653658Y-373397097D01*
X580545908Y-373343223D01*
X580438158Y-373343223D01*
X580357346Y-373370160D01*
X580222659Y-373450972D01*
X580141847Y-373531784D01*
X580061035Y-373666471D01*
X580034097Y-373747284D01*
X580034097Y-373855033D01*
X580087972Y-373962783D01*
X580141847Y-374016658D01*
X580249597Y-374070532D01*
X580303471Y-374070532D01*
X580492033Y-373881971D01*
X580384284Y-373774221D01*
X580492033Y-374366844D02*
X581057719Y-373801158D01*
X581273218Y-374016658D01*
X581300155Y-374097470D01*
X581300155Y-374151345D01*
X581273218Y-374232157D01*
X581192406Y-374312969D01*
X581111593Y-374339906D01*
X581057719Y-374339906D01*
X580976906Y-374312969D01*
X580761407Y-374097470D01*
X581354030Y-375228841D02*
X581030781Y-374905592D01*
X581192406Y-375067216D02*
X581758091Y-374501531D01*
X581623404Y-374528468D01*
X581515654Y-374528468D01*
X581434842Y-374501531D01*
X582081340Y-374932529D02*
X582135215Y-374932529D01*
X582216027Y-374959467D01*
X582350714Y-375094154D01*
X582377651Y-375174966D01*
X582377651Y-375228841D01*
X582350714Y-375309653D01*
X582296839Y-375363528D01*
X582189089Y-375417402D01*
X581542592Y-375417402D01*
X581892778Y-375767589D01*
X578221407Y-373558722D02*
X578194470Y-373477910D01*
X578113658Y-373397097D01*
X578005908Y-373343223D01*
X577898158Y-373343223D01*
X577817346Y-373370160D01*
X577682659Y-373450972D01*
X577601847Y-373531784D01*
X577521035Y-373666471D01*
X577494097Y-373747284D01*
X577494097Y-373855033D01*
X577547972Y-373962783D01*
X577601847Y-374016658D01*
X577709597Y-374070532D01*
X577763471Y-374070532D01*
X577952033Y-373881971D01*
X577844284Y-373774221D01*
X577952033Y-374366844D02*
X578517719Y-373801158D01*
X578733218Y-374016658D01*
X578760155Y-374097470D01*
X578760155Y-374151345D01*
X578733218Y-374232157D01*
X578652406Y-374312969D01*
X578571593Y-374339906D01*
X578517719Y-374339906D01*
X578436906Y-374312969D01*
X578221407Y-374097470D01*
X578814030Y-375228841D02*
X578490781Y-374905592D01*
X578652406Y-375067216D02*
X579218091Y-374501531D01*
X579083404Y-374528468D01*
X578975654Y-374528468D01*
X578894842Y-374501531D01*
X579352778Y-375767589D02*
X579029529Y-375444340D01*
X579191154Y-375605964D02*
X579756839Y-375040279D01*
X579622152Y-375067216D01*
X579514402Y-375067216D01*
X579433590Y-375040279D01*
X575681407Y-373412722D02*
X575654470Y-373331910D01*
X575573658Y-373251097D01*
X575465908Y-373197223D01*
X575358158Y-373197223D01*
X575277346Y-373224160D01*
X575142659Y-373304972D01*
X575061847Y-373385784D01*
X574981035Y-373520471D01*
X574954097Y-373601284D01*
X574954097Y-373709033D01*
X575007972Y-373816783D01*
X575061847Y-373870658D01*
X575169597Y-373924532D01*
X575223471Y-373924532D01*
X575412033Y-373735971D01*
X575304284Y-373628221D01*
X575412033Y-374220844D02*
X575977719Y-373655158D01*
X576193218Y-373870658D01*
X576220155Y-373951470D01*
X576220155Y-374005345D01*
X576193218Y-374086157D01*
X576112406Y-374166969D01*
X576031593Y-374193906D01*
X575977719Y-374193906D01*
X575896906Y-374166969D01*
X575681407Y-373951470D01*
X576274030Y-375082841D02*
X575950781Y-374759592D01*
X576112406Y-374921216D02*
X576678091Y-374355531D01*
X576543404Y-374382468D01*
X576435654Y-374382468D01*
X576354842Y-374355531D01*
X577189902Y-374867341D02*
X577243776Y-374921216D01*
X577270714Y-375002028D01*
X577270714Y-375055903D01*
X577243776Y-375136715D01*
X577162964Y-375271402D01*
X577028277Y-375406089D01*
X576893590Y-375486902D01*
X576812778Y-375513839D01*
X576758903Y-375513839D01*
X576678091Y-375486902D01*
X576624216Y-375433027D01*
X576597279Y-375352215D01*
X576597279Y-375298340D01*
X576624216Y-375217528D01*
X576705028Y-375082841D01*
X576839715Y-374948154D01*
X576974402Y-374867341D01*
X577055215Y-374840404D01*
X577109089Y-374840404D01*
X577189902Y-374867341D01*
X570870781Y-373428096D02*
X570843844Y-373347284D01*
X570763032Y-373266471D01*
X570655282Y-373212597D01*
X570547532Y-373212597D01*
X570466720Y-373239534D01*
X570332033Y-373320346D01*
X570251221Y-373401158D01*
X570170409Y-373535845D01*
X570143471Y-373616658D01*
X570143471Y-373724407D01*
X570197346Y-373832157D01*
X570251221Y-373886032D01*
X570358971Y-373939906D01*
X570412845Y-373939906D01*
X570601407Y-373751345D01*
X570493658Y-373643595D01*
X570601407Y-374236218D02*
X571167093Y-373670532D01*
X571382592Y-373886032D01*
X571409529Y-373966844D01*
X571409529Y-374020719D01*
X571382592Y-374101531D01*
X571301780Y-374182343D01*
X571220967Y-374209280D01*
X571167093Y-374209280D01*
X571086280Y-374182343D01*
X570870781Y-373966844D01*
X571194030Y-374828841D02*
X571301780Y-374936590D01*
X571382592Y-374963528D01*
X571436467Y-374963528D01*
X571571154Y-374936590D01*
X571705841Y-374855778D01*
X571921340Y-374640279D01*
X571948277Y-374559467D01*
X571948277Y-374505592D01*
X571921340Y-374424780D01*
X571813590Y-374317030D01*
X571732778Y-374290093D01*
X571678903Y-374290093D01*
X571598091Y-374317030D01*
X571463404Y-374451717D01*
X571436467Y-374532529D01*
X571436467Y-374586404D01*
X571463404Y-374667216D01*
X571571154Y-374774966D01*
X571651966Y-374801903D01*
X571705841Y-374801903D01*
X571786653Y-374774966D01*
X568330781Y-373428096D02*
X568303844Y-373347284D01*
X568223032Y-373266471D01*
X568115282Y-373212597D01*
X568007532Y-373212597D01*
X567926720Y-373239534D01*
X567792033Y-373320346D01*
X567711221Y-373401158D01*
X567630409Y-373535845D01*
X567603471Y-373616658D01*
X567603471Y-373724407D01*
X567657346Y-373832157D01*
X567711221Y-373886032D01*
X567818971Y-373939906D01*
X567872845Y-373939906D01*
X568061407Y-373751345D01*
X567953658Y-373643595D01*
X568061407Y-374236218D02*
X568627093Y-373670532D01*
X568842592Y-373886032D01*
X568869529Y-373966844D01*
X568869529Y-374020719D01*
X568842592Y-374101531D01*
X568761780Y-374182343D01*
X568680967Y-374209280D01*
X568627093Y-374209280D01*
X568546280Y-374182343D01*
X568330781Y-373966844D01*
X569031154Y-374559467D02*
X569004216Y-374478654D01*
X569004216Y-374424780D01*
X569031154Y-374343967D01*
X569058091Y-374317030D01*
X569138903Y-374290093D01*
X569192778Y-374290093D01*
X569273590Y-374317030D01*
X569381340Y-374424780D01*
X569408277Y-374505592D01*
X569408277Y-374559467D01*
X569381340Y-374640279D01*
X569354402Y-374667216D01*
X569273590Y-374694154D01*
X569219715Y-374694154D01*
X569138903Y-374667216D01*
X569031154Y-374559467D01*
X568950341Y-374532529D01*
X568896467Y-374532529D01*
X568815654Y-374559467D01*
X568707905Y-374667216D01*
X568680967Y-374748028D01*
X568680967Y-374801903D01*
X568707905Y-374882715D01*
X568815654Y-374990465D01*
X568896467Y-375017402D01*
X568950341Y-375017402D01*
X569031154Y-374990465D01*
X569138903Y-374882715D01*
X569165841Y-374801903D01*
X569165841Y-374748028D01*
X569138903Y-374667216D01*
X565760781Y-373328096D02*
X565733844Y-373247284D01*
X565653032Y-373166471D01*
X565545282Y-373112597D01*
X565437532Y-373112597D01*
X565356720Y-373139534D01*
X565222033Y-373220346D01*
X565141221Y-373301158D01*
X565060409Y-373435845D01*
X565033471Y-373516658D01*
X565033471Y-373624407D01*
X565087346Y-373732157D01*
X565141221Y-373786032D01*
X565248971Y-373839906D01*
X565302845Y-373839906D01*
X565491407Y-373651345D01*
X565383658Y-373543595D01*
X565491407Y-374136218D02*
X566057093Y-373570532D01*
X566272592Y-373786032D01*
X566299529Y-373866844D01*
X566299529Y-373920719D01*
X566272592Y-374001531D01*
X566191780Y-374082343D01*
X566110967Y-374109280D01*
X566057093Y-374109280D01*
X565976280Y-374082343D01*
X565760781Y-373866844D01*
X566568903Y-374082343D02*
X566946027Y-374459467D01*
X566137905Y-374782715D01*
X563250781Y-373428096D02*
X563223844Y-373347284D01*
X563143032Y-373266471D01*
X563035282Y-373212597D01*
X562927532Y-373212597D01*
X562846720Y-373239534D01*
X562712033Y-373320346D01*
X562631221Y-373401158D01*
X562550409Y-373535845D01*
X562523471Y-373616658D01*
X562523471Y-373724407D01*
X562577346Y-373832157D01*
X562631221Y-373886032D01*
X562738971Y-373939906D01*
X562792845Y-373939906D01*
X562981407Y-373751345D01*
X562873658Y-373643595D01*
X562981407Y-374236218D02*
X563547093Y-373670532D01*
X563762592Y-373886032D01*
X563789529Y-373966844D01*
X563789529Y-374020719D01*
X563762592Y-374101531D01*
X563681780Y-374182343D01*
X563600967Y-374209280D01*
X563547093Y-374209280D01*
X563466280Y-374182343D01*
X563250781Y-373966844D01*
X564355215Y-374478654D02*
X564247465Y-374370905D01*
X564166653Y-374343967D01*
X564112778Y-374343967D01*
X563978091Y-374370905D01*
X563843404Y-374451717D01*
X563627905Y-374667216D01*
X563600967Y-374748028D01*
X563600967Y-374801903D01*
X563627905Y-374882715D01*
X563735654Y-374990465D01*
X563816467Y-375017402D01*
X563870341Y-375017402D01*
X563951154Y-374990465D01*
X564085841Y-374855778D01*
X564112778Y-374774966D01*
X564112778Y-374721091D01*
X564085841Y-374640279D01*
X563978091Y-374532529D01*
X563897279Y-374505592D01*
X563843404Y-374505592D01*
X563762592Y-374532529D01*
X558170781Y-373428096D02*
X558143844Y-373347284D01*
X558063032Y-373266471D01*
X557955282Y-373212597D01*
X557847532Y-373212597D01*
X557766720Y-373239534D01*
X557632033Y-373320346D01*
X557551221Y-373401158D01*
X557470409Y-373535845D01*
X557443471Y-373616658D01*
X557443471Y-373724407D01*
X557497346Y-373832157D01*
X557551221Y-373886032D01*
X557658971Y-373939906D01*
X557712845Y-373939906D01*
X557901407Y-373751345D01*
X557793658Y-373643595D01*
X557901407Y-374236218D02*
X558467093Y-373670532D01*
X558682592Y-373886032D01*
X558709529Y-373966844D01*
X558709529Y-374020719D01*
X558682592Y-374101531D01*
X558601780Y-374182343D01*
X558520967Y-374209280D01*
X558467093Y-374209280D01*
X558386280Y-374182343D01*
X558170781Y-373966844D01*
X559302152Y-374505592D02*
X559032778Y-374236218D01*
X558736467Y-374478654D01*
X558790341Y-374478654D01*
X558871154Y-374505592D01*
X559005841Y-374640279D01*
X559032778Y-374721091D01*
X559032778Y-374774966D01*
X559005841Y-374855778D01*
X558871154Y-374990465D01*
X558790341Y-375017402D01*
X558736467Y-375017402D01*
X558655654Y-374990465D01*
X558520967Y-374855778D01*
X558494030Y-374774966D01*
X558494030Y-374721091D01*
X555630781Y-373428096D02*
X555603844Y-373347284D01*
X555523032Y-373266471D01*
X555415282Y-373212597D01*
X555307532Y-373212597D01*
X555226720Y-373239534D01*
X555092033Y-373320346D01*
X555011221Y-373401158D01*
X554930409Y-373535845D01*
X554903471Y-373616658D01*
X554903471Y-373724407D01*
X554957346Y-373832157D01*
X555011221Y-373886032D01*
X555118971Y-373939906D01*
X555172845Y-373939906D01*
X555361407Y-373751345D01*
X555253658Y-373643595D01*
X555361407Y-374236218D02*
X555927093Y-373670532D01*
X556142592Y-373886032D01*
X556169529Y-373966844D01*
X556169529Y-374020719D01*
X556142592Y-374101531D01*
X556061780Y-374182343D01*
X555980967Y-374209280D01*
X555927093Y-374209280D01*
X555846280Y-374182343D01*
X555630781Y-373966844D01*
X556546653Y-374667216D02*
X556169529Y-375044340D01*
X556627465Y-374317030D02*
X556088717Y-374586404D01*
X556438903Y-374936590D01*
X553090781Y-373428096D02*
X553063844Y-373347284D01*
X552983032Y-373266471D01*
X552875282Y-373212597D01*
X552767532Y-373212597D01*
X552686720Y-373239534D01*
X552552033Y-373320346D01*
X552471221Y-373401158D01*
X552390409Y-373535845D01*
X552363471Y-373616658D01*
X552363471Y-373724407D01*
X552417346Y-373832157D01*
X552471221Y-373886032D01*
X552578971Y-373939906D01*
X552632845Y-373939906D01*
X552821407Y-373751345D01*
X552713658Y-373643595D01*
X552821407Y-374236218D02*
X553387093Y-373670532D01*
X553602592Y-373886032D01*
X553629529Y-373966844D01*
X553629529Y-374020719D01*
X553602592Y-374101531D01*
X553521780Y-374182343D01*
X553440967Y-374209280D01*
X553387093Y-374209280D01*
X553306280Y-374182343D01*
X553090781Y-373966844D01*
X553898903Y-374182343D02*
X554249089Y-374532529D01*
X553845028Y-374559467D01*
X553925841Y-374640279D01*
X553952778Y-374721091D01*
X553952778Y-374774966D01*
X553925841Y-374855778D01*
X553791154Y-374990465D01*
X553710341Y-375017402D01*
X553656467Y-375017402D01*
X553575654Y-374990465D01*
X553414030Y-374828841D01*
X553387093Y-374748028D01*
X553387093Y-374694154D01*
X542930781Y-373428096D02*
X542903844Y-373347284D01*
X542823032Y-373266471D01*
X542715282Y-373212597D01*
X542607532Y-373212597D01*
X542526720Y-373239534D01*
X542392033Y-373320346D01*
X542311221Y-373401158D01*
X542230409Y-373535845D01*
X542203471Y-373616658D01*
X542203471Y-373724407D01*
X542257346Y-373832157D01*
X542311221Y-373886032D01*
X542418971Y-373939906D01*
X542472845Y-373939906D01*
X542661407Y-373751345D01*
X542553658Y-373643595D01*
X542661407Y-374236218D02*
X543227093Y-373670532D01*
X543442592Y-373886032D01*
X543469529Y-373966844D01*
X543469529Y-374020719D01*
X543442592Y-374101531D01*
X543361780Y-374182343D01*
X543280967Y-374209280D01*
X543227093Y-374209280D01*
X543146280Y-374182343D01*
X542930781Y-373966844D01*
X543900528Y-374343967D02*
X543954402Y-374397842D01*
X543981340Y-374478654D01*
X543981340Y-374532529D01*
X543954402Y-374613341D01*
X543873590Y-374748028D01*
X543738903Y-374882715D01*
X543604216Y-374963528D01*
X543523404Y-374990465D01*
X543469529Y-374990465D01*
X543388717Y-374963528D01*
X543334842Y-374909653D01*
X543307905Y-374828841D01*
X543307905Y-374774966D01*
X543334842Y-374694154D01*
X543415654Y-374559467D01*
X543550341Y-374424780D01*
X543685028Y-374343967D01*
X543765841Y-374317030D01*
X543819715Y-374317030D01*
X543900528Y-374343967D01*
X550550781Y-373528096D02*
X550523844Y-373447284D01*
X550443032Y-373366471D01*
X550335282Y-373312597D01*
X550227532Y-373312597D01*
X550146720Y-373339534D01*
X550012033Y-373420346D01*
X549931221Y-373501158D01*
X549850409Y-373635845D01*
X549823471Y-373716658D01*
X549823471Y-373824407D01*
X549877346Y-373932157D01*
X549931221Y-373986032D01*
X550038971Y-374039906D01*
X550092845Y-374039906D01*
X550281407Y-373851345D01*
X550173658Y-373743595D01*
X550281407Y-374336218D02*
X550847093Y-373770532D01*
X551062592Y-373986032D01*
X551089529Y-374066844D01*
X551089529Y-374120719D01*
X551062592Y-374201531D01*
X550981780Y-374282343D01*
X550900967Y-374309280D01*
X550847093Y-374309280D01*
X550766280Y-374282343D01*
X550550781Y-374066844D01*
X551331966Y-374363155D02*
X551385841Y-374363155D01*
X551466653Y-374390093D01*
X551601340Y-374524780D01*
X551628277Y-374605592D01*
X551628277Y-374659467D01*
X551601340Y-374740279D01*
X551547465Y-374794154D01*
X551439715Y-374848028D01*
X550793218Y-374848028D01*
X551143404Y-375198215D01*
X545460781Y-373528096D02*
X545433844Y-373447284D01*
X545353032Y-373366471D01*
X545245282Y-373312597D01*
X545137532Y-373312597D01*
X545056720Y-373339534D01*
X544922033Y-373420346D01*
X544841221Y-373501158D01*
X544760409Y-373635845D01*
X544733471Y-373716658D01*
X544733471Y-373824407D01*
X544787346Y-373932157D01*
X544841221Y-373986032D01*
X544948971Y-374039906D01*
X545002845Y-374039906D01*
X545191407Y-373851345D01*
X545083658Y-373743595D01*
X545191407Y-374336218D02*
X545757093Y-373770532D01*
X545972592Y-373986032D01*
X545999529Y-374066844D01*
X545999529Y-374120719D01*
X545972592Y-374201531D01*
X545891780Y-374282343D01*
X545810967Y-374309280D01*
X545757093Y-374309280D01*
X545676280Y-374282343D01*
X545460781Y-374066844D01*
X546053404Y-375198215D02*
X545730155Y-374874966D01*
X545891780Y-375036590D02*
X546457465Y-374470905D01*
X546322778Y-374497842D01*
X546215028Y-374497842D01*
X546134216Y-374470905D01*
%TO.C,LED16*%
X614354586Y-446222430D02*
X613878343Y-446222430D01*
X613878343Y-445222320D01*
X614687956Y-445698563D02*
X615021326Y-445698563D01*
X615164199Y-446222430D02*
X614687956Y-446222430D01*
X614687956Y-445222320D01*
X615164199Y-445222320D01*
X615592817Y-446222430D02*
X615592817Y-445222320D01*
X615830939Y-445222320D01*
X615973812Y-445269945D01*
X616069060Y-445365193D01*
X616116685Y-445460442D01*
X616164309Y-445650939D01*
X616164309Y-445793812D01*
X616116685Y-445984309D01*
X616069060Y-446079557D01*
X615973812Y-446174806D01*
X615830939Y-446222430D01*
X615592817Y-446222430D01*
X617116795Y-446222430D02*
X616545303Y-446222430D01*
X616831049Y-446222430D02*
X616831049Y-445222320D01*
X616735800Y-445365193D01*
X616640552Y-445460442D01*
X616545303Y-445508066D01*
X617974032Y-445222320D02*
X617783535Y-445222320D01*
X617688286Y-445269945D01*
X617640662Y-445317569D01*
X617545413Y-445460442D01*
X617497789Y-445650939D01*
X617497789Y-446031933D01*
X617545413Y-446127182D01*
X617593037Y-446174806D01*
X617688286Y-446222430D01*
X617878783Y-446222430D01*
X617974032Y-446174806D01*
X618021656Y-446127182D01*
X618069280Y-446031933D01*
X618069280Y-445793812D01*
X618021656Y-445698563D01*
X617974032Y-445650939D01*
X617878783Y-445603315D01*
X617688286Y-445603315D01*
X617593037Y-445650939D01*
X617545413Y-445698563D01*
X617497789Y-445793812D01*
%TO.C,LED15*%
X595304586Y-446036140D02*
X594828343Y-446036140D01*
X594828343Y-445036030D01*
X595637956Y-445512273D02*
X595971326Y-445512273D01*
X596114199Y-446036140D02*
X595637956Y-446036140D01*
X595637956Y-445036030D01*
X596114199Y-445036030D01*
X596542817Y-446036140D02*
X596542817Y-445036030D01*
X596780939Y-445036030D01*
X596923812Y-445083655D01*
X597019060Y-445178903D01*
X597066685Y-445274152D01*
X597114309Y-445464649D01*
X597114309Y-445607522D01*
X597066685Y-445798019D01*
X597019060Y-445893267D01*
X596923812Y-445988516D01*
X596780939Y-446036140D01*
X596542817Y-446036140D01*
X598066795Y-446036140D02*
X597495303Y-446036140D01*
X597781049Y-446036140D02*
X597781049Y-445036030D01*
X597685800Y-445178903D01*
X597590552Y-445274152D01*
X597495303Y-445321776D01*
X598971656Y-445036030D02*
X598495413Y-445036030D01*
X598447789Y-445512273D01*
X598495413Y-445464649D01*
X598590662Y-445417025D01*
X598828783Y-445417025D01*
X598924032Y-445464649D01*
X598971656Y-445512273D01*
X599019280Y-445607522D01*
X599019280Y-445845643D01*
X598971656Y-445940892D01*
X598924032Y-445988516D01*
X598828783Y-446036140D01*
X598590662Y-446036140D01*
X598495413Y-445988516D01*
X598447789Y-445940892D01*
%TO.C,LED14*%
X576254586Y-446222430D02*
X575778343Y-446222430D01*
X575778343Y-445222320D01*
X576587956Y-445698563D02*
X576921326Y-445698563D01*
X577064199Y-446222430D02*
X576587956Y-446222430D01*
X576587956Y-445222320D01*
X577064199Y-445222320D01*
X577492817Y-446222430D02*
X577492817Y-445222320D01*
X577730939Y-445222320D01*
X577873812Y-445269945D01*
X577969060Y-445365193D01*
X578016685Y-445460442D01*
X578064309Y-445650939D01*
X578064309Y-445793812D01*
X578016685Y-445984309D01*
X577969060Y-446079557D01*
X577873812Y-446174806D01*
X577730939Y-446222430D01*
X577492817Y-446222430D01*
X579016795Y-446222430D02*
X578445303Y-446222430D01*
X578731049Y-446222430D02*
X578731049Y-445222320D01*
X578635800Y-445365193D01*
X578540552Y-445460442D01*
X578445303Y-445508066D01*
X579874032Y-445555690D02*
X579874032Y-446222430D01*
X579635910Y-445174696D02*
X579397789Y-445889060D01*
X580016905Y-445889060D01*
%TO.C,LED13*%
X557204586Y-446222430D02*
X556728343Y-446222430D01*
X556728343Y-445222320D01*
X557537956Y-445698563D02*
X557871326Y-445698563D01*
X558014199Y-446222430D02*
X557537956Y-446222430D01*
X557537956Y-445222320D01*
X558014199Y-445222320D01*
X558442817Y-446222430D02*
X558442817Y-445222320D01*
X558680939Y-445222320D01*
X558823812Y-445269945D01*
X558919060Y-445365193D01*
X558966685Y-445460442D01*
X559014309Y-445650939D01*
X559014309Y-445793812D01*
X558966685Y-445984309D01*
X558919060Y-446079557D01*
X558823812Y-446174806D01*
X558680939Y-446222430D01*
X558442817Y-446222430D01*
X559966795Y-446222430D02*
X559395303Y-446222430D01*
X559681049Y-446222430D02*
X559681049Y-445222320D01*
X559585800Y-445365193D01*
X559490552Y-445460442D01*
X559395303Y-445508066D01*
X560300165Y-445222320D02*
X560919280Y-445222320D01*
X560585910Y-445603315D01*
X560728783Y-445603315D01*
X560824032Y-445650939D01*
X560871656Y-445698563D01*
X560919280Y-445793812D01*
X560919280Y-446031933D01*
X560871656Y-446127182D01*
X560824032Y-446174806D01*
X560728783Y-446222430D01*
X560443037Y-446222430D01*
X560347789Y-446174806D01*
X560300165Y-446127182D01*
%TO.C,LED12*%
X614354586Y-427172430D02*
X613878343Y-427172430D01*
X613878343Y-426172320D01*
X614687956Y-426648563D02*
X615021326Y-426648563D01*
X615164199Y-427172430D02*
X614687956Y-427172430D01*
X614687956Y-426172320D01*
X615164199Y-426172320D01*
X615592817Y-427172430D02*
X615592817Y-426172320D01*
X615830939Y-426172320D01*
X615973812Y-426219945D01*
X616069060Y-426315193D01*
X616116685Y-426410442D01*
X616164309Y-426600939D01*
X616164309Y-426743812D01*
X616116685Y-426934309D01*
X616069060Y-427029557D01*
X615973812Y-427124806D01*
X615830939Y-427172430D01*
X615592817Y-427172430D01*
X617116795Y-427172430D02*
X616545303Y-427172430D01*
X616831049Y-427172430D02*
X616831049Y-426172320D01*
X616735800Y-426315193D01*
X616640552Y-426410442D01*
X616545303Y-426458066D01*
X617497789Y-426267569D02*
X617545413Y-426219945D01*
X617640662Y-426172320D01*
X617878783Y-426172320D01*
X617974032Y-426219945D01*
X618021656Y-426267569D01*
X618069280Y-426362817D01*
X618069280Y-426458066D01*
X618021656Y-426600939D01*
X617450165Y-427172430D01*
X618069280Y-427172430D01*
%TO.C,LED11*%
X595304586Y-427172430D02*
X594828343Y-427172430D01*
X594828343Y-426172320D01*
X595637956Y-426648563D02*
X595971326Y-426648563D01*
X596114199Y-427172430D02*
X595637956Y-427172430D01*
X595637956Y-426172320D01*
X596114199Y-426172320D01*
X596542817Y-427172430D02*
X596542817Y-426172320D01*
X596780939Y-426172320D01*
X596923812Y-426219945D01*
X597019060Y-426315193D01*
X597066685Y-426410442D01*
X597114309Y-426600939D01*
X597114309Y-426743812D01*
X597066685Y-426934309D01*
X597019060Y-427029557D01*
X596923812Y-427124806D01*
X596780939Y-427172430D01*
X596542817Y-427172430D01*
X598066795Y-427172430D02*
X597495303Y-427172430D01*
X597781049Y-427172430D02*
X597781049Y-426172320D01*
X597685800Y-426315193D01*
X597590552Y-426410442D01*
X597495303Y-426458066D01*
X599019280Y-427172430D02*
X598447789Y-427172430D01*
X598733535Y-427172430D02*
X598733535Y-426172320D01*
X598638286Y-426315193D01*
X598543037Y-426410442D01*
X598447789Y-426458066D01*
%TO.C,LED10*%
X576254586Y-427172430D02*
X575778343Y-427172430D01*
X575778343Y-426172320D01*
X576587956Y-426648563D02*
X576921326Y-426648563D01*
X577064199Y-427172430D02*
X576587956Y-427172430D01*
X576587956Y-426172320D01*
X577064199Y-426172320D01*
X577492817Y-427172430D02*
X577492817Y-426172320D01*
X577730939Y-426172320D01*
X577873812Y-426219945D01*
X577969060Y-426315193D01*
X578016685Y-426410442D01*
X578064309Y-426600939D01*
X578064309Y-426743812D01*
X578016685Y-426934309D01*
X577969060Y-427029557D01*
X577873812Y-427124806D01*
X577730939Y-427172430D01*
X577492817Y-427172430D01*
X579016795Y-427172430D02*
X578445303Y-427172430D01*
X578731049Y-427172430D02*
X578731049Y-426172320D01*
X578635800Y-426315193D01*
X578540552Y-426410442D01*
X578445303Y-426458066D01*
X579635910Y-426172320D02*
X579731159Y-426172320D01*
X579826407Y-426219945D01*
X579874032Y-426267569D01*
X579921656Y-426362817D01*
X579969280Y-426553315D01*
X579969280Y-426791436D01*
X579921656Y-426981933D01*
X579874032Y-427077182D01*
X579826407Y-427124806D01*
X579731159Y-427172430D01*
X579635910Y-427172430D01*
X579540662Y-427124806D01*
X579493037Y-427077182D01*
X579445413Y-426981933D01*
X579397789Y-426791436D01*
X579397789Y-426553315D01*
X579445413Y-426362817D01*
X579493037Y-426267569D01*
X579540662Y-426219945D01*
X579635910Y-426172320D01*
%TO.C,LED9*%
X557680829Y-427172430D02*
X557204586Y-427172430D01*
X557204586Y-426172320D01*
X558014199Y-426648563D02*
X558347569Y-426648563D01*
X558490442Y-427172430D02*
X558014199Y-427172430D01*
X558014199Y-426172320D01*
X558490442Y-426172320D01*
X558919060Y-427172430D02*
X558919060Y-426172320D01*
X559157182Y-426172320D01*
X559300055Y-426219945D01*
X559395303Y-426315193D01*
X559442927Y-426410442D01*
X559490552Y-426600939D01*
X559490552Y-426743812D01*
X559442927Y-426934309D01*
X559395303Y-427029557D01*
X559300055Y-427124806D01*
X559157182Y-427172430D01*
X558919060Y-427172430D01*
X559966795Y-427172430D02*
X560157292Y-427172430D01*
X560252540Y-427124806D01*
X560300165Y-427077182D01*
X560395413Y-426934309D01*
X560443037Y-426743812D01*
X560443037Y-426362817D01*
X560395413Y-426267569D01*
X560347789Y-426219945D01*
X560252540Y-426172320D01*
X560062043Y-426172320D01*
X559966795Y-426219945D01*
X559919170Y-426267569D01*
X559871546Y-426362817D01*
X559871546Y-426600939D01*
X559919170Y-426696187D01*
X559966795Y-426743812D01*
X560062043Y-426791436D01*
X560252540Y-426791436D01*
X560347789Y-426743812D01*
X560395413Y-426696187D01*
X560443037Y-426600939D01*
%TO.C,LED8*%
X614830829Y-408122430D02*
X614354586Y-408122430D01*
X614354586Y-407122320D01*
X615164199Y-407598563D02*
X615497569Y-407598563D01*
X615640442Y-408122430D02*
X615164199Y-408122430D01*
X615164199Y-407122320D01*
X615640442Y-407122320D01*
X616069060Y-408122430D02*
X616069060Y-407122320D01*
X616307182Y-407122320D01*
X616450055Y-407169945D01*
X616545303Y-407265193D01*
X616592927Y-407360442D01*
X616640552Y-407550939D01*
X616640552Y-407693812D01*
X616592927Y-407884309D01*
X616545303Y-407979557D01*
X616450055Y-408074806D01*
X616307182Y-408122430D01*
X616069060Y-408122430D01*
X617212043Y-407550939D02*
X617116795Y-407503315D01*
X617069170Y-407455690D01*
X617021546Y-407360442D01*
X617021546Y-407312817D01*
X617069170Y-407217569D01*
X617116795Y-407169945D01*
X617212043Y-407122320D01*
X617402540Y-407122320D01*
X617497789Y-407169945D01*
X617545413Y-407217569D01*
X617593037Y-407312817D01*
X617593037Y-407360442D01*
X617545413Y-407455690D01*
X617497789Y-407503315D01*
X617402540Y-407550939D01*
X617212043Y-407550939D01*
X617116795Y-407598563D01*
X617069170Y-407646187D01*
X617021546Y-407741436D01*
X617021546Y-407931933D01*
X617069170Y-408027182D01*
X617116795Y-408074806D01*
X617212043Y-408122430D01*
X617402540Y-408122430D01*
X617497789Y-408074806D01*
X617545413Y-408027182D01*
X617593037Y-407931933D01*
X617593037Y-407741436D01*
X617545413Y-407646187D01*
X617497789Y-407598563D01*
X617402540Y-407550939D01*
%TO.C,LED7*%
X595780829Y-408122430D02*
X595304586Y-408122430D01*
X595304586Y-407122320D01*
X596114199Y-407598563D02*
X596447569Y-407598563D01*
X596590442Y-408122430D02*
X596114199Y-408122430D01*
X596114199Y-407122320D01*
X596590442Y-407122320D01*
X597019060Y-408122430D02*
X597019060Y-407122320D01*
X597257182Y-407122320D01*
X597400055Y-407169945D01*
X597495303Y-407265193D01*
X597542927Y-407360442D01*
X597590552Y-407550939D01*
X597590552Y-407693812D01*
X597542927Y-407884309D01*
X597495303Y-407979557D01*
X597400055Y-408074806D01*
X597257182Y-408122430D01*
X597019060Y-408122430D01*
X597923922Y-407122320D02*
X598590662Y-407122320D01*
X598162043Y-408122430D01*
%TO.C,LED6*%
X576730829Y-408122430D02*
X576254586Y-408122430D01*
X576254586Y-407122320D01*
X577064199Y-407598563D02*
X577397569Y-407598563D01*
X577540442Y-408122430D02*
X577064199Y-408122430D01*
X577064199Y-407122320D01*
X577540442Y-407122320D01*
X577969060Y-408122430D02*
X577969060Y-407122320D01*
X578207182Y-407122320D01*
X578350055Y-407169945D01*
X578445303Y-407265193D01*
X578492927Y-407360442D01*
X578540552Y-407550939D01*
X578540552Y-407693812D01*
X578492927Y-407884309D01*
X578445303Y-407979557D01*
X578350055Y-408074806D01*
X578207182Y-408122430D01*
X577969060Y-408122430D01*
X579397789Y-407122320D02*
X579207292Y-407122320D01*
X579112043Y-407169945D01*
X579064419Y-407217569D01*
X578969170Y-407360442D01*
X578921546Y-407550939D01*
X578921546Y-407931933D01*
X578969170Y-408027182D01*
X579016795Y-408074806D01*
X579112043Y-408122430D01*
X579302540Y-408122430D01*
X579397789Y-408074806D01*
X579445413Y-408027182D01*
X579493037Y-407931933D01*
X579493037Y-407693812D01*
X579445413Y-407598563D01*
X579397789Y-407550939D01*
X579302540Y-407503315D01*
X579112043Y-407503315D01*
X579016795Y-407550939D01*
X578969170Y-407598563D01*
X578921546Y-407693812D01*
%TO.C,LED5*%
X557680829Y-408122430D02*
X557204586Y-408122430D01*
X557204586Y-407122320D01*
X558014199Y-407598563D02*
X558347569Y-407598563D01*
X558490442Y-408122430D02*
X558014199Y-408122430D01*
X558014199Y-407122320D01*
X558490442Y-407122320D01*
X558919060Y-408122430D02*
X558919060Y-407122320D01*
X559157182Y-407122320D01*
X559300055Y-407169945D01*
X559395303Y-407265193D01*
X559442927Y-407360442D01*
X559490552Y-407550939D01*
X559490552Y-407693812D01*
X559442927Y-407884309D01*
X559395303Y-407979557D01*
X559300055Y-408074806D01*
X559157182Y-408122430D01*
X558919060Y-408122430D01*
X560395413Y-407122320D02*
X559919170Y-407122320D01*
X559871546Y-407598563D01*
X559919170Y-407550939D01*
X560014419Y-407503315D01*
X560252540Y-407503315D01*
X560347789Y-407550939D01*
X560395413Y-407598563D01*
X560443037Y-407693812D01*
X560443037Y-407931933D01*
X560395413Y-408027182D01*
X560347789Y-408074806D01*
X560252540Y-408122430D01*
X560014419Y-408122430D01*
X559919170Y-408074806D01*
X559871546Y-408027182D01*
%TO.C,LED4*%
X614830829Y-389072430D02*
X614354586Y-389072430D01*
X614354586Y-388072320D01*
X615164199Y-388548563D02*
X615497569Y-388548563D01*
X615640442Y-389072430D02*
X615164199Y-389072430D01*
X615164199Y-388072320D01*
X615640442Y-388072320D01*
X616069060Y-389072430D02*
X616069060Y-388072320D01*
X616307182Y-388072320D01*
X616450055Y-388119945D01*
X616545303Y-388215193D01*
X616592927Y-388310442D01*
X616640552Y-388500939D01*
X616640552Y-388643812D01*
X616592927Y-388834309D01*
X616545303Y-388929557D01*
X616450055Y-389024806D01*
X616307182Y-389072430D01*
X616069060Y-389072430D01*
X617497789Y-388405690D02*
X617497789Y-389072430D01*
X617259667Y-388024696D02*
X617021546Y-388739060D01*
X617640662Y-388739060D01*
%TO.C,LED3*%
X595780829Y-389072430D02*
X595304586Y-389072430D01*
X595304586Y-388072320D01*
X596114199Y-388548563D02*
X596447569Y-388548563D01*
X596590442Y-389072430D02*
X596114199Y-389072430D01*
X596114199Y-388072320D01*
X596590442Y-388072320D01*
X597019060Y-389072430D02*
X597019060Y-388072320D01*
X597257182Y-388072320D01*
X597400055Y-388119945D01*
X597495303Y-388215193D01*
X597542927Y-388310442D01*
X597590552Y-388500939D01*
X597590552Y-388643812D01*
X597542927Y-388834309D01*
X597495303Y-388929557D01*
X597400055Y-389024806D01*
X597257182Y-389072430D01*
X597019060Y-389072430D01*
X597923922Y-388072320D02*
X598543037Y-388072320D01*
X598209667Y-388453315D01*
X598352540Y-388453315D01*
X598447789Y-388500939D01*
X598495413Y-388548563D01*
X598543037Y-388643812D01*
X598543037Y-388881933D01*
X598495413Y-388977182D01*
X598447789Y-389024806D01*
X598352540Y-389072430D01*
X598066795Y-389072430D01*
X597971546Y-389024806D01*
X597923922Y-388977182D01*
%TO.C,LED2*%
X576730829Y-389072430D02*
X576254586Y-389072430D01*
X576254586Y-388072320D01*
X577064199Y-388548563D02*
X577397569Y-388548563D01*
X577540442Y-389072430D02*
X577064199Y-389072430D01*
X577064199Y-388072320D01*
X577540442Y-388072320D01*
X577969060Y-389072430D02*
X577969060Y-388072320D01*
X578207182Y-388072320D01*
X578350055Y-388119945D01*
X578445303Y-388215193D01*
X578492927Y-388310442D01*
X578540552Y-388500939D01*
X578540552Y-388643812D01*
X578492927Y-388834309D01*
X578445303Y-388929557D01*
X578350055Y-389024806D01*
X578207182Y-389072430D01*
X577969060Y-389072430D01*
X578921546Y-388167569D02*
X578969170Y-388119945D01*
X579064419Y-388072320D01*
X579302540Y-388072320D01*
X579397789Y-388119945D01*
X579445413Y-388167569D01*
X579493037Y-388262817D01*
X579493037Y-388358066D01*
X579445413Y-388500939D01*
X578873922Y-389072430D01*
X579493037Y-389072430D01*
%TO.C,LED1*%
X557680829Y-389072430D02*
X557204586Y-389072430D01*
X557204586Y-388072320D01*
X558014199Y-388548563D02*
X558347569Y-388548563D01*
X558490442Y-389072430D02*
X558014199Y-389072430D01*
X558014199Y-388072320D01*
X558490442Y-388072320D01*
X558919060Y-389072430D02*
X558919060Y-388072320D01*
X559157182Y-388072320D01*
X559300055Y-388119945D01*
X559395303Y-388215193D01*
X559442927Y-388310442D01*
X559490552Y-388500939D01*
X559490552Y-388643812D01*
X559442927Y-388834309D01*
X559395303Y-388929557D01*
X559300055Y-389024806D01*
X559157182Y-389072430D01*
X558919060Y-389072430D01*
X560443037Y-389072430D02*
X559871546Y-389072430D01*
X560157292Y-389072430D02*
X560157292Y-388072320D01*
X560062043Y-388215193D01*
X559966795Y-388310442D01*
X559871546Y-388358066D01*
%TO.C,SW16*%
X614140476Y-435125761D02*
X614283333Y-435173380D01*
X614521428Y-435173380D01*
X614616666Y-435125761D01*
X614664285Y-435078142D01*
X614711904Y-434982904D01*
X614711904Y-434887666D01*
X614664285Y-434792428D01*
X614616666Y-434744809D01*
X614521428Y-434697190D01*
X614330952Y-434649571D01*
X614235714Y-434601952D01*
X614188095Y-434554333D01*
X614140476Y-434459095D01*
X614140476Y-434363857D01*
X614188095Y-434268619D01*
X614235714Y-434221000D01*
X614330952Y-434173380D01*
X614569047Y-434173380D01*
X614711904Y-434221000D01*
X615045238Y-434173380D02*
X615283333Y-435173380D01*
X615473809Y-434459095D01*
X615664285Y-435173380D01*
X615902380Y-434173380D01*
X616807142Y-435173380D02*
X616235714Y-435173380D01*
X616521428Y-435173380D02*
X616521428Y-434173380D01*
X616426190Y-434316238D01*
X616330952Y-434411476D01*
X616235714Y-434459095D01*
X617664285Y-434173380D02*
X617473809Y-434173380D01*
X617378571Y-434221000D01*
X617330952Y-434268619D01*
X617235714Y-434411476D01*
X617188095Y-434601952D01*
X617188095Y-434982904D01*
X617235714Y-435078142D01*
X617283333Y-435125761D01*
X617378571Y-435173380D01*
X617569047Y-435173380D01*
X617664285Y-435125761D01*
X617711904Y-435078142D01*
X617759523Y-434982904D01*
X617759523Y-434744809D01*
X617711904Y-434649571D01*
X617664285Y-434601952D01*
X617569047Y-434554333D01*
X617378571Y-434554333D01*
X617283333Y-434601952D01*
X617235714Y-434649571D01*
X617188095Y-434744809D01*
%TO.C,SW15*%
X595090476Y-435125761D02*
X595233333Y-435173380D01*
X595471428Y-435173380D01*
X595566666Y-435125761D01*
X595614285Y-435078142D01*
X595661904Y-434982904D01*
X595661904Y-434887666D01*
X595614285Y-434792428D01*
X595566666Y-434744809D01*
X595471428Y-434697190D01*
X595280952Y-434649571D01*
X595185714Y-434601952D01*
X595138095Y-434554333D01*
X595090476Y-434459095D01*
X595090476Y-434363857D01*
X595138095Y-434268619D01*
X595185714Y-434221000D01*
X595280952Y-434173380D01*
X595519047Y-434173380D01*
X595661904Y-434221000D01*
X595995238Y-434173380D02*
X596233333Y-435173380D01*
X596423809Y-434459095D01*
X596614285Y-435173380D01*
X596852380Y-434173380D01*
X597757142Y-435173380D02*
X597185714Y-435173380D01*
X597471428Y-435173380D02*
X597471428Y-434173380D01*
X597376190Y-434316238D01*
X597280952Y-434411476D01*
X597185714Y-434459095D01*
X598661904Y-434173380D02*
X598185714Y-434173380D01*
X598138095Y-434649571D01*
X598185714Y-434601952D01*
X598280952Y-434554333D01*
X598519047Y-434554333D01*
X598614285Y-434601952D01*
X598661904Y-434649571D01*
X598709523Y-434744809D01*
X598709523Y-434982904D01*
X598661904Y-435078142D01*
X598614285Y-435125761D01*
X598519047Y-435173380D01*
X598280952Y-435173380D01*
X598185714Y-435125761D01*
X598138095Y-435078142D01*
%TO.C,SW14*%
X576040476Y-435125761D02*
X576183333Y-435173380D01*
X576421428Y-435173380D01*
X576516666Y-435125761D01*
X576564285Y-435078142D01*
X576611904Y-434982904D01*
X576611904Y-434887666D01*
X576564285Y-434792428D01*
X576516666Y-434744809D01*
X576421428Y-434697190D01*
X576230952Y-434649571D01*
X576135714Y-434601952D01*
X576088095Y-434554333D01*
X576040476Y-434459095D01*
X576040476Y-434363857D01*
X576088095Y-434268619D01*
X576135714Y-434221000D01*
X576230952Y-434173380D01*
X576469047Y-434173380D01*
X576611904Y-434221000D01*
X576945238Y-434173380D02*
X577183333Y-435173380D01*
X577373809Y-434459095D01*
X577564285Y-435173380D01*
X577802380Y-434173380D01*
X578707142Y-435173380D02*
X578135714Y-435173380D01*
X578421428Y-435173380D02*
X578421428Y-434173380D01*
X578326190Y-434316238D01*
X578230952Y-434411476D01*
X578135714Y-434459095D01*
X579564285Y-434506714D02*
X579564285Y-435173380D01*
X579326190Y-434125761D02*
X579088095Y-434840047D01*
X579707142Y-434840047D01*
%TO.C,SW13*%
X556990476Y-435125761D02*
X557133333Y-435173380D01*
X557371428Y-435173380D01*
X557466666Y-435125761D01*
X557514285Y-435078142D01*
X557561904Y-434982904D01*
X557561904Y-434887666D01*
X557514285Y-434792428D01*
X557466666Y-434744809D01*
X557371428Y-434697190D01*
X557180952Y-434649571D01*
X557085714Y-434601952D01*
X557038095Y-434554333D01*
X556990476Y-434459095D01*
X556990476Y-434363857D01*
X557038095Y-434268619D01*
X557085714Y-434221000D01*
X557180952Y-434173380D01*
X557419047Y-434173380D01*
X557561904Y-434221000D01*
X557895238Y-434173380D02*
X558133333Y-435173380D01*
X558323809Y-434459095D01*
X558514285Y-435173380D01*
X558752380Y-434173380D01*
X559657142Y-435173380D02*
X559085714Y-435173380D01*
X559371428Y-435173380D02*
X559371428Y-434173380D01*
X559276190Y-434316238D01*
X559180952Y-434411476D01*
X559085714Y-434459095D01*
X559990476Y-434173380D02*
X560609523Y-434173380D01*
X560276190Y-434554333D01*
X560419047Y-434554333D01*
X560514285Y-434601952D01*
X560561904Y-434649571D01*
X560609523Y-434744809D01*
X560609523Y-434982904D01*
X560561904Y-435078142D01*
X560514285Y-435125761D01*
X560419047Y-435173380D01*
X560133333Y-435173380D01*
X560038095Y-435125761D01*
X559990476Y-435078142D01*
%TO.C,SW12*%
X614140476Y-416075761D02*
X614283333Y-416123380D01*
X614521428Y-416123380D01*
X614616666Y-416075761D01*
X614664285Y-416028142D01*
X614711904Y-415932904D01*
X614711904Y-415837666D01*
X614664285Y-415742428D01*
X614616666Y-415694809D01*
X614521428Y-415647190D01*
X614330952Y-415599571D01*
X614235714Y-415551952D01*
X614188095Y-415504333D01*
X614140476Y-415409095D01*
X614140476Y-415313857D01*
X614188095Y-415218619D01*
X614235714Y-415171000D01*
X614330952Y-415123380D01*
X614569047Y-415123380D01*
X614711904Y-415171000D01*
X615045238Y-415123380D02*
X615283333Y-416123380D01*
X615473809Y-415409095D01*
X615664285Y-416123380D01*
X615902380Y-415123380D01*
X616807142Y-416123380D02*
X616235714Y-416123380D01*
X616521428Y-416123380D02*
X616521428Y-415123380D01*
X616426190Y-415266238D01*
X616330952Y-415361476D01*
X616235714Y-415409095D01*
X617188095Y-415218619D02*
X617235714Y-415171000D01*
X617330952Y-415123380D01*
X617569047Y-415123380D01*
X617664285Y-415171000D01*
X617711904Y-415218619D01*
X617759523Y-415313857D01*
X617759523Y-415409095D01*
X617711904Y-415551952D01*
X617140476Y-416123380D01*
X617759523Y-416123380D01*
%TO.C,SW11*%
X595090476Y-416075761D02*
X595233333Y-416123380D01*
X595471428Y-416123380D01*
X595566666Y-416075761D01*
X595614285Y-416028142D01*
X595661904Y-415932904D01*
X595661904Y-415837666D01*
X595614285Y-415742428D01*
X595566666Y-415694809D01*
X595471428Y-415647190D01*
X595280952Y-415599571D01*
X595185714Y-415551952D01*
X595138095Y-415504333D01*
X595090476Y-415409095D01*
X595090476Y-415313857D01*
X595138095Y-415218619D01*
X595185714Y-415171000D01*
X595280952Y-415123380D01*
X595519047Y-415123380D01*
X595661904Y-415171000D01*
X595995238Y-415123380D02*
X596233333Y-416123380D01*
X596423809Y-415409095D01*
X596614285Y-416123380D01*
X596852380Y-415123380D01*
X597757142Y-416123380D02*
X597185714Y-416123380D01*
X597471428Y-416123380D02*
X597471428Y-415123380D01*
X597376190Y-415266238D01*
X597280952Y-415361476D01*
X597185714Y-415409095D01*
X598709523Y-416123380D02*
X598138095Y-416123380D01*
X598423809Y-416123380D02*
X598423809Y-415123380D01*
X598328571Y-415266238D01*
X598233333Y-415361476D01*
X598138095Y-415409095D01*
%TO.C,SW10*%
X576040476Y-416075761D02*
X576183333Y-416123380D01*
X576421428Y-416123380D01*
X576516666Y-416075761D01*
X576564285Y-416028142D01*
X576611904Y-415932904D01*
X576611904Y-415837666D01*
X576564285Y-415742428D01*
X576516666Y-415694809D01*
X576421428Y-415647190D01*
X576230952Y-415599571D01*
X576135714Y-415551952D01*
X576088095Y-415504333D01*
X576040476Y-415409095D01*
X576040476Y-415313857D01*
X576088095Y-415218619D01*
X576135714Y-415171000D01*
X576230952Y-415123380D01*
X576469047Y-415123380D01*
X576611904Y-415171000D01*
X576945238Y-415123380D02*
X577183333Y-416123380D01*
X577373809Y-415409095D01*
X577564285Y-416123380D01*
X577802380Y-415123380D01*
X578707142Y-416123380D02*
X578135714Y-416123380D01*
X578421428Y-416123380D02*
X578421428Y-415123380D01*
X578326190Y-415266238D01*
X578230952Y-415361476D01*
X578135714Y-415409095D01*
X579326190Y-415123380D02*
X579421428Y-415123380D01*
X579516666Y-415171000D01*
X579564285Y-415218619D01*
X579611904Y-415313857D01*
X579659523Y-415504333D01*
X579659523Y-415742428D01*
X579611904Y-415932904D01*
X579564285Y-416028142D01*
X579516666Y-416075761D01*
X579421428Y-416123380D01*
X579326190Y-416123380D01*
X579230952Y-416075761D01*
X579183333Y-416028142D01*
X579135714Y-415932904D01*
X579088095Y-415742428D01*
X579088095Y-415504333D01*
X579135714Y-415313857D01*
X579183333Y-415218619D01*
X579230952Y-415171000D01*
X579326190Y-415123380D01*
%TO.C,SW9*%
X557466666Y-416075761D02*
X557609523Y-416123380D01*
X557847619Y-416123380D01*
X557942857Y-416075761D01*
X557990476Y-416028142D01*
X558038095Y-415932904D01*
X558038095Y-415837666D01*
X557990476Y-415742428D01*
X557942857Y-415694809D01*
X557847619Y-415647190D01*
X557657142Y-415599571D01*
X557561904Y-415551952D01*
X557514285Y-415504333D01*
X557466666Y-415409095D01*
X557466666Y-415313857D01*
X557514285Y-415218619D01*
X557561904Y-415171000D01*
X557657142Y-415123380D01*
X557895238Y-415123380D01*
X558038095Y-415171000D01*
X558371428Y-415123380D02*
X558609523Y-416123380D01*
X558800000Y-415409095D01*
X558990476Y-416123380D01*
X559228571Y-415123380D01*
X559657142Y-416123380D02*
X559847619Y-416123380D01*
X559942857Y-416075761D01*
X559990476Y-416028142D01*
X560085714Y-415885285D01*
X560133333Y-415694809D01*
X560133333Y-415313857D01*
X560085714Y-415218619D01*
X560038095Y-415171000D01*
X559942857Y-415123380D01*
X559752380Y-415123380D01*
X559657142Y-415171000D01*
X559609523Y-415218619D01*
X559561904Y-415313857D01*
X559561904Y-415551952D01*
X559609523Y-415647190D01*
X559657142Y-415694809D01*
X559752380Y-415742428D01*
X559942857Y-415742428D01*
X560038095Y-415694809D01*
X560085714Y-415647190D01*
X560133333Y-415551952D01*
%TO.C,SW8*%
X614616666Y-397025761D02*
X614759523Y-397073380D01*
X614997619Y-397073380D01*
X615092857Y-397025761D01*
X615140476Y-396978142D01*
X615188095Y-396882904D01*
X615188095Y-396787666D01*
X615140476Y-396692428D01*
X615092857Y-396644809D01*
X614997619Y-396597190D01*
X614807142Y-396549571D01*
X614711904Y-396501952D01*
X614664285Y-396454333D01*
X614616666Y-396359095D01*
X614616666Y-396263857D01*
X614664285Y-396168619D01*
X614711904Y-396121000D01*
X614807142Y-396073380D01*
X615045238Y-396073380D01*
X615188095Y-396121000D01*
X615521428Y-396073380D02*
X615759523Y-397073380D01*
X615950000Y-396359095D01*
X616140476Y-397073380D01*
X616378571Y-396073380D01*
X616902380Y-396501952D02*
X616807142Y-396454333D01*
X616759523Y-396406714D01*
X616711904Y-396311476D01*
X616711904Y-396263857D01*
X616759523Y-396168619D01*
X616807142Y-396121000D01*
X616902380Y-396073380D01*
X617092857Y-396073380D01*
X617188095Y-396121000D01*
X617235714Y-396168619D01*
X617283333Y-396263857D01*
X617283333Y-396311476D01*
X617235714Y-396406714D01*
X617188095Y-396454333D01*
X617092857Y-396501952D01*
X616902380Y-396501952D01*
X616807142Y-396549571D01*
X616759523Y-396597190D01*
X616711904Y-396692428D01*
X616711904Y-396882904D01*
X616759523Y-396978142D01*
X616807142Y-397025761D01*
X616902380Y-397073380D01*
X617092857Y-397073380D01*
X617188095Y-397025761D01*
X617235714Y-396978142D01*
X617283333Y-396882904D01*
X617283333Y-396692428D01*
X617235714Y-396597190D01*
X617188095Y-396549571D01*
X617092857Y-396501952D01*
%TO.C,SW7*%
X595566666Y-397025761D02*
X595709523Y-397073380D01*
X595947619Y-397073380D01*
X596042857Y-397025761D01*
X596090476Y-396978142D01*
X596138095Y-396882904D01*
X596138095Y-396787666D01*
X596090476Y-396692428D01*
X596042857Y-396644809D01*
X595947619Y-396597190D01*
X595757142Y-396549571D01*
X595661904Y-396501952D01*
X595614285Y-396454333D01*
X595566666Y-396359095D01*
X595566666Y-396263857D01*
X595614285Y-396168619D01*
X595661904Y-396121000D01*
X595757142Y-396073380D01*
X595995238Y-396073380D01*
X596138095Y-396121000D01*
X596471428Y-396073380D02*
X596709523Y-397073380D01*
X596900000Y-396359095D01*
X597090476Y-397073380D01*
X597328571Y-396073380D01*
X597614285Y-396073380D02*
X598280952Y-396073380D01*
X597852380Y-397073380D01*
%TO.C,SW6*%
X576516666Y-397025761D02*
X576659523Y-397073380D01*
X576897619Y-397073380D01*
X576992857Y-397025761D01*
X577040476Y-396978142D01*
X577088095Y-396882904D01*
X577088095Y-396787666D01*
X577040476Y-396692428D01*
X576992857Y-396644809D01*
X576897619Y-396597190D01*
X576707142Y-396549571D01*
X576611904Y-396501952D01*
X576564285Y-396454333D01*
X576516666Y-396359095D01*
X576516666Y-396263857D01*
X576564285Y-396168619D01*
X576611904Y-396121000D01*
X576707142Y-396073380D01*
X576945238Y-396073380D01*
X577088095Y-396121000D01*
X577421428Y-396073380D02*
X577659523Y-397073380D01*
X577850000Y-396359095D01*
X578040476Y-397073380D01*
X578278571Y-396073380D01*
X579088095Y-396073380D02*
X578897619Y-396073380D01*
X578802380Y-396121000D01*
X578754761Y-396168619D01*
X578659523Y-396311476D01*
X578611904Y-396501952D01*
X578611904Y-396882904D01*
X578659523Y-396978142D01*
X578707142Y-397025761D01*
X578802380Y-397073380D01*
X578992857Y-397073380D01*
X579088095Y-397025761D01*
X579135714Y-396978142D01*
X579183333Y-396882904D01*
X579183333Y-396644809D01*
X579135714Y-396549571D01*
X579088095Y-396501952D01*
X578992857Y-396454333D01*
X578802380Y-396454333D01*
X578707142Y-396501952D01*
X578659523Y-396549571D01*
X578611904Y-396644809D01*
%TO.C,SW5*%
X557466666Y-397025761D02*
X557609523Y-397073380D01*
X557847619Y-397073380D01*
X557942857Y-397025761D01*
X557990476Y-396978142D01*
X558038095Y-396882904D01*
X558038095Y-396787666D01*
X557990476Y-396692428D01*
X557942857Y-396644809D01*
X557847619Y-396597190D01*
X557657142Y-396549571D01*
X557561904Y-396501952D01*
X557514285Y-396454333D01*
X557466666Y-396359095D01*
X557466666Y-396263857D01*
X557514285Y-396168619D01*
X557561904Y-396121000D01*
X557657142Y-396073380D01*
X557895238Y-396073380D01*
X558038095Y-396121000D01*
X558371428Y-396073380D02*
X558609523Y-397073380D01*
X558800000Y-396359095D01*
X558990476Y-397073380D01*
X559228571Y-396073380D01*
X560085714Y-396073380D02*
X559609523Y-396073380D01*
X559561904Y-396549571D01*
X559609523Y-396501952D01*
X559704761Y-396454333D01*
X559942857Y-396454333D01*
X560038095Y-396501952D01*
X560085714Y-396549571D01*
X560133333Y-396644809D01*
X560133333Y-396882904D01*
X560085714Y-396978142D01*
X560038095Y-397025761D01*
X559942857Y-397073380D01*
X559704761Y-397073380D01*
X559609523Y-397025761D01*
X559561904Y-396978142D01*
%TO.C,SW4*%
X614616666Y-377975761D02*
X614759523Y-378023380D01*
X614997619Y-378023380D01*
X615092857Y-377975761D01*
X615140476Y-377928142D01*
X615188095Y-377832904D01*
X615188095Y-377737666D01*
X615140476Y-377642428D01*
X615092857Y-377594809D01*
X614997619Y-377547190D01*
X614807142Y-377499571D01*
X614711904Y-377451952D01*
X614664285Y-377404333D01*
X614616666Y-377309095D01*
X614616666Y-377213857D01*
X614664285Y-377118619D01*
X614711904Y-377071000D01*
X614807142Y-377023380D01*
X615045238Y-377023380D01*
X615188095Y-377071000D01*
X615521428Y-377023380D02*
X615759523Y-378023380D01*
X615950000Y-377309095D01*
X616140476Y-378023380D01*
X616378571Y-377023380D01*
X617188095Y-377356714D02*
X617188095Y-378023380D01*
X616950000Y-376975761D02*
X616711904Y-377690047D01*
X617330952Y-377690047D01*
%TO.C,SW3*%
X595566666Y-377975761D02*
X595709523Y-378023380D01*
X595947619Y-378023380D01*
X596042857Y-377975761D01*
X596090476Y-377928142D01*
X596138095Y-377832904D01*
X596138095Y-377737666D01*
X596090476Y-377642428D01*
X596042857Y-377594809D01*
X595947619Y-377547190D01*
X595757142Y-377499571D01*
X595661904Y-377451952D01*
X595614285Y-377404333D01*
X595566666Y-377309095D01*
X595566666Y-377213857D01*
X595614285Y-377118619D01*
X595661904Y-377071000D01*
X595757142Y-377023380D01*
X595995238Y-377023380D01*
X596138095Y-377071000D01*
X596471428Y-377023380D02*
X596709523Y-378023380D01*
X596900000Y-377309095D01*
X597090476Y-378023380D01*
X597328571Y-377023380D01*
X597614285Y-377023380D02*
X598233333Y-377023380D01*
X597900000Y-377404333D01*
X598042857Y-377404333D01*
X598138095Y-377451952D01*
X598185714Y-377499571D01*
X598233333Y-377594809D01*
X598233333Y-377832904D01*
X598185714Y-377928142D01*
X598138095Y-377975761D01*
X598042857Y-378023380D01*
X597757142Y-378023380D01*
X597661904Y-377975761D01*
X597614285Y-377928142D01*
%TO.C,SW2*%
X576516666Y-377975761D02*
X576659523Y-378023380D01*
X576897619Y-378023380D01*
X576992857Y-377975761D01*
X577040476Y-377928142D01*
X577088095Y-377832904D01*
X577088095Y-377737666D01*
X577040476Y-377642428D01*
X576992857Y-377594809D01*
X576897619Y-377547190D01*
X576707142Y-377499571D01*
X576611904Y-377451952D01*
X576564285Y-377404333D01*
X576516666Y-377309095D01*
X576516666Y-377213857D01*
X576564285Y-377118619D01*
X576611904Y-377071000D01*
X576707142Y-377023380D01*
X576945238Y-377023380D01*
X577088095Y-377071000D01*
X577421428Y-377023380D02*
X577659523Y-378023380D01*
X577850000Y-377309095D01*
X578040476Y-378023380D01*
X578278571Y-377023380D01*
X578611904Y-377118619D02*
X578659523Y-377071000D01*
X578754761Y-377023380D01*
X578992857Y-377023380D01*
X579088095Y-377071000D01*
X579135714Y-377118619D01*
X579183333Y-377213857D01*
X579183333Y-377309095D01*
X579135714Y-377451952D01*
X578564285Y-378023380D01*
X579183333Y-378023380D01*
%TO.C,SW1*%
X557466666Y-377975761D02*
X557609523Y-378023380D01*
X557847619Y-378023380D01*
X557942857Y-377975761D01*
X557990476Y-377928142D01*
X558038095Y-377832904D01*
X558038095Y-377737666D01*
X557990476Y-377642428D01*
X557942857Y-377594809D01*
X557847619Y-377547190D01*
X557657142Y-377499571D01*
X557561904Y-377451952D01*
X557514285Y-377404333D01*
X557466666Y-377309095D01*
X557466666Y-377213857D01*
X557514285Y-377118619D01*
X557561904Y-377071000D01*
X557657142Y-377023380D01*
X557895238Y-377023380D01*
X558038095Y-377071000D01*
X558371428Y-377023380D02*
X558609523Y-378023380D01*
X558800000Y-377309095D01*
X558990476Y-378023380D01*
X559228571Y-377023380D01*
X560133333Y-378023380D02*
X559561904Y-378023380D01*
X559847619Y-378023380D02*
X559847619Y-377023380D01*
X559752380Y-377166238D01*
X559657142Y-377261476D01*
X559561904Y-377309095D01*
%TO.C,R1*%
X549854380Y-377610666D02*
X549378190Y-377944000D01*
X549854380Y-378182095D02*
X548854380Y-378182095D01*
X548854380Y-377801142D01*
X548902000Y-377705904D01*
X548949619Y-377658285D01*
X549044857Y-377610666D01*
X549187714Y-377610666D01*
X549282952Y-377658285D01*
X549330571Y-377705904D01*
X549378190Y-377801142D01*
X549378190Y-378182095D01*
X549854380Y-376658285D02*
X549854380Y-377229714D01*
X549854380Y-376944000D02*
X548854380Y-376944000D01*
X548997238Y-377039238D01*
X549092476Y-377134476D01*
X549140095Y-377229714D01*
%TO.C,Disp1*%
X578645566Y-344990680D02*
X578645566Y-343990680D01*
X578883661Y-343990680D01*
X579026519Y-344038300D01*
X579121757Y-344133538D01*
X579169376Y-344228776D01*
X579216995Y-344419252D01*
X579216995Y-344562109D01*
X579169376Y-344752585D01*
X579121757Y-344847823D01*
X579026519Y-344943061D01*
X578883661Y-344990680D01*
X578645566Y-344990680D01*
X579645566Y-344990680D02*
X579645566Y-344324014D01*
X579645566Y-343990680D02*
X579597947Y-344038300D01*
X579645566Y-344085919D01*
X579693185Y-344038300D01*
X579645566Y-343990680D01*
X579645566Y-344085919D01*
X580074138Y-344943061D02*
X580169376Y-344990680D01*
X580359852Y-344990680D01*
X580455090Y-344943061D01*
X580502709Y-344847823D01*
X580502709Y-344800204D01*
X580455090Y-344704966D01*
X580359852Y-344657347D01*
X580216995Y-344657347D01*
X580121757Y-344609728D01*
X580074138Y-344514490D01*
X580074138Y-344466871D01*
X580121757Y-344371633D01*
X580216995Y-344324014D01*
X580359852Y-344324014D01*
X580455090Y-344371633D01*
X580931280Y-344324014D02*
X580931280Y-345324014D01*
X580931280Y-344371633D02*
X581026519Y-344324014D01*
X581216995Y-344324014D01*
X581312233Y-344371633D01*
X581359852Y-344419252D01*
X581407471Y-344514490D01*
X581407471Y-344800204D01*
X581359852Y-344895442D01*
X581312233Y-344943061D01*
X581216995Y-344990680D01*
X581026519Y-344990680D01*
X580931280Y-344943061D01*
X582359852Y-344990680D02*
X581788423Y-344990680D01*
X582074138Y-344990680D02*
X582074138Y-343990680D01*
X581978900Y-344133538D01*
X581883661Y-344228776D01*
X581788423Y-344276395D01*
%TO.C,C18*%
X604893142Y-363069142D02*
X604845523Y-363116761D01*
X604702666Y-363164380D01*
X604607428Y-363164380D01*
X604464571Y-363116761D01*
X604369333Y-363021523D01*
X604321714Y-362926285D01*
X604274095Y-362735809D01*
X604274095Y-362592952D01*
X604321714Y-362402476D01*
X604369333Y-362307238D01*
X604464571Y-362212000D01*
X604607428Y-362164380D01*
X604702666Y-362164380D01*
X604845523Y-362212000D01*
X604893142Y-362259619D01*
X605845523Y-363164380D02*
X605274095Y-363164380D01*
X605559809Y-363164380D02*
X605559809Y-362164380D01*
X605464571Y-362307238D01*
X605369333Y-362402476D01*
X605274095Y-362450095D01*
X606416952Y-362592952D02*
X606321714Y-362545333D01*
X606274095Y-362497714D01*
X606226476Y-362402476D01*
X606226476Y-362354857D01*
X606274095Y-362259619D01*
X606321714Y-362212000D01*
X606416952Y-362164380D01*
X606607428Y-362164380D01*
X606702666Y-362212000D01*
X606750285Y-362259619D01*
X606797904Y-362354857D01*
X606797904Y-362402476D01*
X606750285Y-362497714D01*
X606702666Y-362545333D01*
X606607428Y-362592952D01*
X606416952Y-362592952D01*
X606321714Y-362640571D01*
X606274095Y-362688190D01*
X606226476Y-362783428D01*
X606226476Y-362973904D01*
X606274095Y-363069142D01*
X606321714Y-363116761D01*
X606416952Y-363164380D01*
X606607428Y-363164380D01*
X606702666Y-363116761D01*
X606750285Y-363069142D01*
X606797904Y-362973904D01*
X606797904Y-362783428D01*
X606750285Y-362688190D01*
X606702666Y-362640571D01*
X606607428Y-362592952D01*
%TO.C,C17*%
X616196142Y-363197142D02*
X616148523Y-363244761D01*
X616005666Y-363292380D01*
X615910428Y-363292380D01*
X615767571Y-363244761D01*
X615672333Y-363149523D01*
X615624714Y-363054285D01*
X615577095Y-362863809D01*
X615577095Y-362720952D01*
X615624714Y-362530476D01*
X615672333Y-362435238D01*
X615767571Y-362340000D01*
X615910428Y-362292380D01*
X616005666Y-362292380D01*
X616148523Y-362340000D01*
X616196142Y-362387619D01*
X617148523Y-363292380D02*
X616577095Y-363292380D01*
X616862809Y-363292380D02*
X616862809Y-362292380D01*
X616767571Y-362435238D01*
X616672333Y-362530476D01*
X616577095Y-362578095D01*
X617481857Y-362292380D02*
X618148523Y-362292380D01*
X617719952Y-363292380D01*
%TO.C,C16*%
X613148142Y-451842142D02*
X613100523Y-451889761D01*
X612957666Y-451937380D01*
X612862428Y-451937380D01*
X612719571Y-451889761D01*
X612624333Y-451794523D01*
X612576714Y-451699285D01*
X612529095Y-451508809D01*
X612529095Y-451365952D01*
X612576714Y-451175476D01*
X612624333Y-451080238D01*
X612719571Y-450985000D01*
X612862428Y-450937380D01*
X612957666Y-450937380D01*
X613100523Y-450985000D01*
X613148142Y-451032619D01*
X614100523Y-451937380D02*
X613529095Y-451937380D01*
X613814809Y-451937380D02*
X613814809Y-450937380D01*
X613719571Y-451080238D01*
X613624333Y-451175476D01*
X613529095Y-451223095D01*
X614957666Y-450937380D02*
X614767190Y-450937380D01*
X614671952Y-450985000D01*
X614624333Y-451032619D01*
X614529095Y-451175476D01*
X614481476Y-451365952D01*
X614481476Y-451746904D01*
X614529095Y-451842142D01*
X614576714Y-451889761D01*
X614671952Y-451937380D01*
X614862428Y-451937380D01*
X614957666Y-451889761D01*
X615005285Y-451842142D01*
X615052904Y-451746904D01*
X615052904Y-451508809D01*
X615005285Y-451413571D01*
X614957666Y-451365952D01*
X614862428Y-451318333D01*
X614671952Y-451318333D01*
X614576714Y-451365952D01*
X614529095Y-451413571D01*
X614481476Y-451508809D01*
%TO.C,C15*%
X593971142Y-451842142D02*
X593923523Y-451889761D01*
X593780666Y-451937380D01*
X593685428Y-451937380D01*
X593542571Y-451889761D01*
X593447333Y-451794523D01*
X593399714Y-451699285D01*
X593352095Y-451508809D01*
X593352095Y-451365952D01*
X593399714Y-451175476D01*
X593447333Y-451080238D01*
X593542571Y-450985000D01*
X593685428Y-450937380D01*
X593780666Y-450937380D01*
X593923523Y-450985000D01*
X593971142Y-451032619D01*
X594923523Y-451937380D02*
X594352095Y-451937380D01*
X594637809Y-451937380D02*
X594637809Y-450937380D01*
X594542571Y-451080238D01*
X594447333Y-451175476D01*
X594352095Y-451223095D01*
X595828285Y-450937380D02*
X595352095Y-450937380D01*
X595304476Y-451413571D01*
X595352095Y-451365952D01*
X595447333Y-451318333D01*
X595685428Y-451318333D01*
X595780666Y-451365952D01*
X595828285Y-451413571D01*
X595875904Y-451508809D01*
X595875904Y-451746904D01*
X595828285Y-451842142D01*
X595780666Y-451889761D01*
X595685428Y-451937380D01*
X595447333Y-451937380D01*
X595352095Y-451889761D01*
X595304476Y-451842142D01*
%TO.C,C14*%
X575048142Y-451842142D02*
X575000523Y-451889761D01*
X574857666Y-451937380D01*
X574762428Y-451937380D01*
X574619571Y-451889761D01*
X574524333Y-451794523D01*
X574476714Y-451699285D01*
X574429095Y-451508809D01*
X574429095Y-451365952D01*
X574476714Y-451175476D01*
X574524333Y-451080238D01*
X574619571Y-450985000D01*
X574762428Y-450937380D01*
X574857666Y-450937380D01*
X575000523Y-450985000D01*
X575048142Y-451032619D01*
X576000523Y-451937380D02*
X575429095Y-451937380D01*
X575714809Y-451937380D02*
X575714809Y-450937380D01*
X575619571Y-451080238D01*
X575524333Y-451175476D01*
X575429095Y-451223095D01*
X576857666Y-451270714D02*
X576857666Y-451937380D01*
X576619571Y-450889761D02*
X576381476Y-451604047D01*
X577000523Y-451604047D01*
%TO.C,C13*%
X555871142Y-451842142D02*
X555823523Y-451889761D01*
X555680666Y-451937380D01*
X555585428Y-451937380D01*
X555442571Y-451889761D01*
X555347333Y-451794523D01*
X555299714Y-451699285D01*
X555252095Y-451508809D01*
X555252095Y-451365952D01*
X555299714Y-451175476D01*
X555347333Y-451080238D01*
X555442571Y-450985000D01*
X555585428Y-450937380D01*
X555680666Y-450937380D01*
X555823523Y-450985000D01*
X555871142Y-451032619D01*
X556823523Y-451937380D02*
X556252095Y-451937380D01*
X556537809Y-451937380D02*
X556537809Y-450937380D01*
X556442571Y-451080238D01*
X556347333Y-451175476D01*
X556252095Y-451223095D01*
X557156857Y-450937380D02*
X557775904Y-450937380D01*
X557442571Y-451318333D01*
X557585428Y-451318333D01*
X557680666Y-451365952D01*
X557728285Y-451413571D01*
X557775904Y-451508809D01*
X557775904Y-451746904D01*
X557728285Y-451842142D01*
X557680666Y-451889761D01*
X557585428Y-451937380D01*
X557299714Y-451937380D01*
X557204476Y-451889761D01*
X557156857Y-451842142D01*
%TO.C,C12*%
X609946642Y-434222142D02*
X609899023Y-434269761D01*
X609756166Y-434317380D01*
X609660928Y-434317380D01*
X609518071Y-434269761D01*
X609422833Y-434174523D01*
X609375214Y-434079285D01*
X609327595Y-433888809D01*
X609327595Y-433745952D01*
X609375214Y-433555476D01*
X609422833Y-433460238D01*
X609518071Y-433365000D01*
X609660928Y-433317380D01*
X609756166Y-433317380D01*
X609899023Y-433365000D01*
X609946642Y-433412619D01*
X610899023Y-434317380D02*
X610327595Y-434317380D01*
X610613309Y-434317380D02*
X610613309Y-433317380D01*
X610518071Y-433460238D01*
X610422833Y-433555476D01*
X610327595Y-433603095D01*
X611279976Y-433412619D02*
X611327595Y-433365000D01*
X611422833Y-433317380D01*
X611660928Y-433317380D01*
X611756166Y-433365000D01*
X611803785Y-433412619D01*
X611851404Y-433507857D01*
X611851404Y-433603095D01*
X611803785Y-433745952D01*
X611232357Y-434317380D01*
X611851404Y-434317380D01*
%TO.C,C11*%
X590896642Y-434222142D02*
X590849023Y-434269761D01*
X590706166Y-434317380D01*
X590610928Y-434317380D01*
X590468071Y-434269761D01*
X590372833Y-434174523D01*
X590325214Y-434079285D01*
X590277595Y-433888809D01*
X590277595Y-433745952D01*
X590325214Y-433555476D01*
X590372833Y-433460238D01*
X590468071Y-433365000D01*
X590610928Y-433317380D01*
X590706166Y-433317380D01*
X590849023Y-433365000D01*
X590896642Y-433412619D01*
X591849023Y-434317380D02*
X591277595Y-434317380D01*
X591563309Y-434317380D02*
X591563309Y-433317380D01*
X591468071Y-433460238D01*
X591372833Y-433555476D01*
X591277595Y-433603095D01*
X592801404Y-434317380D02*
X592229976Y-434317380D01*
X592515690Y-434317380D02*
X592515690Y-433317380D01*
X592420452Y-433460238D01*
X592325214Y-433555476D01*
X592229976Y-433603095D01*
%TO.C,C10*%
X571899642Y-434222142D02*
X571852023Y-434269761D01*
X571709166Y-434317380D01*
X571613928Y-434317380D01*
X571471071Y-434269761D01*
X571375833Y-434174523D01*
X571328214Y-434079285D01*
X571280595Y-433888809D01*
X571280595Y-433745952D01*
X571328214Y-433555476D01*
X571375833Y-433460238D01*
X571471071Y-433365000D01*
X571613928Y-433317380D01*
X571709166Y-433317380D01*
X571852023Y-433365000D01*
X571899642Y-433412619D01*
X572852023Y-434317380D02*
X572280595Y-434317380D01*
X572566309Y-434317380D02*
X572566309Y-433317380D01*
X572471071Y-433460238D01*
X572375833Y-433555476D01*
X572280595Y-433603095D01*
X573471071Y-433317380D02*
X573566309Y-433317380D01*
X573661547Y-433365000D01*
X573709166Y-433412619D01*
X573756785Y-433507857D01*
X573804404Y-433698333D01*
X573804404Y-433936428D01*
X573756785Y-434126904D01*
X573709166Y-434222142D01*
X573661547Y-434269761D01*
X573566309Y-434317380D01*
X573471071Y-434317380D01*
X573375833Y-434269761D01*
X573328214Y-434222142D01*
X573280595Y-434126904D01*
X573232976Y-433936428D01*
X573232976Y-433698333D01*
X573280595Y-433507857D01*
X573328214Y-433412619D01*
X573375833Y-433365000D01*
X573471071Y-433317380D01*
%TO.C,C9*%
X553325833Y-434222142D02*
X553278214Y-434269761D01*
X553135357Y-434317380D01*
X553040119Y-434317380D01*
X552897261Y-434269761D01*
X552802023Y-434174523D01*
X552754404Y-434079285D01*
X552706785Y-433888809D01*
X552706785Y-433745952D01*
X552754404Y-433555476D01*
X552802023Y-433460238D01*
X552897261Y-433365000D01*
X553040119Y-433317380D01*
X553135357Y-433317380D01*
X553278214Y-433365000D01*
X553325833Y-433412619D01*
X553802023Y-434317380D02*
X553992500Y-434317380D01*
X554087738Y-434269761D01*
X554135357Y-434222142D01*
X554230595Y-434079285D01*
X554278214Y-433888809D01*
X554278214Y-433507857D01*
X554230595Y-433412619D01*
X554182976Y-433365000D01*
X554087738Y-433317380D01*
X553897261Y-433317380D01*
X553802023Y-433365000D01*
X553754404Y-433412619D01*
X553706785Y-433507857D01*
X553706785Y-433745952D01*
X553754404Y-433841190D01*
X553802023Y-433888809D01*
X553897261Y-433936428D01*
X554087738Y-433936428D01*
X554182976Y-433888809D01*
X554230595Y-433841190D01*
X554278214Y-433745952D01*
%TO.C,C8*%
X610475833Y-415172142D02*
X610428214Y-415219761D01*
X610285357Y-415267380D01*
X610190119Y-415267380D01*
X610047261Y-415219761D01*
X609952023Y-415124523D01*
X609904404Y-415029285D01*
X609856785Y-414838809D01*
X609856785Y-414695952D01*
X609904404Y-414505476D01*
X609952023Y-414410238D01*
X610047261Y-414315000D01*
X610190119Y-414267380D01*
X610285357Y-414267380D01*
X610428214Y-414315000D01*
X610475833Y-414362619D01*
X611047261Y-414695952D02*
X610952023Y-414648333D01*
X610904404Y-414600714D01*
X610856785Y-414505476D01*
X610856785Y-414457857D01*
X610904404Y-414362619D01*
X610952023Y-414315000D01*
X611047261Y-414267380D01*
X611237738Y-414267380D01*
X611332976Y-414315000D01*
X611380595Y-414362619D01*
X611428214Y-414457857D01*
X611428214Y-414505476D01*
X611380595Y-414600714D01*
X611332976Y-414648333D01*
X611237738Y-414695952D01*
X611047261Y-414695952D01*
X610952023Y-414743571D01*
X610904404Y-414791190D01*
X610856785Y-414886428D01*
X610856785Y-415076904D01*
X610904404Y-415172142D01*
X610952023Y-415219761D01*
X611047261Y-415267380D01*
X611237738Y-415267380D01*
X611332976Y-415219761D01*
X611380595Y-415172142D01*
X611428214Y-415076904D01*
X611428214Y-414886428D01*
X611380595Y-414791190D01*
X611332976Y-414743571D01*
X611237738Y-414695952D01*
%TO.C,C7*%
X591372833Y-415172142D02*
X591325214Y-415219761D01*
X591182357Y-415267380D01*
X591087119Y-415267380D01*
X590944261Y-415219761D01*
X590849023Y-415124523D01*
X590801404Y-415029285D01*
X590753785Y-414838809D01*
X590753785Y-414695952D01*
X590801404Y-414505476D01*
X590849023Y-414410238D01*
X590944261Y-414315000D01*
X591087119Y-414267380D01*
X591182357Y-414267380D01*
X591325214Y-414315000D01*
X591372833Y-414362619D01*
X591706166Y-414267380D02*
X592372833Y-414267380D01*
X591944261Y-415267380D01*
%TO.C,C6*%
X572375833Y-415172142D02*
X572328214Y-415219761D01*
X572185357Y-415267380D01*
X572090119Y-415267380D01*
X571947261Y-415219761D01*
X571852023Y-415124523D01*
X571804404Y-415029285D01*
X571756785Y-414838809D01*
X571756785Y-414695952D01*
X571804404Y-414505476D01*
X571852023Y-414410238D01*
X571947261Y-414315000D01*
X572090119Y-414267380D01*
X572185357Y-414267380D01*
X572328214Y-414315000D01*
X572375833Y-414362619D01*
X573232976Y-414267380D02*
X573042500Y-414267380D01*
X572947261Y-414315000D01*
X572899642Y-414362619D01*
X572804404Y-414505476D01*
X572756785Y-414695952D01*
X572756785Y-415076904D01*
X572804404Y-415172142D01*
X572852023Y-415219761D01*
X572947261Y-415267380D01*
X573137738Y-415267380D01*
X573232976Y-415219761D01*
X573280595Y-415172142D01*
X573328214Y-415076904D01*
X573328214Y-414838809D01*
X573280595Y-414743571D01*
X573232976Y-414695952D01*
X573137738Y-414648333D01*
X572947261Y-414648333D01*
X572852023Y-414695952D01*
X572804404Y-414743571D01*
X572756785Y-414838809D01*
%TO.C,C5*%
X553272833Y-415172142D02*
X553225214Y-415219761D01*
X553082357Y-415267380D01*
X552987119Y-415267380D01*
X552844261Y-415219761D01*
X552749023Y-415124523D01*
X552701404Y-415029285D01*
X552653785Y-414838809D01*
X552653785Y-414695952D01*
X552701404Y-414505476D01*
X552749023Y-414410238D01*
X552844261Y-414315000D01*
X552987119Y-414267380D01*
X553082357Y-414267380D01*
X553225214Y-414315000D01*
X553272833Y-414362619D01*
X554177595Y-414267380D02*
X553701404Y-414267380D01*
X553653785Y-414743571D01*
X553701404Y-414695952D01*
X553796642Y-414648333D01*
X554034738Y-414648333D01*
X554129976Y-414695952D01*
X554177595Y-414743571D01*
X554225214Y-414838809D01*
X554225214Y-415076904D01*
X554177595Y-415172142D01*
X554129976Y-415219761D01*
X554034738Y-415267380D01*
X553796642Y-415267380D01*
X553701404Y-415219761D01*
X553653785Y-415172142D01*
%TO.C,C4*%
X610475833Y-396122142D02*
X610428214Y-396169761D01*
X610285357Y-396217380D01*
X610190119Y-396217380D01*
X610047261Y-396169761D01*
X609952023Y-396074523D01*
X609904404Y-395979285D01*
X609856785Y-395788809D01*
X609856785Y-395645952D01*
X609904404Y-395455476D01*
X609952023Y-395360238D01*
X610047261Y-395265000D01*
X610190119Y-395217380D01*
X610285357Y-395217380D01*
X610428214Y-395265000D01*
X610475833Y-395312619D01*
X611332976Y-395550714D02*
X611332976Y-396217380D01*
X611094880Y-395169761D02*
X610856785Y-395884047D01*
X611475833Y-395884047D01*
%TO.C,C3*%
X591425833Y-396122142D02*
X591378214Y-396169761D01*
X591235357Y-396217380D01*
X591140119Y-396217380D01*
X590997261Y-396169761D01*
X590902023Y-396074523D01*
X590854404Y-395979285D01*
X590806785Y-395788809D01*
X590806785Y-395645952D01*
X590854404Y-395455476D01*
X590902023Y-395360238D01*
X590997261Y-395265000D01*
X591140119Y-395217380D01*
X591235357Y-395217380D01*
X591378214Y-395265000D01*
X591425833Y-395312619D01*
X591759166Y-395217380D02*
X592378214Y-395217380D01*
X592044880Y-395598333D01*
X592187738Y-395598333D01*
X592282976Y-395645952D01*
X592330595Y-395693571D01*
X592378214Y-395788809D01*
X592378214Y-396026904D01*
X592330595Y-396122142D01*
X592282976Y-396169761D01*
X592187738Y-396217380D01*
X591902023Y-396217380D01*
X591806785Y-396169761D01*
X591759166Y-396122142D01*
%TO.C,C2*%
X572375833Y-396122142D02*
X572328214Y-396169761D01*
X572185357Y-396217380D01*
X572090119Y-396217380D01*
X571947261Y-396169761D01*
X571852023Y-396074523D01*
X571804404Y-395979285D01*
X571756785Y-395788809D01*
X571756785Y-395645952D01*
X571804404Y-395455476D01*
X571852023Y-395360238D01*
X571947261Y-395265000D01*
X572090119Y-395217380D01*
X572185357Y-395217380D01*
X572328214Y-395265000D01*
X572375833Y-395312619D01*
X572756785Y-395312619D02*
X572804404Y-395265000D01*
X572899642Y-395217380D01*
X573137738Y-395217380D01*
X573232976Y-395265000D01*
X573280595Y-395312619D01*
X573328214Y-395407857D01*
X573328214Y-395503095D01*
X573280595Y-395645952D01*
X572709166Y-396217380D01*
X573328214Y-396217380D01*
%TO.C,C1*%
X553325833Y-396122142D02*
X553278214Y-396169761D01*
X553135357Y-396217380D01*
X553040119Y-396217380D01*
X552897261Y-396169761D01*
X552802023Y-396074523D01*
X552754404Y-395979285D01*
X552706785Y-395788809D01*
X552706785Y-395645952D01*
X552754404Y-395455476D01*
X552802023Y-395360238D01*
X552897261Y-395265000D01*
X553040119Y-395217380D01*
X553135357Y-395217380D01*
X553278214Y-395265000D01*
X553325833Y-395312619D01*
X554278214Y-396217380D02*
X553706785Y-396217380D01*
X553992500Y-396217380D02*
X553992500Y-395217380D01*
X553897261Y-395360238D01*
X553802023Y-395455476D01*
X553706785Y-395503095D01*
%TD*%
M02*
